<svg width="307" height="307" viewBox="0 0 307 307" fill="none" xmlns="http://www.w3.org/2000/svg">
<g clip-path="url(#clip0_3_239)">
<g clip-path="url(#clip1_3_239)">
<path d="M76.4736 131.542C76.4736 131.542 75.4174 137.223 69.4559 143.302C63.4944 149.381 59.1207 163.521 64.6375 173.783L61.8503 184.533C61.8503 184.533 58.4674 183.751 57.0594 189.585C55.6514 195.42 65.2053 198.285 70.1771 195.455C72.1621 194.326 73.8634 184.827 73.8634 184.827L79.3705 188.751L79.0601 190.257C79.0601 190.257 75.292 189.812 74.3638 195.169C73.4356 200.527 78.6842 202.15 81.6578 202.238C84.6315 202.326 85.8704 202.435 87.4808 201.081C89.0912 199.726 90.3037 193.405 90.3037 193.405L94.0673 195.412C94.0673 195.412 94.746 199.699 100.125 204.024C105.504 208.348 172.303 225.356 172.303 225.356C172.303 225.356 183.228 226.291 188.868 220.312C194.508 214.333 194.68 213.013 194.68 213.013L193.164 219.713C193.164 219.713 189.852 219.887 189.158 222.284C188.463 224.681 187.808 227.591 189.306 228.955C190.804 230.319 199.537 234.026 201.323 231.129C202.945 228.494 205.325 217.314 205.325 217.314L211.323 221.644L210.375 225.433C210.375 225.433 206.154 225.674 205.704 230.196C205.253 234.718 207.606 235.768 207.606 235.768C207.606 235.768 216.817 239.722 219.063 235.919C221.309 232.115 220.441 225.288 223.954 221.721C227.467 218.153 237.921 214.743 242.538 203.21C247.155 191.677 243.86 182.802 243.86 182.802C243.86 182.802 250.523 179.033 253.098 174.251C257.952 165.235 255.353 158.224 255.353 158.224C255.353 158.224 251.327 169.501 246.087 172.036C240.848 174.572 239.142 175.124 239.142 175.124C239.142 175.124 235.684 170.429 229.549 167.496C222.331 164.046 211.428 165.866 211.428 165.866C211.428 165.866 206.771 158.888 202.814 157.216C198.856 155.545 135.844 138.641 135.844 138.641L127.192 138.843L120.902 144.508L94.7097 124.492L76.4981 131.528L76.4736 131.542Z" fill="#505050"/>
<path d="M81.6236 179.976C81.6236 179.976 74.0443 171.19 78.7331 159.158C83.4218 147.127 92.9753 136.316 92.9753 136.316L86.7841 133.052L82.3017 131.448L76.4749 131.538C76.4749 131.538 75.3395 137.455 72.1804 140.61C69.0212 143.765 62.1442 149.687 62.234 160.421C62.3239 171.155 67.2406 178.016 67.2406 178.016C67.2406 178.016 72.7385 184.215 75.0173 185.737C77.2961 187.259 79.3731 188.742 79.3731 188.742L81.631 179.967L81.6236 179.976Z" fill="#F7BB64"/>
<path d="M211.305 221.655C211.305 221.655 206.273 217.444 202.636 215.874C198.998 214.304 194.471 212.925 194.471 212.925C194.471 212.925 196.266 208.427 196.351 205.908C196.436 203.389 195.95 202.845 195.95 202.845C195.95 202.845 199.863 204.121 202.985 205.993C206.107 207.865 213.102 215.2 213.102 215.2L211.306 221.65L211.305 221.655Z" fill="#F7BB64"/>
<path d="M180.436 183.045L119.791 166.795C108.268 163.707 96.4239 170.544 93.3367 182.066C90.2495 193.587 97.088 205.43 108.611 208.518L169.257 224.768C180.779 227.855 192.623 221.018 195.71 209.497C198.798 197.975 191.959 186.132 180.436 183.045Z" fill="#DDA576"/>
<path d="M127.168 138.857C127.168 138.857 129.951 137.646 134.01 138.454C138.069 139.263 197.985 154.991 199.73 155.779C201.476 156.568 209.09 159.892 211.399 165.879C211.399 165.879 202.732 167.257 200.948 167.307C199.165 167.357 197.061 167.363 197.061 167.363C197.061 167.363 196.959 164.944 193.786 164.327C190.612 163.71 185.655 166.755 185.655 166.755L174.559 164.797C174.559 164.797 174.091 162.601 172.062 161.886C170.033 161.172 165.708 163.403 165.708 163.403L156.407 161.294C156.407 161.294 157.205 158.837 155.588 157.995C152.527 156.398 146.441 159.851 146.441 159.851L132.954 156.806C132.954 156.806 133.179 154.48 129.675 152.915C126.17 151.35 122.073 152.788 122.073 152.788L118.476 150.779C118.476 150.779 119.559 145.712 121.811 143.685L127.166 138.862L127.168 138.857Z" fill="#DDA576"/>
<path d="M154.395 176.067C154.395 176.067 158.338 174.235 161.187 171.158C164.04 168.081 166.849 166.292 168.716 167.051C170.583 167.811 166.131 176.97 171.053 179.097C175.976 181.223 185.437 168.457 188.695 170.883C191.953 173.309 186.326 177.464 188.538 181.768C190.749 186.072 200.249 187.323 203.101 183.77C205.952 180.217 204.505 178.453 204.056 178.332C203.607 178.212 196.63 182.901 194.968 179.231C193.307 175.561 200.889 166.158 194.44 164.456C187.99 162.753 178.674 172.851 174.391 172.511C170.109 172.171 177.946 163.111 171.499 161.844C165.052 160.577 156.093 173.188 152.84 171.168C149.587 169.147 160.696 159.871 155.006 157.715C149.315 155.558 135.532 168.456 131.746 165.2C127.959 161.944 136.801 157.382 130.775 153.696C124.748 150.011 117.842 155.097 117.842 155.097L117.834 161.27C117.834 161.27 124.123 155.667 126.047 156.969C129.695 159.448 122.915 167.632 122.915 167.632L134.062 170.619C134.062 170.619 140.009 168.304 142.185 166.982C144.361 165.661 148.662 162.496 149.943 163.357C151.224 164.217 147.922 169.084 147.223 170.341C146.523 171.597 146.152 173.641 146.152 173.641L154.39 176.066L154.395 176.067Z" fill="#FCCE4C"/>
<path d="M109.532 194.473C109.532 194.473 108.145 195.245 107.657 195.813C107.168 196.381 106.637 197.377 107.642 197.973C108.646 198.573 109.418 197.931 109.591 197.035C109.764 196.14 109.534 194.468 109.534 194.468L109.532 194.473Z" fill="#A0663C"/>
<path d="M121.918 187.196C121.918 187.196 121.531 188.738 121.61 189.484C121.69 190.23 122.052 191.295 123.178 190.975C124.304 190.656 124.361 189.651 123.828 188.914C123.296 188.176 121.917 187.2 121.917 187.2L121.918 187.196Z" fill="#A0663C"/>
<path d="M112.764 183.34C112.764 183.34 111.432 182.476 110.701 182.306C109.97 182.136 108.842 182.134 108.783 183.303C108.723 184.473 109.651 184.856 110.519 184.591C111.387 184.327 112.764 183.34 112.764 183.34Z" fill="#A0663C"/>
<path d="M126.468 181.245C126.468 181.245 128.041 181.48 128.776 181.325C129.51 181.175 130.535 180.71 130.102 179.621C129.669 178.532 128.669 178.574 127.986 179.173C127.303 179.771 126.468 181.245 126.468 181.245Z" fill="#A0663C"/>
<path d="M141.276 186.544C141.276 186.544 141.957 185.106 142.021 184.362C142.087 183.614 141.941 182.498 140.775 182.6C139.61 182.696 139.355 183.668 139.734 184.495C140.113 185.321 141.275 186.548 141.275 186.548L141.276 186.544Z" fill="#A0663C"/>
<path d="M132.886 196.527C132.886 196.527 131.978 197.832 131.789 198.557C131.595 199.282 131.562 200.407 132.726 200.506C133.891 200.601 134.302 199.686 134.066 198.81C133.829 197.934 132.885 196.532 132.885 196.532L132.886 196.527Z" fill="#A0663C"/>
<path d="M177.437 214.117C177.437 214.117 176.05 214.89 175.561 215.457C175.072 216.025 174.541 217.022 175.547 217.617C176.55 218.218 177.323 217.576 177.496 216.68C177.668 215.784 177.438 214.112 177.438 214.112L177.437 214.117Z" fill="#A0663C"/>
<path d="M154.033 180.758C154.033 180.758 153.934 182.347 154.146 183.061C154.357 183.78 154.907 184.761 155.956 184.245C157.007 183.724 156.881 182.727 156.227 182.097C155.573 181.466 154.033 180.758 154.033 180.758Z" fill="#A0663C"/>
<path d="M142.298 195.115C142.298 195.115 143.704 195.854 144.45 195.951C145.194 196.052 146.314 195.948 146.266 194.775C146.216 193.608 145.255 193.314 144.412 193.658C143.569 194.001 142.298 195.115 142.298 195.115Z" fill="#A0663C"/>
<path d="M171.793 191.889C171.793 191.889 171.205 190.412 170.707 189.854C170.21 189.296 169.293 188.641 168.566 189.559C167.838 190.477 168.377 191.326 169.237 191.613C170.097 191.9 171.793 191.889 171.793 191.889Z" fill="#A0663C"/>
<path d="M151.077 202.727C151.077 202.727 151.569 201.218 151.543 200.465C151.515 199.718 151.228 198.626 150.086 198.869C148.94 199.11 148.813 200.106 149.293 200.882C149.774 201.658 151.082 202.728 151.082 202.728L151.077 202.727Z" fill="#A0663C"/>
<path d="M164.855 203.484C164.855 203.484 166.357 204.005 167.105 203.993C167.854 203.982 168.95 203.716 168.73 202.565C168.511 201.414 167.52 201.268 166.733 201.73C165.947 202.192 164.852 203.477 164.852 203.477L164.855 203.484Z" fill="#A0663C"/>
<path d="M184.871 194.601C184.871 194.601 183.484 195.374 182.995 195.942C182.507 196.509 181.976 197.506 182.981 198.101C183.985 198.702 184.757 198.06 184.93 197.164C185.103 196.268 184.873 194.597 184.873 194.597L184.871 194.601Z" fill="#A0663C"/>
<path d="M160.813 213.333C160.813 213.333 160.105 214.758 160.025 215.503C159.944 216.247 160.069 217.368 161.238 217.293C162.407 217.218 162.677 216.25 162.315 215.418C161.953 214.586 160.813 213.333 160.813 213.333Z" fill="#A0663C"/>
<path d="M136.265 209.302C136.265 209.302 137.772 208.8 138.361 208.337C138.947 207.872 139.654 206.99 138.779 206.218C137.906 205.44 137.024 205.929 136.689 206.776C136.353 207.623 136.269 209.308 136.269 209.308L136.265 209.302Z" fill="#A0663C"/>
<path d="M121.868 203.338C121.868 203.338 121.428 201.812 120.985 201.206C120.541 200.601 119.694 199.862 118.883 200.705C118.072 201.549 118.525 202.447 119.353 202.814C120.181 203.181 121.868 203.338 121.868 203.338Z" fill="#A0663C"/>
<path d="M134.865 152.494C134.865 152.494 136.349 153.063 137.096 153.076C137.844 153.085 138.945 152.858 138.764 151.701C138.582 150.545 137.594 150.368 136.793 150.806C135.993 151.243 134.859 152.498 134.859 152.498L134.865 152.494Z" fill="#A0663C"/>
<path d="M145.932 145.039C145.932 145.039 145.545 146.582 145.624 147.328C145.704 148.074 146.066 149.139 147.192 148.819C148.318 148.5 148.375 147.495 147.842 146.757C147.31 146.02 145.931 145.044 145.931 145.044L145.932 145.039Z" fill="#A0663C"/>
<path d="M134.027 144.593C134.027 144.593 132.695 143.729 131.964 143.559C131.233 143.389 130.105 143.387 130.046 144.556C129.986 145.726 130.913 146.109 131.781 145.844C132.649 145.58 134.027 144.593 134.027 144.593Z" fill="#A0663C"/>
<path d="M153.923 151.498C153.923 151.498 153.014 152.802 152.825 153.528C152.631 154.252 152.599 155.377 153.762 155.477C154.928 155.572 155.338 154.657 155.102 153.781C154.866 152.905 153.921 151.502 153.921 151.502L153.923 151.498Z" fill="#A0663C"/>
<path d="M197.095 158.526C197.095 158.526 195.708 159.298 195.219 159.866C194.73 160.434 194.199 161.43 195.205 162.026C196.208 162.626 196.981 161.984 197.154 161.088C197.326 160.193 197.096 158.521 197.096 158.521L197.095 158.526Z" fill="#A0663C"/>
<path d="M161.503 150.754C161.503 150.754 162.91 151.494 163.656 151.59C164.4 151.691 165.52 151.587 165.472 150.415C165.422 149.247 164.46 148.953 163.618 149.297C162.775 149.64 161.503 150.754 161.503 150.754Z" fill="#A0663C"/>
<path d="M168.479 160.595C168.479 160.595 168.972 159.086 168.945 158.334C168.918 157.586 168.631 156.495 167.489 156.737C166.342 156.979 166.215 157.975 166.696 158.751C167.176 159.526 168.484 160.596 168.484 160.596L168.479 160.595Z" fill="#A0663C"/>
<path d="M183.294 160.248C183.294 160.248 184.795 160.769 185.544 160.757C186.292 160.746 187.388 160.48 187.169 159.329C186.949 158.178 185.958 158.032 185.172 158.494C184.385 158.956 183.29 160.241 183.29 160.241L183.294 160.248Z" fill="#A0663C"/>
<path d="M177.557 151.329C177.557 151.329 176.849 152.754 176.768 153.499C176.688 154.243 176.812 155.364 177.981 155.289C179.151 155.214 179.42 154.246 179.058 153.413C178.696 152.581 177.557 151.329 177.557 151.329Z" fill="#A0663C"/>
<path d="M145.06 72.7401C145.29 71.8804 140.038 68.1438 136.054 69.4316C134.858 69.8202 133.073 70.9157 132.413 71.3339C129.706 69.6716 126.443 68.4039 125.034 68.7149C122.943 69.1795 122.524 70.8789 122.524 70.8789C122.524 70.8789 122.557 70.9086 122.607 70.9531C120.328 69.9541 118.243 69.4109 117.022 69.679C114.028 70.3418 113.422 72.7779 113.422 72.7779C113.422 72.7779 113.628 72.916 114.006 73.188C111.053 71.9412 108.359 71.2713 106.768 71.6266C102.784 72.5104 101.978 75.7473 101.978 75.7473C101.978 75.7473 110.544 79.1916 118.857 87.4599C127.166 95.727 129.293 105.713 129.293 105.713C129.293 105.713 130.716 107.166 133.056 104.5C134.98 102.304 134.958 98.9072 133.961 95.3065C134.052 95.3929 135.098 96.2995 136.781 94.3848C138.36 92.5873 138.199 89.7283 137.246 86.7759C137.585 86.8411 138.124 86.7422 138.818 85.9498C140.131 84.4485 139.848 81.9137 138.939 79.4703C139.327 79.1445 140.152 78.4028 140.418 77.8736C141.606 75.5055 139.929 75.0407 140.64 73.761C141.35 72.4812 144.835 73.5962 145.065 72.7414L145.06 72.7401Z" fill="#CC3636"/>
<path d="M86.7828 133.057L83.4336 131.86C84.4184 132.222 85.9273 132.792 87.4091 133.385L86.7828 133.057Z" fill="#342E2E"/>
<path d="M76.4736 131.542L74.4193 136.929C74.4193 136.929 74.5153 136.919 74.6683 136.908C75.957 134.204 76.4687 131.541 76.4687 131.541L76.4736 131.542Z" fill="#342E2E"/>
<path d="M83.4336 131.86C82.755 131.61 82.321 131.453 82.321 131.453L76.4736 131.542L82.3004 131.452L83.4288 131.858L83.4336 131.86Z" fill="#342E2E"/>
<path d="M91.8933 167.69C91.8933 167.69 89.0764 161.743 90.9186 156.703C92.7608 151.663 95.7258 146.645 103.215 142.398C107.323 140.067 108.41 139.199 108.41 139.199C108.41 139.199 101.381 140.028 97.4253 138.409C93.4682 136.795 92.5459 135.6 89.6674 134.327C88.9775 134.023 88.1995 133.701 87.4104 133.381L92.9753 136.316C92.9753 136.316 91.0799 138.464 88.5636 141.905C90.0241 142.829 90.9567 143.483 90.9567 143.483C90.9567 143.483 85.5201 153.901 86.8725 160.387C88.2248 166.873 92.9661 170.1 92.9661 170.1L94.7361 173.25L96.4234 175.395L93.2117 181.315C93.2117 181.315 91.5603 177.897 90.6099 178.874C89.6644 179.853 87.5178 195.417 86.1046 197.233C84.6914 199.05 80.2601 199.244 78.4819 197.303C76.7038 195.362 75.0532 192.326 75.0532 192.326C75.0532 192.326 72.4832 198.962 77.4376 201.2C82.392 203.439 86.0606 202.305 87.4689 201.067C88.8772 199.829 93.0698 182.251 93.0698 182.251L94.1082 180.867L96.8931 175.381L94.4944 172.259L91.8814 167.676L91.8933 167.69Z" fill="#342E2E"/>
<path d="M87.4091 133.385C85.9273 132.792 84.4184 132.222 83.4336 131.86L82.3052 131.454L76.4784 131.544C76.4784 131.544 75.9666 134.207 74.678 136.911C75.6166 136.846 79.128 136.762 82.8129 138.619C84.9969 139.722 87.0671 140.96 88.572 141.912C91.0883 138.471 92.9837 136.323 92.9837 136.323L87.4188 133.388L87.4091 133.385Z" fill="#A76D38"/>
<path d="M201.278 230.31C199.87 231.547 196.197 232.68 191.247 230.443C186.297 228.206 188.863 221.568 188.863 221.568C188.863 221.568 190.515 224.599 192.291 226.545C194.068 228.492 198.674 227.396 199.491 226.414C200.308 225.432 202.266 215.708 202.266 215.708L205.284 217.484C205.284 217.484 202.546 228.439 202.241 229.015C201.937 229.591 201.283 230.311 201.283 230.311L201.278 230.31Z" fill="#342E2E"/>
<path d="M70.2906 195.631C68.8823 196.869 65.2089 198.001 60.2593 195.764C55.3097 193.527 57.8749 186.89 57.8749 186.89C57.8749 186.89 59.5268 189.92 61.3036 191.867C63.0804 193.813 67.6859 192.717 68.5029 191.735C69.3199 190.753 71.0888 182.355 71.0888 182.355L73.9376 184.532C73.9376 184.532 71.5579 193.76 71.2535 194.336C70.9491 194.912 70.2954 195.632 70.2954 195.632L70.2906 195.631Z" fill="#342E2E"/>
<path d="M223.14 223.076C223.14 223.076 221.953 224.244 221.45 226.216C220.624 229.473 220.356 234.686 220.162 235.043C219.852 235.618 219.203 236.339 219.203 236.339C217.795 237.577 214.122 238.71 209.172 236.473C204.223 234.235 206.788 227.598 206.788 227.598C206.788 227.598 208.44 230.629 210.217 232.575C211.993 234.521 215.1 233.785 216.503 232.179C217.907 230.572 217.969 219.408 221.054 216.916C224.139 214.425 234.365 210.648 237.21 204.065C245.307 185.322 241.893 179.112 241.893 179.112C241.893 179.112 248.26 176.563 250.978 173.181C253.696 169.799 255.603 158.953 255.603 158.953C255.603 158.953 258.017 169.146 252.755 174.739C247.493 180.333 244.042 182.856 244.042 182.856C244.042 182.856 246.647 195.449 240.882 206.607C236.503 215.088 224.715 221.024 224.715 221.024L223.142 223.072L223.14 223.076Z" fill="#342E2E"/>
<path d="M81.6236 179.976C81.6236 179.976 74.303 178.164 70.7339 171.296C67.1648 164.429 65.3228 160.369 65.791 155.607C66.2593 150.846 67.8561 145.756 67.8561 145.756C67.8561 145.756 61.4136 152.742 62.3844 163.453C63.3552 174.164 70.3061 181.586 70.3061 181.586C70.3061 181.586 76.8583 187.618 79.3576 188.432L81.6236 179.976Z" fill="#A76D38"/>
<path d="M212.398 217.729C212.398 217.729 208.214 212.886 203.299 210.404C198.384 207.923 196.138 207.533 196.138 207.533L194.671 213.01C194.671 213.01 201.83 215.249 203.938 216.502C206.045 217.756 211.312 221.646 211.312 221.646L212.404 217.725L212.398 217.729Z" fill="#A76D38"/>
<path d="M195.498 198.137C195.498 198.137 192.49 210.386 177.291 210.45C162.092 210.513 114.253 198.378 104.915 190.358C97.3197 183.835 96.427 175.401 96.427 175.401C96.427 175.401 86.3627 188.601 97.8784 201.957C97.8784 201.957 103.312 206.907 106.693 207.911C110.073 208.915 170.734 225.071 170.734 225.071C170.734 225.071 181.056 226.998 187.983 221.027C200.469 210.262 195.503 198.139 195.503 198.139L195.498 198.137Z" fill="#A0663C"/>
<path d="M127.168 138.857C127.168 138.857 124.161 148.57 140.545 153.11C154.571 156.998 179.895 163.1 190.877 164.19C192.718 164.372 192.321 164.209 193.242 164.057C193.458 164.022 195.391 164.441 195.599 164.399C201.614 163.143 204.935 158.592 204.935 158.592C204.935 158.592 211.354 164.21 211.4 165.874C211.4 165.874 200.021 168.141 197.063 167.358L196.016 165.354L194.004 164.593L189.942 164.783L185.622 166.571L174.167 164.831C174.167 164.831 174.418 162.326 172.356 161.815C170.293 161.304 165.784 163.16 165.784 163.16L156.403 161.288C156.403 161.288 157.634 158.647 155.312 157.807C152.99 156.968 146.987 159.552 146.987 159.552L138.848 158.091L132.947 156.639C132.947 156.639 133.159 154.496 129.953 153.036C126.746 151.577 122.066 152.776 122.066 152.776L118.469 150.767C118.469 150.767 120.438 144.906 122.008 143.49L127.159 138.85L127.168 138.857Z" fill="#A0663C"/>
<path d="M118.195 157.257C118.195 157.257 123.476 153.91 125.856 154.899C128.236 155.889 129.591 158.773 127.522 163.053C125.454 167.334 125.103 168.218 125.103 168.218L122.915 167.632C122.915 167.632 129.486 159.433 125.858 157.25C123.481 155.821 118.225 160.93 118.225 160.93L118.19 157.255L118.195 157.257Z" fill="#C18733"/>
<path d="M129.381 169.023C129.381 169.023 137.396 167.661 141.711 165.08C146.026 162.499 147.495 161.096 149.473 161.227C151.451 161.359 152.059 163.168 151.95 163.786C151.899 164.093 151.846 166.067 150.941 167.553C150.035 169.039 148.273 170.032 148.042 171.378C147.581 174.065 149.293 174.571 149.293 174.571L145.966 173.679C145.966 173.679 146.769 170.68 148.27 168.613C149.772 166.546 151.461 163.468 149.806 163.211C148.151 162.954 142.3 166.842 140.752 167.577C139.205 168.311 133.536 170.478 133.536 170.478L129.382 169.018L129.381 169.023Z" fill="#C18733"/>
<path d="M169.765 178.167C167.204 174.897 170.67 167.544 168.618 167.051C166.566 166.558 165.091 167.773 163.736 168.735C162.381 169.697 159.298 173.146 157.461 174.285C155.623 175.423 154.086 175.984 154.086 175.984L152.013 174.911C152.013 174.911 155.601 173.631 158.186 171.56C160.77 169.488 163.438 166.274 165.755 165.528C168.072 164.782 170.473 165.478 170.747 167.451C171.021 169.424 169.241 176.51 171.91 177.484C174.584 178.459 177.601 175.157 179.857 173.054C182.113 170.952 186.756 167.687 189.414 169.031C192.072 170.375 191.342 173.544 190.491 178.207C189.64 182.871 198.015 184.049 200.401 183.394C202.787 182.739 204.436 179.501 204.436 179.501C204.436 179.501 205.052 184.159 200.636 185.357C196.221 186.555 189.321 185.141 188.049 180.773C186.776 176.404 191.697 172.836 188.783 170.844C185.863 168.856 176.345 180.075 172.07 179.322C170.126 178.983 169.755 178.164 169.755 178.164L169.765 178.167Z" fill="#C18733"/>
<path d="M108.248 71.4744C108.248 71.4744 105.876 73.2356 107.473 75.2163C109.07 77.1971 115.166 79.5604 121.021 85.6225C126.877 91.6846 129.337 100.585 131.025 101.627C132.713 102.669 134.295 102.037 134.295 102.037C134.295 102.037 133.297 105.549 130.21 106.098C130.21 106.098 123.725 91.1816 116.612 85.347C109.5 79.5124 101.978 75.7473 101.978 75.7473C101.978 75.7473 102.384 73.4594 104.449 72.5736C106.514 71.6878 108.249 71.4696 108.249 71.4696L108.248 71.4744Z" fill="#7A1629"/>
<path d="M118.052 69.6393C118.052 69.6393 117.178 71.2583 118.238 72.5205C119.297 73.7827 123.973 76.3089 127.431 79.9377C130.89 83.5666 133.201 91.0341 134.803 91.9137C136.405 92.7933 137.683 91.3084 137.683 91.3084C137.683 91.3084 137.656 95.3856 134.451 95.5621C134.451 95.5621 128.868 85.0074 123.838 80.6365C118.808 76.2657 113.108 72.8284 113.108 72.8284C113.108 72.8284 114.523 70.5418 115.771 70.1152C117.019 69.6887 118.051 69.6442 118.051 69.6442L118.052 69.6393Z" fill="#7A1629"/>
<path d="M126.228 69.0504C126.228 69.0504 125.641 70.1405 126.355 70.9894C127.07 71.8383 130.212 73.5394 132.54 75.98C134.867 78.4206 136.42 83.4437 137.498 84.0379C138.576 84.6322 139.434 83.6302 139.434 83.6302C139.434 83.6302 139.414 86.3734 137.26 86.49C137.26 86.49 133.505 79.391 130.12 76.45C126.736 73.5089 122.904 71.1982 122.904 71.1982C122.904 71.1982 123.859 69.663 124.693 69.369C125.528 69.075 126.228 69.0504 126.228 69.0504Z" fill="#7A1629"/>
<path d="M145.011 72.4785C144.609 72.5106 139.867 69.9408 138.619 72.0702C137.37 74.1996 134.395 70.1774 134.395 70.1774L132.411 71.3387C132.411 71.3387 135.515 74.6705 136.036 75.39C136.558 76.1095 138.356 79.5418 138.356 79.5418C138.356 79.5418 140.762 78.618 140.872 77.4932C140.982 76.3683 140.08 74.8067 140.576 74.0182C141.072 73.2297 143.789 73.0983 143.789 73.0983L145.007 72.4724L145.011 72.4785Z" fill="#7A1629"/>
<path d="M81.6236 179.976L79.0553 190.256" stroke="#110331" stroke-width="1.5" stroke-miterlimit="10" stroke-linecap="round"/>
<path d="M83.0444 191.48C83.0444 191.48 76.4619 187.822 74.6691 193.817C72.8702 199.816 77.5023 201.249 77.5023 201.249C77.5023 201.249 85.4919 204.099 87.7411 200.747C89.9903 197.395 92.7492 181.554 92.7492 181.554" stroke="#110331" stroke-width="1.5" stroke-miterlimit="10" stroke-linecap="round"/>
<path d="M64.4186 174.253L61.8503 184.533" stroke="#110331" stroke-width="1.5" stroke-miterlimit="10" stroke-linecap="round"/>
<path d="M65.8394 185.757C65.8394 185.757 59.2569 182.099 57.4641 188.094C55.6652 194.093 60.2972 195.526 60.2972 195.526C60.2972 195.526 68.2869 198.376 70.5361 195.024C71.5599 193.502 72.7431 189.491 73.8586 184.826" stroke="#110331" stroke-width="1.5" stroke-miterlimit="10" stroke-linecap="round"/>
<path d="M212.932 215.159L210.358 225.439" stroke="#110331" stroke-width="1.5" stroke-miterlimit="10" stroke-linecap="round"/>
<path d="M122.461 152.887C121.286 152.329 120.168 151.729 119.114 151.084" stroke="#110331" stroke-width="1.5" stroke-miterlimit="10" stroke-linecap="round"/>
<path d="M146.587 159.652C141.902 158.785 137.267 157.827 132.946 156.644" stroke="#110331" stroke-width="1.5" stroke-miterlimit="10" stroke-linecap="round"/>
<path d="M165.991 163.215C162.914 162.567 159.677 161.974 156.376 161.39" stroke="#110331" stroke-width="1.5" stroke-miterlimit="10" stroke-linecap="round"/>
<path d="M185.928 166.606C182.087 166.162 178.146 165.551 174.173 164.828" stroke="#110331" stroke-width="1.5" stroke-miterlimit="10" stroke-linecap="round"/>
<path d="M214.347 226.663C214.347 226.663 207.765 223.005 205.972 229C204.173 234.999 208.805 236.431 208.805 236.431C208.805 236.431 216.795 239.281 219.044 235.929C220.568 233.661 220.619 229.684 221.313 226.671C221.646 225.233 223.371 221.849 224.722 221.036C228.911 218.52 239.753 211.942 242.24 203.839C244.727 195.737 247.427 186.801 240.622 177.151C229.118 160.838 212.903 165.598 209.237 166.355C205.571 167.112 201.436 167.417 197.065 167.369" stroke="#110331" stroke-width="1.5" stroke-miterlimit="10" stroke-linecap="round"/>
<path d="M195.727 209.436L193.153 219.716" stroke="#110331" stroke-width="1.5" stroke-miterlimit="10" stroke-linecap="round"/>
<path d="M197.142 220.94C197.142 220.94 190.56 217.282 188.767 223.277C186.968 229.276 191.6 230.708 191.6 230.708C191.6 230.708 200.727 234.086 201.839 230.206C202.84 226.722 205.308 217.32 205.308 217.32" stroke="#110331" stroke-width="1.5" stroke-miterlimit="10" stroke-linecap="round"/>
<path d="M180.436 183.045L119.791 166.795C108.268 163.707 96.4239 170.544 93.3367 182.066C90.2495 193.587 97.088 205.43 108.611 208.518L169.257 224.768C180.779 227.855 192.623 221.018 195.71 209.497C198.798 197.975 191.959 186.132 180.436 183.045Z" stroke="#110331" stroke-width="1.5" stroke-miterlimit="10" stroke-linecap="round"/>
<path d="M211.404 165.88C208.671 160.856 203.971 156.916 198.045 155.328L137.394 139.077C133.941 138.151 130.449 138.126 127.168 138.857" stroke="#110331" stroke-width="1.5" stroke-miterlimit="10" stroke-linecap="round"/>
<path d="M211.338 221.783C211.338 221.783 208.129 218.728 203.525 216.324C198.588 213.749 194.669 213.015 194.669 213.015" stroke="#110331" stroke-width="1.5" stroke-miterlimit="10" stroke-linecap="round"/>
<path d="M239.118 175.133C239.118 175.133 247.567 172.909 251.085 167.293C254.604 161.678 254.549 158.443 255.2 158.157C255.851 157.871 257.581 168.801 252.336 175.279C247.091 181.757 243.651 182.886 243.651 182.886" stroke="#110331" stroke-width="1.5" stroke-miterlimit="10" stroke-linecap="round"/>
<path d="M79.3656 188.75C79.3656 188.75 66.4583 181.264 63.6383 170.964C60.8182 160.663 62.5091 151.281 69.2161 144.216C75.9232 137.151 76.725 130.295 76.725 130.295" stroke="#110331" stroke-width="1.5" stroke-miterlimit="10" stroke-linecap="round"/>
<path d="M90.2988 193.403C90.2988 193.403 92.3474 194.915 94.0625 195.411" stroke="#110331" stroke-width="1.5" stroke-miterlimit="10" stroke-linecap="round"/>
<path d="M133.536 170.478C133.536 170.478 137.652 169.236 141.474 167.201C146.366 164.593 148.886 162.162 150.132 163.48C152.149 165.614 145.48 170.702 146.157 173.642" stroke="#110331" stroke-width="1.5" stroke-miterlimit="10" stroke-linecap="round"/>
<path d="M154.395 176.067C154.395 176.067 158.338 174.235 161.187 171.158C164.04 168.081 166.849 166.292 168.716 167.051C170.583 167.811 166.131 176.97 171.053 179.097C175.976 181.223 185.437 168.457 188.695 170.883C191.953 173.309 186.326 177.464 188.538 181.768C190.749 186.072 200.249 187.323 203.101 183.77C205.952 180.217 204.505 178.453 204.056 178.332C203.607 178.212 196.63 182.901 194.968 179.231C193.307 175.561 200.889 166.158 194.44 164.456C187.99 162.753 178.674 172.851 174.391 172.511C170.109 172.171 177.946 163.111 171.499 161.844C165.052 160.577 156.093 173.188 152.84 171.168C149.587 169.147 160.696 159.871 155.006 157.715C149.315 155.558 135.532 168.456 131.746 165.2C127.959 161.944 136.801 157.382 130.775 153.696C124.748 150.011 117.842 155.097 117.842 155.097L117.834 161.27C117.834 161.27 124.123 155.667 126.047 156.969C129.695 159.448 122.915 167.632 122.915 167.632" stroke="#110331" stroke-width="1.5" stroke-miterlimit="10" stroke-linecap="round"/>
<path d="M125.166 81.9967C129.614 86.9362 137.819 99.0681 133.049 104.504C130.71 107.169 129.287 105.717 129.287 105.717C129.287 105.717 127.159 95.7305 118.851 87.4635C110.543 79.1964 101.972 75.7508 101.972 75.7508C101.972 75.7508 102.778 72.514 106.762 71.6301C110.747 70.7463 120.642 76.9745 125.16 82.0002L125.166 81.9967Z" stroke="#110331" stroke-width="1.5" stroke-miterlimit="10" stroke-linecap="round"/>
<path d="M130.846 77.4725C134.189 81.1842 140.354 90.3006 136.77 94.3871C135.011 96.3902 133.942 95.3013 133.942 95.3013C133.942 95.3013 131.737 88.209 125.492 81.9961C119.248 75.7831 113.421 72.7827 113.421 72.7827C113.421 72.7827 114.025 70.3515 117.02 69.6838C120.015 69.0162 127.451 73.7004 130.849 77.4786L130.846 77.4725Z" stroke="#110331" stroke-width="1.5" stroke-miterlimit="10" stroke-linecap="round"/>
<path d="M134.681 74.1519C137.009 76.7429 141.311 83.0978 138.813 85.9485C137.59 87.3445 136.841 86.5848 136.841 86.5848C136.841 86.5848 135.208 81.8042 130.85 77.4737C126.493 73.1433 122.524 70.8789 122.524 70.8789C122.524 70.8789 122.947 69.1807 125.034 68.7149C127.121 68.2491 132.311 71.519 134.681 74.1519Z" stroke="#110331" stroke-width="1.5" stroke-miterlimit="10" stroke-linecap="round"/>
<path d="M145.06 72.7401C145.29 71.8804 140.038 68.1438 136.054 69.4316C134.558 69.9158 132.149 71.5065 132.149 71.5065C132.149 71.5065 134.628 73.5373 136.036 75.39C137.445 77.2427 138.728 79.6414 138.728 79.6414C138.728 79.6414 140.059 78.5747 140.412 77.8772C141.6 75.5091 139.923 75.0442 140.634 73.7645C141.344 72.4847 144.829 73.5998 145.058 72.7449L145.06 72.7401Z" stroke="#110331" stroke-width="1.5" stroke-miterlimit="10" stroke-linecap="round"/>
<path d="M109.532 194.473C109.532 194.473 108.145 195.245 107.657 195.813C107.168 196.381 106.637 197.377 107.642 197.973C108.646 198.573 109.418 197.931 109.591 197.035C109.764 196.14 109.534 194.468 109.534 194.468L109.532 194.473Z" stroke="#110331" stroke-width="0.5" stroke-linecap="round" stroke-linejoin="round"/>
<path d="M121.918 187.196C121.918 187.196 121.531 188.738 121.61 189.484C121.69 190.23 122.052 191.295 123.178 190.975C124.304 190.656 124.361 189.651 123.828 188.914C123.296 188.176 121.917 187.2 121.917 187.2L121.918 187.196Z" stroke="#110331" stroke-width="0.5" stroke-linecap="round" stroke-linejoin="round"/>
<path d="M112.764 183.34C112.764 183.34 111.432 182.476 110.701 182.306C109.97 182.136 108.842 182.134 108.783 183.303C108.723 184.473 109.651 184.856 110.519 184.591C111.387 184.327 112.764 183.34 112.764 183.34Z" stroke="#110331" stroke-width="0.5" stroke-linecap="round" stroke-linejoin="round"/>
<path d="M126.468 181.245C126.468 181.245 128.041 181.48 128.776 181.325C129.51 181.175 130.535 180.71 130.102 179.621C129.669 178.532 128.669 178.574 127.986 179.173C127.303 179.771 126.468 181.245 126.468 181.245Z" stroke="#110331" stroke-width="0.5" stroke-linecap="round" stroke-linejoin="round"/>
<path d="M141.276 186.544C141.276 186.544 141.957 185.106 142.021 184.362C142.087 183.614 141.941 182.498 140.775 182.6C139.61 182.696 139.355 183.668 139.734 184.495C140.113 185.321 141.275 186.548 141.275 186.548L141.276 186.544Z" stroke="#110331" stroke-width="0.5" stroke-linecap="round" stroke-linejoin="round"/>
<path d="M132.886 196.527C132.886 196.527 131.978 197.832 131.789 198.557C131.595 199.282 131.562 200.407 132.726 200.506C133.891 200.601 134.302 199.686 134.066 198.81C133.829 197.934 132.885 196.532 132.885 196.532L132.886 196.527Z" stroke="#110331" stroke-width="0.5" stroke-linecap="round" stroke-linejoin="round"/>
<path d="M177.437 214.117C177.437 214.117 176.05 214.89 175.561 215.457C175.072 216.025 174.541 217.022 175.547 217.617C176.55 218.218 177.323 217.576 177.496 216.68C177.668 215.784 177.438 214.112 177.438 214.112L177.437 214.117Z" stroke="#110331" stroke-width="0.5" stroke-linecap="round" stroke-linejoin="round"/>
<path d="M154.033 180.758C154.033 180.758 153.934 182.347 154.146 183.061C154.357 183.78 154.907 184.761 155.956 184.245C157.007 183.724 156.881 182.727 156.227 182.097C155.573 181.466 154.033 180.758 154.033 180.758Z" stroke="#110331" stroke-width="0.5" stroke-linecap="round" stroke-linejoin="round"/>
<path d="M142.298 195.115C142.298 195.115 143.704 195.854 144.45 195.951C145.194 196.052 146.314 195.948 146.266 194.775C146.216 193.608 145.255 193.314 144.412 193.658C143.569 194.001 142.298 195.115 142.298 195.115Z" stroke="#110331" stroke-width="0.5" stroke-linecap="round" stroke-linejoin="round"/>
<path d="M171.793 191.889C171.793 191.889 171.205 190.412 170.707 189.854C170.21 189.296 169.293 188.641 168.566 189.559C167.838 190.477 168.377 191.326 169.237 191.613C170.097 191.9 171.793 191.889 171.793 191.889Z" stroke="#110331" stroke-width="0.5" stroke-linecap="round" stroke-linejoin="round"/>
<path d="M151.077 202.727C151.077 202.727 151.569 201.218 151.543 200.465C151.515 199.718 151.228 198.626 150.086 198.869C148.94 199.11 148.813 200.106 149.293 200.882C149.774 201.658 151.082 202.728 151.082 202.728L151.077 202.727Z" stroke="#110331" stroke-width="0.5" stroke-linecap="round" stroke-linejoin="round"/>
<path d="M164.855 203.484C164.855 203.484 166.357 204.005 167.105 203.993C167.854 203.982 168.95 203.716 168.73 202.565C168.511 201.414 167.52 201.268 166.733 201.73C165.947 202.192 164.852 203.477 164.852 203.477L164.855 203.484Z" stroke="#110331" stroke-width="0.5" stroke-linecap="round" stroke-linejoin="round"/>
<path d="M184.871 194.601C184.871 194.601 183.484 195.374 182.995 195.942C182.507 196.509 181.976 197.506 182.981 198.101C183.985 198.702 184.757 198.06 184.93 197.164C185.103 196.268 184.873 194.597 184.873 194.597L184.871 194.601Z" stroke="#110331" stroke-width="0.5" stroke-linecap="round" stroke-linejoin="round"/>
<path d="M160.813 213.333C160.813 213.333 160.105 214.758 160.025 215.503C159.944 216.247 160.069 217.368 161.238 217.293C162.407 217.218 162.677 216.25 162.315 215.418C161.953 214.586 160.813 213.333 160.813 213.333Z" stroke="#110331" stroke-width="0.5" stroke-linecap="round" stroke-linejoin="round"/>
<path d="M136.265 209.302C136.265 209.302 137.772 208.8 138.361 208.337C138.947 207.872 139.654 206.99 138.779 206.218C137.906 205.44 137.024 205.929 136.689 206.776C136.353 207.623 136.269 209.308 136.269 209.308L136.265 209.302Z" stroke="#110331" stroke-width="0.5" stroke-linecap="round" stroke-linejoin="round"/>
<path d="M121.868 203.338C121.868 203.338 121.428 201.812 120.985 201.206C120.541 200.601 119.694 199.862 118.883 200.705C118.072 201.549 118.525 202.447 119.353 202.814C120.181 203.181 121.868 203.338 121.868 203.338Z" stroke="#110331" stroke-width="0.5" stroke-linecap="round" stroke-linejoin="round"/>
<path d="M134.865 152.494C134.865 152.494 136.349 153.063 137.096 153.076C137.844 153.085 138.945 152.858 138.764 151.701C138.582 150.545 137.594 150.368 136.793 150.806C135.993 151.243 134.859 152.498 134.859 152.498L134.865 152.494Z" stroke="#110331" stroke-width="0.5" stroke-linecap="round" stroke-linejoin="round"/>
<path d="M145.932 145.039C145.932 145.039 145.545 146.582 145.624 147.328C145.704 148.074 146.066 149.139 147.192 148.819C148.318 148.5 148.375 147.495 147.842 146.757C147.31 146.02 145.931 145.044 145.931 145.044L145.932 145.039Z" stroke="#110331" stroke-width="0.5" stroke-linecap="round" stroke-linejoin="round"/>
<path d="M134.027 144.593C134.027 144.593 132.695 143.729 131.964 143.559C131.233 143.389 130.105 143.387 130.046 144.556C129.986 145.726 130.913 146.109 131.781 145.844C132.649 145.58 134.027 144.593 134.027 144.593Z" stroke="#110331" stroke-width="0.5" stroke-linecap="round" stroke-linejoin="round"/>
<path d="M153.923 151.498C153.923 151.498 153.014 152.802 152.825 153.528C152.631 154.252 152.599 155.377 153.762 155.477C154.928 155.572 155.338 154.657 155.102 153.781C154.866 152.905 153.921 151.502 153.921 151.502L153.923 151.498Z" stroke="#110331" stroke-width="0.5" stroke-linecap="round" stroke-linejoin="round"/>
<path d="M197.095 158.526C197.095 158.526 195.708 159.298 195.219 159.866C194.73 160.434 194.199 161.43 195.205 162.026C196.208 162.626 196.981 161.984 197.154 161.088C197.326 160.193 197.096 158.521 197.096 158.521L197.095 158.526Z" stroke="#110331" stroke-width="0.5" stroke-linecap="round" stroke-linejoin="round"/>
<path d="M161.503 150.754C161.503 150.754 162.91 151.494 163.656 151.59C164.4 151.691 165.52 151.587 165.472 150.415C165.422 149.247 164.46 148.953 163.618 149.297C162.775 149.64 161.503 150.754 161.503 150.754Z" stroke="#110331" stroke-width="0.5" stroke-linecap="round" stroke-linejoin="round"/>
<path d="M168.479 160.595C168.479 160.595 168.972 159.086 168.945 158.334C168.918 157.586 168.631 156.495 167.489 156.737C166.342 156.979 166.215 157.975 166.696 158.751C167.176 159.526 168.484 160.596 168.484 160.596L168.479 160.595Z" stroke="#110331" stroke-width="0.5" stroke-linecap="round" stroke-linejoin="round"/>
<path d="M183.294 160.248C183.294 160.248 184.795 160.769 185.544 160.757C186.292 160.746 187.388 160.48 187.169 159.329C186.949 158.178 185.958 158.032 185.172 158.494C184.385 158.956 183.29 160.241 183.29 160.241L183.294 160.248Z" stroke="#110331" stroke-width="0.5" stroke-linecap="round" stroke-linejoin="round"/>
<path d="M177.557 151.329C177.557 151.329 176.849 152.754 176.768 153.499C176.688 154.243 176.812 155.364 177.981 155.289C179.151 155.214 179.42 154.246 179.058 153.413C178.696 152.581 177.557 151.329 177.557 151.329Z" stroke="#110331" stroke-width="0.5" stroke-linecap="round" stroke-linejoin="round"/>
<path d="M70.0168 128.632C70.0168 128.632 71.9025 130.809 74.9523 131.347C76.4796 131.616 81.1449 131.36 81.1449 131.36C81.1449 131.36 87.1651 133.33 88.6523 133.962C90.1396 134.593 90.6573 135.037 96.3483 138.043C102.039 141.048 110.069 138.805 110.069 138.805C110.069 138.805 100.333 142.605 93.5979 150.568C86.2822 159.209 92.6503 174.601 101.215 179.189C108.077 182.866 116.86 177.713 118.593 173.679C120.214 169.89 119.444 167.334 118.576 163.369C117.756 159.629 116.966 150.871 120.602 145.742C124.031 140.905 130.098 139.145 130.144 131.73C130.193 123.683 127.513 121.728 127.513 121.728C127.513 121.728 129.864 117.047 130.291 112.673C130.718 108.3 127.854 101.714 126.698 98.3607C126.196 96.9114 120.35 88.4553 113.982 83.0117C108.352 78.1953 102.082 76.2306 102.082 76.2306C102.082 76.2306 100.605 74.1111 98.6411 72.767C96.677 71.4229 94.4363 70.957 92.805 71.1722C87.2476 71.8986 85.7948 74.2683 85.7948 74.2683L80.9 71.1502C80.9 71.1502 80.5033 71.0853 78.4819 71.1338C71.4043 71.3131 70.3049 83.5298 70.3049 83.5298C70.3049 83.5298 66.3402 92.3957 66.6323 94.5704C66.9244 96.7451 70.2325 99.3708 70.2325 99.3708C70.2325 99.3708 66.8074 104.059 67.6301 105.548C68.4529 107.036 71.0337 109.208 71.0337 109.208C71.0337 109.208 68.5644 111.508 65.1742 113.11C63.4969 113.903 61.3322 114.177 59.6488 114.606C54.6364 115.887 52.433 112.113 46.3734 115.371C41.0947 118.206 40.9184 128.253 51.7334 133.154C62.5497 138.05 68.8945 128.802 68.8945 128.802L70.0181 128.627L70.0168 128.632Z" fill="#505050"/>
<path d="M75.6995 115.48L75.0858 116.128L74.3801 116.984L75.4729 116.982C75.4729 116.982 76.2781 116.411 76.6337 115.896C76.9557 115.428 77.589 114.552 77.7058 114.387L76.9456 113.862L75.9403 115.083L75.7008 115.475L75.6995 115.48Z" fill="#F7BB64"/>
<path d="M79.0245 115.299L77.4104 117.092L74.2499 117.007L75.0871 116.123L75.9464 115.08L76.7732 113.733L76.9531 113.854L76.9901 113.812L74.3205 111.875C74.3205 111.875 64.1542 127.677 56.5688 126.97C46.3932 126.019 46.9961 115.056 46.9961 115.056C46.9961 115.056 39.1606 118.759 44.4507 127.144C49.7408 135.529 60.5375 135.244 64.3551 132.819C68.1775 130.396 79.0258 115.294 79.0258 115.294L79.0245 115.299Z" fill="#342E2E"/>
<path d="M77.728 114.362C77.728 114.362 77.7193 114.375 77.7045 114.392L79.0232 115.304L77.728 114.362Z" fill="#666666"/>
<path d="M75.4716 116.987L74.3788 116.989L75.0845 116.133L74.2474 117.016L77.4078 117.102L79.022 115.309L77.7032 114.396C77.5864 114.562 76.9518 115.443 76.6311 115.905C76.2755 116.421 75.4703 116.992 75.4703 116.992L75.4716 116.987Z" fill="#A76D38"/>
<path d="M75.939 115.088L76.9456 113.862L76.7706 113.743L75.939 115.088Z" fill="#666666"/>
<path d="M95.0373 123.405C96.5885 123.836 100.616 125.205 100.616 125.205C100.616 125.205 97.1851 126.439 94.9265 126.89C92.6679 127.341 89.3624 127.873 89.413 127.819C89.4636 127.766 90.3303 125.42 89.8099 123.479C89.4982 122.324 87.5591 120.868 87.5591 120.868L88.287 120.566C88.287 120.566 93.4799 122.977 95.0312 123.408L95.0373 123.405Z" fill="#6D2D32"/>
<path d="M79.0245 115.299L77.4104 117.092C77.4104 117.092 78.9749 117.242 79.397 117.309C79.8192 117.376 82.182 117.579 82.182 117.579L79.0294 115.3L79.0245 115.299Z" fill="#6D2D32"/>
<path d="M86.6844 127.803C86.6844 127.803 84.3384 124.581 81.725 124.559C79.1117 124.536 74.3854 127.049 74.3854 127.049C74.3854 127.049 80.4847 127.565 81.8853 127.65C83.2859 127.736 86.6892 127.804 86.6892 127.804L86.6844 127.803Z" fill="#A34F55"/>
<path d="M89.4649 127.761C89.4649 127.761 91.6775 123.058 87.3348 120.43L82.3744 117.75C82.3744 117.75 69.7433 115.261 65.0763 119.368C60.4092 123.475 62.9356 125.637 63.9072 126.86C64.8787 128.084 69.2496 129.757 72.6778 127.549C76.1061 125.341 79.684 124.333 82.0461 124.577C84.5706 124.834 86.3423 127.804 86.3423 127.804L89.4649 127.761Z" fill="#F38992"/>
<path d="M70.3634 99.2299C70.3634 99.2299 66.9923 103.736 67.6288 105.553C68.1347 106.987 76.1385 113.61 85.9122 119.345C90.2202 121.871 100.836 125.274 100.836 125.274L105.821 123.67L103.905 121.857C103.905 121.857 92.5334 121.564 84.7966 114.93C77.0586 108.302 73.327 103.451 72.7797 100.799L71.6575 100.312L70.3599 99.2238L70.3634 99.2299Z" fill="white"/>
<path d="M71.6023 87.5164C71.6023 87.5164 70.3047 83.9749 70.9092 79.9802C71.5137 75.9856 74.3144 70.923 79.4729 71.125C88.4228 71.4732 91.6261 85.8108 88.5033 89.1773C85.3806 92.5438 75.4358 91.7167 71.601 87.5212" fill="#3D3837"/>
<path d="M68.3456 122.64C68.3456 122.64 68.2958 122.285 68.8986 121.852C70.0613 121.009 72.6005 119.743 75.2019 119.249C79.1441 118.504 78.0832 118.696 78.0832 118.696C78.0832 118.696 78.2339 118.172 77.8814 117.788C77.5289 117.404 76.5818 117.036 76.5818 117.036C76.5818 117.036 81.396 117.441 82.3683 117.753C83.3406 118.065 86.795 120.145 86.795 120.145L88.9355 122.029L90.0241 125.017L89.5647 127.814L86.497 128.058C86.497 128.058 85.4665 125.722 82.5252 124.721C79.5839 123.721 75.9629 126.281 75.9629 126.281C75.9629 126.281 69.0899 129.657 66.9997 128.745C64.9096 127.833 62.0255 126.097 62.3435 123.636C62.4507 122.81 63.6335 121.642 63.6335 121.642C63.6335 121.642 63.9562 124.881 65.2672 125.822C67.833 127.664 69.931 126.885 72.2986 125.796C74.6662 124.707 78.479 122.783 79.6572 122.752C80.2202 122.737 79.8792 121.885 79.3944 121.144C78.6292 119.981 77.8444 119.916 77.8444 119.916L73.907 120.45L68.3479 122.651L68.3456 122.64Z" fill="#A34F55"/>
<path d="M89.4486 80.5686C89.4486 80.5686 86.5846 84.9983 79.9797 83.8963C74.6981 83.0142 71.1542 78.757 71.1542 78.757C71.1542 78.757 69.153 85.8197 72.1518 88.3055C75.1506 90.7914 80.007 91.2903 82.11 91.1498C84.213 91.0093 86.6841 90.9053 88.385 89.2905C90.8008 86.9977 89.4438 80.5673 89.4438 80.5673L89.4486 80.5686Z" fill="#2B2021"/>
<path d="M77.5936 74.1206C77.5263 73.2899 78.8838 73.0532 80.761 73.5044C82.6381 73.9556 85.484 75.8725 84.2014 77.7806C82.9189 79.6886 82.3398 76.4794 80.7386 75.7708C79.1374 75.0623 77.6595 74.9562 77.5874 74.1242L77.5936 74.1206Z" fill="#666666"/>
<path d="M72.5004 88.4921C72.2539 88.2915 72.0087 88.086 71.7639 87.86C71.9212 88.0263 72.1686 88.2427 72.5004 88.4921Z" fill="#EEBB72"/>
<path d="M66.5963 94.1829C66.6155 94.2657 66.6361 94.3437 66.6553 94.4265C66.7079 92.4529 68.1515 88.6106 69.118 86.2399C67.7877 88.8288 66.2178 92.3888 66.595 94.1878L66.5963 94.1829Z" fill="#EEBB72"/>
<path d="M70.8081 83.178C70.8081 83.178 70.5099 83.6727 70.0661 84.4597C70.1891 84.7928 70.4238 85.4044 70.7055 86.0338C70.3443 84.5808 70.8081 83.178 70.8081 83.178Z" fill="#EEBB72"/>
<path d="M83.6184 131.904C85.5546 132.599 89.1387 133.963 90.6573 135.037C92.7908 136.541 97.178 138.617 99.5393 138.981C99.8272 139.027 100.2 139.065 100.622 139.095C96.3971 138.749 91.1845 135.272 89.6661 134.332C88.6591 133.705 85.5826 132.591 83.6172 131.909L83.6184 131.904Z" fill="#EEBB72"/>
<path d="M70.7055 86.0338C70.8658 86.672 71.18 87.3153 71.7626 87.8648C71.4075 87.4901 71.0258 86.7511 70.7055 86.0338Z" fill="#666666"/>
<path d="M69.9795 84.2035C69.9795 84.2035 69.6078 85.0305 69.1193 86.2351C69.4654 85.5617 69.7995 84.9525 70.0722 84.4561C70.0119 84.295 69.9808 84.1987 69.9808 84.1987L69.9795 84.2035Z" fill="#666666"/>
<path d="M83.1527 91.3153C83.2293 91.2996 83.6324 91.2057 79.9488 91.1401C76.7346 91.0812 73.9018 89.5405 72.5052 88.4934C76.3143 91.5484 80.8002 91.5753 83.1527 91.3153Z" fill="#666666"/>
<path d="M104.115 122.058C103.701 121.865 103.374 121.772 103.374 121.772L96.5322 120.627C96.5322 120.627 89.9027 119.115 82.6178 113.306C75.328 107.497 72.7833 100.805 72.7833 100.805C72.7833 100.805 67.6296 98.1506 66.654 94.4313C66.647 94.6313 66.6561 94.8098 66.6801 94.9715C67.0745 97.479 70.2711 99.1689 70.2711 99.1689L69.0233 101.392C69.0233 101.392 69.5351 101.896 70.1873 102.128C70.8637 102.366 71.6349 102.309 71.6349 102.309C71.6349 102.309 70.7513 102.419 73.4083 107.049C76.2197 111.954 83.5531 116.036 86.7111 118.14C89.8691 120.244 95.729 122.156 98.2935 122.631C99.6984 122.894 101.708 122.754 102.527 123.196C102.942 123.421 100.732 123.983 100.096 124.481C99.6967 124.793 100.802 125.151 100.802 125.151C100.802 125.151 100.952 125.15 101.187 125.161C103.867 124.357 105.816 123.689 105.816 123.689L104.106 122.072L104.115 122.058Z" fill="#AC968C"/>
<path d="M104.115 122.058L105.825 123.676C105.593 122.879 104.75 122.353 104.115 122.058Z" fill="#666666"/>
<path d="M72.7833 100.805C72.7833 100.805 75.328 107.497 82.6178 113.306C89.9075 119.116 96.5322 120.627 96.5322 120.627L103.374 121.772L101.317 120.428C101.317 120.428 95.3899 117.298 91.3361 114.151C87.2823 111.005 84.7888 105.88 83.8358 101.033C82.8827 96.1864 83.1417 91.3176 83.1417 91.3176C83.1417 91.3176 83.1417 91.3176 83.1514 91.3201C80.7976 91.585 76.3117 91.558 72.5039 88.4982C72.177 88.2502 71.9247 88.0325 71.7674 87.8661C71.1835 87.3214 70.8706 86.6733 70.7103 86.0351C70.4286 85.4057 70.1939 84.7941 70.0709 84.461C69.7934 84.956 69.4654 85.5617 69.118 86.2399C68.1516 88.6106 66.7066 92.4577 66.6553 94.4265C67.6296 98.1506 72.7846 100.8 72.7846 100.8L72.7833 100.805Z" fill="#A76D38"/>
<path d="M103.822 125.935C104.08 126.749 102.043 128.15 103.579 127.614C105.115 127.078 106.208 124.99 105.821 123.67C105.821 123.67 103.872 124.338 101.192 125.142C101.961 125.172 103.623 125.307 103.822 125.935Z" fill="#A76D38"/>
<path d="M100.622 139.095C104.846 139.44 109.755 139.223 109.755 139.223L114.208 135.778L109.48 139.185C109.48 139.185 103.643 139.314 100.616 139.098L100.622 139.095Z" fill="#666666"/>
<path d="M82.3004 131.452C82.6043 131.555 83.0686 131.715 83.6184 131.904C82.8348 131.621 82.3223 131.448 82.3223 131.448C82.3223 131.448 82.3175 131.447 82.3017 131.448L82.3004 131.452Z" fill="#666666"/>
<path d="M119.341 166.674L118.273 161.719C118.273 161.719 117.503 150.875 120.414 146.676C123.325 142.476 129.029 138.75 130.139 131.728C131.244 124.705 127.508 121.727 127.508 121.727C127.508 121.727 129.974 118.976 130.262 113.747C130.521 108.936 127.806 100.987 125.438 96.3771C119.031 83.9141 103.439 75.9938 102.58 76.245C102.023 76.4115 101.523 78.9331 104.203 81.6646C109.202 86.7675 119.785 94.6605 123.057 103.757C125.768 111.296 117.861 123.826 117.726 124.039C117.106 125.001 114.295 128.016 113.71 129.386C114.866 129.924 115.832 130.064 116.207 130.097L120.077 130.777L124.423 126.149C124.423 126.149 125.788 128.011 125.585 131.222C125.38 134.439 118.652 140.867 116.459 143.121C113.802 145.851 113.387 150.104 113.023 150.151C112.658 150.198 112.273 148.273 111.968 147.249C111.664 146.22 111.815 144.708 111.651 144.55C111.444 144.355 108.967 147.687 107.754 156.695C106.903 163.021 111.973 168.577 107.177 171.775C102.376 174.971 97.0761 175.528 97.0761 175.528C100.276 180.237 104.414 181.372 112.005 179.14C121.129 176.461 119.354 166.667 119.354 166.667L119.341 166.674Z" fill="#342E2E"/>
<path d="M109.449 134.203C105.815 135.305 94.8786 134.931 94.3451 133.696C93.8116 132.461 96.8231 133.18 96.8629 132.761C96.9027 132.342 90.9138 131.395 90.9138 131.395L81.906 131.321C81.906 131.321 82.0531 131.371 82.3004 131.452C82.3101 131.455 82.321 131.453 82.321 131.453C82.321 131.453 82.8336 131.626 83.6172 131.909C85.5778 132.589 88.6529 133.708 89.6661 134.332C91.1894 135.273 96.3971 138.749 100.622 139.095C103.649 139.311 109.486 139.182 109.486 139.182L114.214 135.775L120.338 130.5C119.964 130.467 114.866 129.924 113.706 129.385C112.913 131.243 111.539 133.567 109.449 134.203Z" fill="#A76D38"/>
<path d="M113.706 129.385C112.876 129.003 111.956 128.419 111.084 127.518C110.238 126.639 109.655 125.531 109.261 124.452C108.517 122.436 109.967 121.545 108.136 119.512C106.305 117.479 105.276 118.363 103.101 117.785C99.1386 116.734 92.99 114.393 89.8832 109.606C84.8317 101.818 84.7753 91.0358 84.7753 91.0358C84.7753 91.0358 84.1564 91.2012 83.1478 91.314C83.143 91.3127 83.1382 91.3114 83.1382 91.3114C83.1382 91.3114 82.8779 96.1851 83.8322 101.027C84.7865 105.869 87.2788 110.999 91.3325 114.145C95.3863 117.292 101.313 120.422 101.313 120.422L103.37 121.766L103.905 121.857L104.112 122.052C104.747 122.347 105.59 122.873 105.821 123.67C106.203 124.989 105.114 127.083 103.579 127.614C102.043 128.15 104.08 126.749 103.822 125.935C103.627 125.308 101.961 125.172 101.192 125.142C97.1002 126.37 91.3083 127.913 88.1801 127.862C85.3197 127.815 81.1647 127.732 78.267 127.457C75.9299 127.235 74.501 126.811 74.501 126.811L70.012 128.631C70.012 128.631 71.6065 130.89 75.2498 131.396C78.7432 131.881 81.9073 131.316 81.9073 131.316L90.9151 131.39C90.9151 131.39 96.904 132.337 96.8642 132.756C96.8244 133.175 93.8067 132.46 94.3464 133.691C94.886 134.923 105.816 135.3 109.45 134.198C111.541 133.562 112.919 131.24 113.707 129.38L113.706 129.385Z" fill="#F7BB64"/>
<path d="M99.6239 101.148C98.9962 96.865 101.331 89.9074 106.835 87.8568C113.348 85.4352 118.52 88.1201 120.485 90.2514C122.45 92.3827 124.259 95.3106 124.384 98.5171C124.384 98.5171 124.469 103.452 121.755 106.84C120.518 108.383 116.619 112.504 110.471 111.685C103.7 110.782 100.252 105.432 99.6226 101.153L99.6239 101.148Z" fill="white"/>
<path d="M85.7887 74.2718C85.7887 74.2718 91.4229 68.7572 97.9021 72.3567C104.376 75.955 104.726 83.2283 102.007 87.5415C99.2878 91.8548 94.1286 92.5636 94.1286 92.5636L91.2468 90.2593L89.7124 86.5197C89.7124 86.5197 90.2354 81.9597 88.8759 79.2867C87.5164 76.6138 85.7922 74.2779 85.7922 74.2779L85.7887 74.2718Z" fill="white"/>
<path d="M120.174 90.0594C120.174 90.0594 122.938 93.7711 121.451 97.4259C121.142 98.1921 120.82 98.6233 120.357 98.9393C119.755 99.3525 118.778 99.3858 118.778 99.3858C118.778 99.3858 118.508 100.432 117.751 101.326C116.993 102.22 115.762 103.299 115.762 103.299C115.762 103.299 113.212 104.644 110.535 104.9C104.897 105.445 99.5728 100.798 99.5728 100.798C99.5728 100.798 99.7283 105.183 104.362 109.178C106.502 111.025 107.481 111.179 110.766 111.707C114.051 112.235 117.991 110.822 120.669 108.206C124.491 104.473 124.64 98.2752 124.64 98.2752C124.64 98.2752 124.525 95.8063 123.524 94.4408C122.524 93.0753 120.175 90.0546 120.175 90.0546L120.174 90.0594Z" fill="#AC968C"/>
<path d="M101.252 74.9989C101.252 74.9989 105.446 82.4327 102.211 87.203C97.9531 93.4745 92.1598 92.5123 92.1598 92.5123L91.3055 90.4458L90.0466 86.837C90.0466 86.837 95.1391 88.1549 97.7222 84.5611C97.7222 84.5611 98.3344 85.1547 99.1849 84.7045C100.035 84.2543 101.055 82.7105 101.579 80.6769C102.028 78.944 101.252 74.9989 101.252 74.9989Z" fill="#AC968C"/>
<path d="M115.251 103.275C115.251 103.275 121.798 97.6173 117.881 91.5672C113.45 84.7274 105.79 87.3905 103.493 91.0353C101.197 94.6801 101.776 98.6607 102.671 99.8995C102.671 99.8995 105.273 103.961 108.627 104.524C112.01 105.094 115.251 103.275 115.251 103.275Z" fill="#5FAEEF"/>
<path d="M85.7887 74.2718C85.7887 74.2718 89.9814 69.5201 94.6011 72.3315C99.2209 75.143 101.126 79.2563 98.226 84.0334C95.3257 88.8106 89.7088 86.5136 89.7088 86.5136C89.7088 86.5136 90.2332 81.369 88.814 78.7836C87.3948 76.1982 85.7887 74.2718 85.7887 74.2718Z" fill="#5FAEEF"/>
<path d="M117.998 91.7487C117.998 91.7487 120.06 96.1266 119.018 98.5081C117.976 100.89 115.507 103.054 115.507 103.054C115.507 103.054 112.999 104.649 111.113 104.713C109.33 104.779 106.88 104.05 105.968 103.495C105.055 102.94 102.98 100.464 102.98 100.464C102.98 100.464 110.553 101.913 111.771 101.039C112.989 100.164 113.82 99.9622 113.82 99.9622C113.82 99.9622 114.88 99.9666 115.401 99.6819C115.923 99.3972 116.841 98.4629 117.511 96.9654C118.04 95.7821 118.003 91.75 118.003 91.75L117.998 91.7487Z" fill="#3F71A7"/>
<path d="M90.1339 83.884C90.1339 83.884 93.34 83.7802 94.1959 83.1555C95.0517 82.5307 95.6156 83.1114 96.15 83.0683C96.6844 83.0251 97.8854 81.7112 98.1235 80.5327C98.3617 79.3541 98.4139 75.8171 98.4139 75.8171C98.4139 75.8171 101.125 80.2448 97.9149 84.4988C94.7045 88.7528 89.6855 86.6005 89.6855 86.6005L90.1278 83.8875L90.1339 83.884Z" fill="#3F71A7"/>
<path d="M108.616 101.358C111.812 102.214 115.096 100.318 115.952 97.1224C116.809 93.9269 114.912 90.6423 111.717 89.7861C108.521 88.9299 105.237 90.8262 104.381 94.0217C103.524 97.2172 105.421 100.502 108.616 101.358Z" fill="#110331"/>
<path d="M89.8711 84.15C91.7346 84.6908 93.8474 84.1854 95.2922 82.6572C97.3371 80.4927 97.2716 77.1054 95.1405 75.0901C93.0095 73.0749 89.6237 73.1926 87.5752 75.351C87.3788 75.5624 87.2018 75.7789 87.0414 76.0103C87.0414 76.0103 88.1956 77.7689 89.0154 79.79C89.8353 81.811 89.8711 84.15 89.8711 84.15Z" fill="#110331"/>
<path d="M108.218 92.4307C108.418 93.0175 109.482 92.1585 110.891 92.3083C112.211 92.4445 113.024 92.6935 113.055 91.7856C113.086 90.8777 111.948 90.3916 110.501 90.7699C109.053 91.1482 108.047 91.9294 108.218 92.4307Z" fill="#D2D2DC"/>
<path d="M107.615 93.0767C107.341 92.496 106.462 92.5916 105.767 93.7151C105.073 94.8387 105.534 95.3971 105.696 95.4301C105.858 95.4632 106.146 94.9659 106.557 94.5738C106.967 94.1817 107.79 93.4496 107.61 93.0754L107.615 93.0767Z" fill="#D2D2DC"/>
<path d="M90.2722 75.9494C90.3586 76.4384 91.3078 75.8904 92.4103 76.1807C93.4438 76.4576 94.0586 76.7517 94.1992 76.0337C94.3399 75.3156 93.4925 74.7883 92.2945 74.9125C91.0966 75.0367 90.198 75.5309 90.2722 75.9494Z" fill="#D2D2DC"/>
<path d="M89.7038 76.2164C89.5166 75.7366 88.7993 75.767 88.1892 76.6336C87.5791 77.5002 87.9132 77.9728 88.0436 78.0077C88.174 78.0427 88.4315 77.6613 88.7797 77.3664C89.1279 77.0715 89.8271 76.5289 89.7025 76.2212L89.7038 76.2164Z" fill="#D2D2DC"/>
<path d="M127.566 121.664C127.566 121.664 129.935 118.06 130.224 114.255C130.514 110.45 130.262 98.3321 116.21 85.0322C106.755 76.0799 102.119 76.2093 102.119 76.2093" stroke="#110331" stroke-width="1.5" stroke-miterlimit="10" stroke-linecap="round"/>
<path d="M85.5701 74.1408C89.7074 70.2335 96.1912 70.1642 100.328 74.0834C104.464 78.0026 104.766 84.9524 100.659 89.2872C96.8176 93.3463 92.2174 92.2586 92.2174 92.2586" stroke="#110331" stroke-width="1.5" stroke-miterlimit="10" stroke-linecap="round"/>
<path d="M85.8734 74.4964C85.9886 74.3564 86.1085 74.2178 86.2382 74.0817C89.1177 71.0434 93.9776 70.9687 97.0947 73.9211C100.212 76.8734 100.411 81.7306 97.5307 84.7737C95.5661 86.851 92.6788 87.5423 90.0479 86.8322" stroke="#110331" stroke-width="1.5" stroke-miterlimit="10" stroke-linecap="round"/>
<path d="M108.725 111.346C115.374 113.128 122.209 109.182 123.991 102.532C125.773 95.8826 121.827 89.0476 115.177 87.2658C108.527 85.4841 101.692 89.4303 99.9105 96.0799C98.1287 102.73 102.075 109.565 108.725 111.346Z" stroke="#110331" stroke-width="1.5" stroke-miterlimit="10" stroke-linecap="round"/>
<path d="M108.197 104.45C112.803 105.684 117.538 102.95 118.772 98.3438C120.007 93.7374 117.273 89.0025 112.666 87.7682C108.06 86.5339 103.325 89.2675 102.091 93.874C100.856 98.4805 103.59 103.215 108.197 104.45Z" stroke="#110331" stroke-width="1.5" stroke-miterlimit="10" stroke-linecap="round"/>
<path d="M89.9955 85.9847C92.2253 92.152 95.9083 97.7251 97.7472 104.057C98.3872 106.169 98.9032 108.301 99.3119 110.465C99.4418 111.178 98.398 111.442 98.1769 110.741C97.5642 108.661 96.9274 106.575 96.2793 104.512C94.3749 98.2512 90.8975 92.5675 89.5789 86.0905C89.5212 85.8421 89.915 85.725 89.9907 85.9834L89.9955 85.9847Z" fill="#110331"/>
<path d="M126.049 124.969C121.767 129.744 117.004 134.074 111.794 137.833C106.703 141.589 100.64 144.126 96.1795 148.583C91.776 152.963 90.1141 159.609 91.8765 165.589C93.7524 172.459 99.6741 180.863 107.665 179.748C113.697 179.066 120.197 174.725 119.177 167.945C118.065 163.247 116.839 158.55 117.292 153.635C117.655 148.664 120.096 143.883 124.005 140.769C125.203 139.796 126.251 138.684 127.118 137.441C128.858 134.962 129.744 131.907 129.531 128.879C129.335 125.979 128.213 122.728 125.754 121.065C125.476 120.887 125.4 120.515 125.582 120.242C125.758 119.969 126.121 119.89 126.396 120.062C129.335 121.978 130.646 125.451 130.944 128.781C131.401 133.837 128.908 138.853 124.964 141.942C121.339 144.848 119.157 149.165 118.644 153.785C118.146 157.632 118.591 161.649 119.492 165.457C119.646 166.135 119.916 167.139 120.005 167.831C121.272 175.929 112.491 181.134 105.327 180.938C97.78 180.262 92.5269 172.705 90.5958 165.945C88.6497 159.569 90.3964 152.277 95.1378 147.564C99.7437 142.913 105.813 140.449 111.009 136.707C116.179 133.06 121.027 128.935 125.83 124.745C125.899 124.681 126.005 124.689 126.065 124.756C126.121 124.818 126.117 124.91 126.063 124.973L126.049 124.969Z" fill="#110331"/>
<path d="M73.3145 90.4961C73.1294 92.5585 72.7038 94.5719 72.9138 96.647C73.0557 98.6676 73.5377 100.655 74.3704 102.493C76.2151 106.098 79.1004 109.201 82.1225 111.89C85.2268 114.523 88.545 117.053 92.3699 118.523C95.1369 119.575 98.406 120.337 101.321 121.01C101.985 121.161 103.316 121.466 103.983 121.604C104.111 121.628 104.242 121.642 104.327 121.903L104.43 121.925C104.702 122.128 104.969 122.349 105.219 122.577L105.543 122.891C105.649 122.997 105.77 123.087 105.8 123.286C105.8 123.286 106.063 123.326 106.068 123.327L105.741 123.736C105.617 123.89 105.441 123.91 105.291 123.988L104.818 124.188C103.895 124.562 102.902 124.963 101.966 125.287C96.8349 127.07 91.4498 128.37 85.9828 128.412C83.583 128.385 80.2754 128.037 77.8654 127.893C76.5125 127.784 75.1135 127.674 73.7655 127.488C73.2687 127.391 73.3591 126.629 73.8812 126.67C74.1475 126.7 74.6406 126.734 74.9082 126.759C77.5806 126.947 81.3109 127.186 83.9946 127.351C88.6795 127.659 93.3379 126.946 97.8617 125.73C100.457 125.048 102.999 124.156 105.52 123.248L105.457 123.696C105.42 123.505 105.278 123.436 105.156 123.352C104.774 123.094 104.389 122.851 103.977 122.653C103.977 122.653 104.188 122.751 104.174 122.747C98.936 122.068 93.6074 121.091 88.8752 118.622C84.2191 116.023 80.1046 112.524 76.6851 108.44C73.9056 105.174 71.8844 101.03 71.9878 96.6836C72.0103 94.5518 72.2297 92.4002 73.0224 90.4075C73.0528 90.3328 73.1395 90.2991 73.219 90.3308C73.2924 90.3659 73.312 90.4281 73.3083 90.4996L73.3145 90.4961Z" fill="#110331"/>
<path d="M101.105 118.627C102.218 119.883 103.463 121.092 104.95 121.977C105.379 122.268 105.825 122.63 106.101 123.165C106.908 124.696 105.82 126.377 104.567 127.211C104.515 127.249 104.442 127.234 104.404 127.183C104.374 127.138 104.379 127.083 104.405 127.043C105.191 125.675 105.614 124.132 104.144 123.226C102.957 122.499 101.706 121.718 100.843 120.592C100.549 120.223 100.226 119.841 100.462 119.076L100.566 118.747C100.628 118.515 100.947 118.445 101.107 118.623L101.105 118.627Z" fill="#110331"/>
<path d="M72.4623 87.5139C75.7672 90.1129 82.7237 91.5834 86.6596 89.8376C91.2325 87.4343 88.9427 80.0034 86.6297 76.6195C84.0698 72.0513 78.4178 69.2479 74.3163 73.698C71.8412 76.5599 70.9609 80.6567 71.3037 84.3616C71.4273 85.4456 71.7227 86.7774 72.4671 87.5152L72.4623 87.5139ZM71.43 88.6039C70.3367 87.4102 70.1149 85.9584 69.982 84.4837C69.7943 80.4321 70.9106 76.1501 73.7288 73.1472C78.311 68.6033 84.5473 71.0611 87.7627 75.8878C91.5413 81.8385 92.5956 91.6197 83.1353 91.8438C80.4081 91.9568 77.707 91.5281 75.1302 90.6358C73.8476 90.1679 72.5625 89.632 71.4348 88.6052L71.43 88.6039Z" fill="#110331"/>
<path d="M72.9587 101.406C70.0513 100.337 67.3115 98.3138 66.1118 95.3731C65.7715 94.6918 65.8446 93.6657 65.9774 92.9766C66.3492 91.0678 67.0604 89.3794 67.8006 87.6987C68.5637 86.0293 69.4059 84.4122 70.3444 82.8416C70.4206 82.7118 70.5923 82.6699 70.722 82.746C70.842 82.8196 70.8857 82.9659 70.8314 83.0911C70.1411 84.7593 69.4724 86.4436 68.8594 88.1325C68.1761 90.1804 67.2811 92.2648 67.3514 94.3594C68.2302 97.1261 70.8925 99.0714 73.3324 100.533C73.8519 100.796 73.5231 101.598 72.9635 101.407L72.9587 101.406Z" fill="#110331"/>
<path d="M70.3908 99.4754C69.4749 101.078 68.512 102.797 68.0516 104.574C67.9949 104.843 67.9459 105.161 68.0071 105.416C68.7612 106.658 70.0217 107.576 71.1005 108.553C73.2736 110.373 75.5525 112.107 77.8756 113.733C84.9981 118.313 92.6052 122.339 100.77 124.651C101.051 124.762 101.185 125.093 101.044 125.366C100.946 125.557 100.742 125.663 100.541 125.64C100.052 125.592 99.5909 125.458 99.126 125.339C97.7338 124.971 96.351 124.549 94.992 124.076C91.3537 122.837 87.8608 121.171 84.4821 119.35C81.1174 117.496 77.7897 115.522 74.8099 113.062C72.1985 110.908 69.4362 108.853 67.3988 106.102C67.0655 105.588 67.112 104.912 67.2837 104.368C67.5973 103.391 68.0531 102.54 68.5317 101.7C69.0152 100.862 69.5308 100.058 70.0803 99.2627C70.2242 99.0735 70.517 99.2555 70.3983 99.467L70.3908 99.4754Z" fill="#110331"/>
<path d="M86.2495 128.131C83.0308 123.433 79.4132 125.363 75.1639 127.273C73.0635 128.196 71.0384 129.185 68.7093 129.571C67.9713 129.678 67.0408 129.693 66.2833 129.371C63.6887 128.313 61.2044 125.665 61.7765 122.661C62.482 120.086 64.8252 118.721 67.1232 117.871C72.5007 115.943 78.3395 116.658 83.7908 117.834C84.1737 117.931 84.0316 118.52 83.6368 118.409C77.7783 116.994 69.6082 116.151 64.7173 120.302C63.1749 121.653 62.5667 123.633 63.7401 125.397C64.4801 126.615 65.7398 127.652 67.1184 128.109C68.59 128.374 70.1125 127.773 71.5535 127.263C74.7598 126.135 77.7007 124.277 81.1827 123.994C83.6605 123.923 85.8319 125.633 86.9963 127.721C87.2633 128.211 86.5249 128.63 86.2482 128.136L86.2495 128.131Z" fill="#110331"/>
<path d="M71.2566 109.439C66.4453 115.128 58.3259 116.606 51.3694 114.634C47.5574 114.275 43.5407 117.578 43.3135 121.42C43.1923 125.813 47.5696 130.418 51.2464 132.402C54.2964 133.789 57.9661 134.389 61.2068 133.596C63.7853 132.879 66.0813 131.072 67.7383 128.964C67.8751 128.762 68.156 128.718 68.3488 128.868C68.5283 129.01 68.5615 129.272 68.4251 129.453C67.5296 130.631 66.5013 131.629 65.3356 132.502C61.8534 135.317 56.9318 135.313 52.867 134.043C51.4809 133.671 50.1197 132.975 48.9525 132.135C45.6236 129.664 42.0941 125.778 42.1586 121.364C42.3001 118.286 44.4072 115.6 47.0875 114.232C48.4198 113.548 49.9512 113.146 51.5227 113.308C52.2615 113.372 52.9192 113.641 53.6411 113.767C56.9424 114.352 60.5358 114.077 63.6536 112.951C65.5386 112.214 67.3567 111.205 69.0258 110.037C69.5841 109.653 70.155 109.242 70.657 108.818C70.8391 108.659 71.1177 108.682 71.2747 108.869C71.4162 109.037 71.4133 109.279 71.2711 109.443L71.2566 109.439Z" fill="#110331"/>
<path d="M70.5141 128.341C73.1061 131.147 77.4019 130.937 80.9171 130.626C82.9022 130.501 84.8982 130.451 86.8888 130.575C88.8794 130.699 90.8638 130.905 92.8169 131.459C93.144 131.552 93.0371 132.067 92.6864 132.004C88.8294 131.582 84.9001 131.776 81.0386 132.124C77.2881 132.578 72.8615 132.562 70.0472 129.639C69.858 129.418 69.6985 129.24 69.523 128.929C69.1618 128.268 70.1136 127.711 70.5189 128.342L70.5141 128.341Z" fill="#110331"/>
<path d="M81.2733 130.861C84.3286 131.649 87.4041 132.458 90.2263 133.98C91.7267 134.91 93.4292 136.013 94.9762 136.769C96.8111 137.572 99.0509 138.022 101.049 138.505C103.64 138.879 106.454 139.042 108.967 138.261C109.618 137.975 110.075 138.936 109.422 139.248C106.667 140.373 103.658 140.281 100.77 139.932C99.8686 139.742 98.891 139.526 98.0033 139.304C95.5036 138.8 93.1532 137.565 91.0443 136.182C89.0784 134.806 86.7774 133.811 84.497 133.03C83.3422 132.606 82.1565 132.221 80.9887 131.846C80.3796 131.647 80.621 130.707 81.2685 130.86L81.2733 130.861Z" fill="#110331"/>
<path d="M89.2396 127.675C89.5207 126.104 89.6262 124.377 88.7585 123.037C87.1166 120.858 84.3283 120.349 81.5842 120.312C77.0434 120.162 72.4688 121.084 68.3423 122.981C68.0207 123.138 67.7378 122.648 68.0589 122.455C70.0846 121.212 72.2764 120.334 74.5646 119.715C76.8457 119.084 79.2377 118.85 81.5986 118.81C84.4755 118.737 87.7595 119.482 89.5553 121.957C90.4657 123.137 90.582 124.732 90.2821 126.122C90.1628 126.721 89.9689 127.29 89.6964 127.844C89.6386 127.963 89.4911 128.011 89.372 127.953C89.2673 127.899 89.2159 127.782 89.2457 127.671L89.2396 127.675Z" fill="#110331"/>
<path d="M76.9956 113.85C76.5174 114.803 75.8912 115.692 75.0958 116.4L74.3413 117.129C74.2635 117.207 74.135 117.203 74.0575 117.126C73.9716 117.041 73.9885 116.9 74.0807 116.827C74.4919 116.393 75.1252 115.807 75.4942 115.357C75.9093 114.832 76.2614 114.233 76.5517 113.632C76.6938 113.334 77.1508 113.56 76.9991 113.856L76.9956 113.85Z" fill="#110331"/>
<path d="M78.9705 115.269C78.9705 115.269 78.516 115.825 78.2099 116.214C77.9086 116.605 77.3837 117.096 77.3837 117.096" stroke="#110331" stroke-width="0.5" stroke-miterlimit="10" stroke-linecap="round"/>
</g>
</g>
<defs>
<clipPath id="clip0_3_239">
<rect width="250" height="250" fill="white" transform="translate(65.2913 0.818848) rotate(15)"/>
</clipPath>
<clipPath id="clip1_3_239">
<rect width="250" height="250" fill="white" transform="translate(65.2913 0.818848) rotate(15)"/>
</clipPath>
</defs>
</svg>
