<svg width="547" height="647" viewBox="0 0 547 647" fill="none" xmlns="http://www.w3.org/2000/svg">
<mask id="mask0_3_1213" style="mask-type:luminance" maskUnits="userSpaceOnUse" x="0" y="50" width="547" height="547">
<path d="M546.181 50.4292H0.181274V596.429H546.181V50.4292Z" fill="white"/>
</mask>
<g mask="url(#mask0_3_1213)">
<mask id="mask1_3_1213" style="mask-type:luminance" maskUnits="userSpaceOnUse" x="-19" y="6" width="591" height="591">
<path d="M-18.334 6.90286H571.346V596.583H-18.334V6.90286Z" fill="white"/>
</mask>
<g mask="url(#mask1_3_1213)">
<path d="M421.427 422.109C421.427 422.109 412.027 436.326 404.849 443.808C396.865 452.131 384.784 454.497 384.784 454.497C384.784 454.497 374.682 457.929 375.383 463.543C376.085 469.156 385.066 468.344 385.066 468.344C385.066 468.344 399.818 466.194 412.959 452.808C425.21 440.33 421.427 422.109 421.427 422.109Z" fill="#505050"/>
<path d="M421.427 422.109C421.427 422.109 412.027 436.326 404.849 443.808C396.865 452.131 384.784 454.497 384.784 454.497C384.784 454.497 374.682 457.929 375.383 463.543C376.085 469.156 385.066 468.344 385.066 468.344C385.066 468.344 399.818 466.194 412.959 452.808C425.21 440.33 421.427 422.109 421.427 422.109Z" stroke="#120432" stroke-width="3.45516"/>
<path d="M219.363 272.247L186.075 272.731C186.075 272.731 184.295 265.401 176.082 265.621C167.871 265.842 164.948 275.472 165.381 282.028C165.815 288.585 167.12 291.9 168.633 292.741C170.832 293.964 179.005 293.501 190.147 293.11C204.195 292.616 220.228 291.299 220.228 291.299L219.363 272.247Z" fill="#505050"/>
<path d="M212.313 286.794C207.84 285.317 177.099 291.126 171.357 285.319C165.615 279.512 174.613 265.768 171.535 266.924C168.457 268.081 166.127 273.31 165.4 279.168C164.673 285.027 166.601 291.275 168.633 292.741C170.666 294.208 182.412 293.388 189.113 293.146C195.813 292.904 217.06 291.547 217.06 291.547C217.06 291.547 216.787 288.271 212.313 286.794Z" fill="#342E2E"/>
<path d="M216.064 291.29C216.064 291.29 172.223 295.139 168.633 292.74C165.044 290.343 161.753 269.202 174.073 265.984C186.392 262.766 187.589 279.09 187.589 279.09" stroke="#110331" stroke-width="3.45516" stroke-miterlimit="10" stroke-linecap="round"/>
<path d="M186.075 272.73L215.104 272.304" stroke="#110331" stroke-width="3.45516" stroke-miterlimit="10" stroke-linecap="round"/>
<path d="M289.324 445.949L265.528 469.231C265.528 469.231 259.188 465.144 253.386 470.961C247.587 476.778 252.101 485.772 256.932 490.226C261.763 494.68 264.993 496.184 266.669 495.752C269.106 495.123 274.711 489.158 282.518 481.198C292.361 471.163 303.076 459.163 303.076 459.163L289.324 445.949Z" fill="#505050"/>
<path d="M294.235 461.35C289.975 463.362 271.693 488.749 263.531 488.495C255.368 488.241 252.423 472.08 250.988 475.038C249.554 477.997 251.468 483.392 254.977 488.14C258.486 492.887 264.186 496.089 266.669 495.752C269.154 495.414 277.103 486.728 281.793 481.937C286.484 477.145 300.949 461.526 300.949 461.526C300.949 461.526 298.496 459.339 294.235 461.35Z" fill="#342E2E"/>
<path d="M300.051 462.025C300.051 462.025 270.923 495.016 266.669 495.75C262.416 496.485 245.466 483.428 252.18 472.609C258.893 461.789 271.006 472.798 271.006 472.798" stroke="#110331" stroke-width="3.45516" stroke-miterlimit="10" stroke-linecap="round"/>
<path d="M265.527 469.23L286.276 448.924" stroke="#110331" stroke-width="3.45516" stroke-miterlimit="10" stroke-linecap="round"/>
<path d="M340.619 357.986C340.619 357.986 384.012 383.707 388.613 389.275C393.214 394.841 399.356 438.606 398.205 441.293C397.053 443.981 382.849 448.396 382.849 448.396L340.619 357.986Z" fill="#CE2C2C"/>
<path d="M356.702 367.712L390.472 445.702L382.848 448.396L340.619 357.986L356.702 367.712Z" fill="#A52323"/>
<path d="M340.619 357.986C340.619 357.986 384.012 383.707 388.613 389.275C393.214 394.841 399.356 438.606 398.205 441.293C397.053 443.981 382.849 448.396 382.849 448.396L340.619 357.986Z" stroke="#110331" stroke-width="3.45516" stroke-miterlimit="10" stroke-linecap="round"/>
<path d="M334.093 514.081C322.852 517.874 307.329 516.445 295.703 510.781C273.244 499.84 278.811 465.864 278.811 465.864C278.811 465.864 215.274 336.487 197.807 296.369C180.339 256.251 187.813 234.391 189.091 224.962C190.368 215.533 189.091 211.589 189.091 211.589C189.091 211.589 179.226 175.658 183.79 169.491C188.355 163.322 209.324 156.243 235.621 170.437C261.918 184.629 281.518 228.494 281.518 228.494C281.518 228.494 367.252 410.773 368.451 412.5C369.651 414.228 388.208 427.686 388.606 451.467C388.846 465.714 381.846 496.126 352.122 501.78C351.81 501.84 351.493 501.898 351.175 501.952C351.175 501.952 344.563 510.546 334.093 514.081Z" fill="#505050"/>
<path d="M289.036 506.193C289.036 506.193 293.782 509.283 300.692 506.193C307.602 503.102 304.915 497.152 304.723 494.657C304.531 492.161 300.851 488.216 299.733 484.786C298.614 481.355 300.129 471.581 300.129 471.581C300.129 471.581 305.026 486.148 310.349 490.186C315.673 494.223 338.891 515.275 338.891 515.275C338.891 515.275 318.207 517.459 309.77 515.275C301.332 513.09 289.036 506.193 289.036 506.193Z" fill="#342E2E"/>
<path d="M189.641 218.44C189.641 218.44 190.575 215.828 196.078 215.316C201.581 214.804 210.078 214.834 216.581 228.975C223.075 243.1 309.837 441.117 309.837 441.117C309.837 441.117 302.131 447.792 292.126 453.013C282.121 458.234 273.77 455.608 273.77 455.608L265.91 439.492L195.528 290.89C195.528 290.89 183.895 261.271 186.603 242.225C189.309 223.18 189.641 218.44 189.641 218.44Z" fill="#F7BB64"/>
<path d="M300.659 512.857C300.659 512.857 305.685 507.376 312.977 505.214C323.982 501.951 330.659 502.803 330.659 502.803C330.659 502.803 338.002 503.835 342.665 503.377C347.33 502.917 350.551 502.703 350.551 502.703C350.551 502.703 339.385 515.189 325.605 515.896C311.826 516.603 300.659 512.857 300.659 512.857Z" fill="#A76D38"/>
<path d="M365.701 471.581C366.292 470.154 366.758 468.747 367.12 467.36C363.043 468.078 358.371 469.38 353.16 471.581C332.301 480.388 323.983 498.688 323.983 498.688C323.983 498.688 331.284 504.415 344.851 503.206C339.674 503.081 336.268 501.951 336.268 501.951C336.268 501.951 356.487 493.825 365.701 471.581Z" fill="#F7BB64"/>
<path d="M386.229 468.338C386.229 468.338 386.13 469.121 385.812 470.448C397.068 437.51 368.452 412.501 368.452 412.501L281.519 228.495C281.519 228.495 278.809 212.73 266.525 209.851C254.24 206.971 253.73 201.872 249.825 193.667C245.92 185.462 231.781 165.967 231.781 165.967C231.781 165.967 194.831 158.046 183.789 171.6C172.748 185.152 189.654 216.903 189.654 216.903C189.654 216.903 199.927 214.388 208.591 209.631C217.257 204.872 229.981 204.32 229.981 204.32C229.981 204.32 228.437 228.419 241.786 234.816C255.136 241.215 264.005 240.192 264.005 240.192C264.005 240.192 349.577 427.346 352.136 429.489C354.532 431.495 372.389 447.131 367.119 467.36C379.358 465.207 386.229 468.338 386.229 468.338Z" fill="#342E2E"/>
<path d="M382.705 479.923C384.346 476.931 385.644 473.661 386.256 470.662C386.575 469.336 386.88 468.406 386.88 468.406C386.88 468.406 379.358 465.206 367.12 467.359C366.758 468.746 366.292 470.154 365.701 471.581C356.487 493.824 336.269 501.95 336.269 501.95C336.269 501.95 339.674 503.079 344.851 503.205C349.304 502.808 354.43 501.666 360.198 499.326C365.301 497.256 369.647 495.031 372.964 492.16C376.183 488.933 379.869 485.093 382.705 479.923Z" fill="#A76D38"/>
<path d="M299.733 470.278C299.733 470.278 309.795 508.977 351.177 501.951M351.177 501.951C381.697 496.768 388.848 465.864 388.607 451.467C388.208 427.686 369.651 414.228 368.452 412.5C367.252 410.773 281.519 228.492 281.519 228.492C281.519 228.492 261.918 184.629 235.62 170.437C209.323 156.243 188.353 163.322 183.789 169.491C179.226 175.658 189.091 211.589 189.091 211.589C189.091 211.589 190.368 215.533 189.091 224.962C187.814 234.391 180.338 256.251 197.806 296.369C215.274 336.487 278.809 465.864 278.809 465.864C278.809 465.864 273.243 499.84 295.702 510.781C307.329 516.445 322.852 517.874 334.092 514.081C344.563 510.546 351.177 501.951 351.177 501.951Z" stroke="#110331" stroke-width="3.45516" stroke-miterlimit="10" stroke-linecap="round"/>
<path d="M307.176 485.995C307.176 485.995 311.229 499.732 313.552 503.295C315.876 506.857 318.03 510.899 318.03 510.899L321.689 506.102C321.689 506.102 325.574 517.196 328.711 521.979C331.847 526.761 337.977 530.605 337.977 530.605L339.91 521.213C339.91 521.213 350.042 534.184 360.46 542.303C367.525 549.867 374.133 555.628 374.133 555.628C374.133 555.628 373.587 549.764 374.038 545.134C374.206 541.371 371.794 533.664 371.794 533.664C371.794 533.664 375.736 535.154 379.372 536.258C383.008 537.361 384.715 540 384.715 540C384.715 540 384.614 533.402 382.947 527.713C381.211 521.619 377.323 512.291 377.323 512.291C377.323 512.291 381.289 515.368 383.146 516.262C385.002 517.156 387.092 519.908 387.092 519.908C387.092 519.908 386.525 505.225 384.017 500.298C381.712 495.875 375.864 488.231 375.864 488.231C375.864 488.231 363.401 503.039 346.89 503.039C315.789 503.039 307.176 485.995 307.176 485.995Z" fill="#FF7C24"/>
<path d="M348.203 503.048C357.209 501.166 365.011 497.165 365.011 497.165C365.011 497.165 368.124 499.719 369.859 506.373C371.593 513.028 368.97 517.568 368.97 517.568C368.97 517.568 366.465 512.561 366.088 512.575C365.712 512.588 365.591 515.382 365.766 520.126C365.992 523.94 363.22 528.207 363.22 528.207C363.22 528.207 360.496 524.114 355.509 519.799C350.521 515.483 345.944 512.951 345.944 512.951L346.232 517.169C346.232 517.169 341.811 516.666 337.589 511.548C333.366 506.428 331.129 502.014 331.129 502.014C331.129 502.014 332.946 506.236 348.203 503.048Z" fill="#FFBC27"/>
<path d="M299.733 470.278C299.733 470.278 309.795 508.977 351.177 501.951C381.697 496.768 388.848 465.864 388.607 451.467C388.208 427.686 369.651 414.228 368.452 412.5" stroke="#110331" stroke-width="3.45516" stroke-miterlimit="10" stroke-linecap="round"/>
<path d="M305.235 482.903C305.235 482.903 307.187 491.616 310.257 496.799C313.329 501.982 318.596 511.307 318.596 511.307L321.437 505.537C321.437 505.537 325.796 517.381 328.484 521.412C331.171 525.443 338.041 531.39 338.041 531.39C338.041 531.39 339.659 525.928 339.659 523.241L342.954 524.444C342.954 524.444 350.384 534.334 356.971 539.293C364.74 545.248 374.822 555.472 374.822 555.472C374.822 555.472 375.809 544.019 374.631 540.587C373.455 537.153 371.387 533.663 371.387 533.663C371.387 533.663 375.506 535.419 379.154 536.38C382.8 537.339 384.997 540.501 384.997 540.501C384.997 540.501 385.15 530.63 382.143 523.296C379.135 515.96 376.884 512.196 376.884 512.196C376.884 512.196 379.639 513.495 382.057 515.186C384.984 517.268 386.685 519.845 386.685 519.845C386.685 519.845 385.315 503.607 383.032 497.851C380.825 492.285 375.675 488.985 375.675 488.985" stroke="#110331" stroke-width="3.45516" stroke-linecap="round" stroke-linejoin="round"/>
<path d="M230.624 253.96L206.827 277.242C206.827 277.242 200.487 273.155 194.686 278.972C188.886 284.789 193.401 293.783 198.231 298.237C203.062 302.691 206.292 304.195 207.968 303.762C210.405 303.134 216.01 297.169 223.817 289.209C233.661 279.174 244.375 267.174 244.375 267.174L230.624 253.96Z" fill="#505050"/>
<path d="M235.534 269.361C231.274 271.372 212.992 296.759 204.83 296.506C196.667 296.252 193.722 280.091 192.287 283.049C190.853 286.008 192.766 291.403 196.275 296.151C199.784 300.898 205.485 304.099 207.968 303.762C210.453 303.425 218.403 294.74 223.093 289.948C227.783 285.157 242.249 269.536 242.249 269.536C242.249 269.536 239.795 267.349 235.534 269.361Z" fill="#342E2E"/>
<path d="M241.35 270.036C241.35 270.036 212.223 303.027 207.968 303.761C203.715 304.496 186.766 291.439 193.48 280.619C200.193 269.8 212.305 280.808 212.305 280.808" stroke="#110331" stroke-width="3.45516" stroke-miterlimit="10" stroke-linecap="round"/>
<path d="M206.826 277.241L227.575 256.934" stroke="#110331" stroke-width="3.45516" stroke-miterlimit="10" stroke-linecap="round"/>
<path d="M314.471 430.522L281.183 431.006C281.183 431.006 279.402 423.676 271.19 423.896C262.978 424.117 260.055 433.747 260.489 440.303C260.922 446.859 262.228 450.175 263.741 451.016C265.94 452.239 274.112 451.776 285.254 451.385C299.303 450.891 315.336 449.574 315.336 449.574L314.471 430.522Z" fill="#505050"/>
<path d="M307.421 445.069C302.947 443.592 272.207 449.4 266.464 443.594C260.722 437.787 269.721 424.043 266.643 425.199C263.565 426.356 261.236 431.585 260.509 437.444C259.782 443.302 261.708 449.55 263.741 451.016C265.774 452.483 277.52 451.663 284.221 451.421C290.921 451.179 312.167 449.822 312.167 449.822C312.167 449.822 311.895 446.546 307.421 445.069Z" fill="#342E2E"/>
<path d="M311.172 449.564C311.172 449.564 267.331 453.414 263.741 451.015C260.152 448.618 256.861 427.477 269.181 424.259C281.5 421.041 282.697 437.365 282.697 437.365" stroke="#110331" stroke-width="3.45516" stroke-miterlimit="10" stroke-linecap="round"/>
<path d="M281.183 431.005L310.212 430.578" stroke="#110331" stroke-width="3.45516" stroke-miterlimit="10" stroke-linecap="round"/>
<path d="M174.946 223.402C174.946 223.402 180.084 222.817 183.975 218.846C185.926 216.853 190.273 209.681 190.273 209.681C190.273 209.681 199.306 202.762 201.749 201.197C204.192 199.633 205.378 199.319 215.609 193.937C225.838 188.555 230.665 174.379 230.665 174.379C230.665 174.379 226.419 192.658 231.376 210.727C236.756 230.333 266.022 236.527 281.518 228.494C293.929 222.06 295.216 203.812 290.991 197.155C287.026 190.906 282.457 189.453 275.7 186.716C269.326 184.135 255.551 176.419 251.64 165.822C247.954 155.829 251.505 145.062 240.562 137.463C228.691 129.22 223.067 131.21 223.067 131.21C223.067 131.21 218.518 122.977 212.477 117.904C206.435 112.833 193.764 110.393 187.626 108.703C184.967 107.971 166.511 108.056 151.979 111.963C139.124 115.42 129.853 122.717 129.853 122.717C129.853 122.717 125.213 122.761 121.229 124.303C117.415 125.78 114.281 128.696 112.941 131.329C108.375 140.302 110.411 144.856 110.411 144.856L100.824 148.942C100.824 148.942 100.321 149.464 98.3467 152.508C91.4283 163.173 108.417 177.204 108.417 177.204C108.417 177.204 117.533 192.08 121.048 193.849C124.562 195.617 131.811 193.388 131.811 193.388C131.811 193.388 135.281 203.224 138.327 203.514C141.375 203.805 147.206 202.18 147.206 202.18C147.206 202.18 148.107 208.17 147.04 214.827C146.514 218.113 144.719 221.605 143.65 224.534C140.463 233.264 132.633 232.697 131.307 244.985C130.153 255.689 144.862 266.146 163.095 255.094C181.328 244.042 174.064 225.249 174.064 225.249L174.946 223.402Z" fill="#505050"/>
<path d="M161.226 201.63L161.564 203.201L162.118 205.114L163.229 203.492C163.229 203.492 163.2 201.724 162.797 200.674C162.433 199.725 161.771 197.895 161.646 197.551L160.098 198.142L160.891 200.875L161.226 201.63Z" fill="#F7BB64"/>
<path d="M164.336 196.525L165.355 200.741L162.024 205.337L161.565 203.202L160.89 200.875L159.738 198.282L160.1 198.143L160.071 198.044L154.487 200.032C154.487 200.032 167.586 231.137 158.838 241.653C147.101 255.763 131.471 243.743 131.471 243.743C131.471 243.743 129.004 259.112 146.798 259.78C164.594 260.448 175.126 244.167 175.415 236.049C175.703 227.929 164.336 196.525 164.336 196.525Z" fill="#342E2E"/>
<path d="M161.623 197.489C161.623 197.489 161.632 197.515 161.645 197.55L164.334 196.525L161.623 197.489Z" fill="#666666"/>
<path d="M163.23 203.492L162.118 205.113L161.564 203.201L162.024 205.336L165.356 200.741L164.336 196.525L161.646 197.551C161.771 197.895 162.433 199.725 162.797 200.674C163.2 201.724 163.23 203.492 163.23 203.492Z" fill="#A76D38"/>
<path d="M160.891 200.874L160.098 198.142L159.737 198.281L160.891 200.874Z" fill="#666666"/>
<path d="M192.593 181.02C194.804 179.157 200.926 174.58 200.926 174.58C200.926 174.58 199.273 180.917 197.643 184.718C196.015 188.52 193.454 193.962 193.427 193.83C193.398 193.699 190.807 190.038 187.4 188.839C185.37 188.125 181.245 189.519 181.245 189.519L181.535 188.13C181.535 188.13 190.382 182.882 192.593 181.02Z" fill="#6D2D32"/>
<path d="M164.334 196.524L165.355 200.739C165.355 200.739 167.168 198.574 167.69 198.019C168.214 197.464 170.913 194.165 170.913 194.165L164.334 196.524Z" fill="#6D2D32"/>
<path d="M190.636 197.856C190.636 197.856 183.479 198.064 180.792 201.911C178.104 205.759 177.034 215.316 177.034 215.316C177.034 215.316 183.992 206.803 185.535 204.815C187.092 202.81 190.636 197.856 190.636 197.856Z" fill="#A34F55"/>
<path d="M193.399 193.698C193.399 193.698 188.677 185.647 180.37 189.417L171.362 194.05C171.362 194.05 154.858 210.241 156.207 221.324C157.555 232.407 163.321 230.861 166.125 230.658C168.929 230.454 175.841 225.681 176.049 218.361C176.256 211.042 178.396 204.716 181.154 201.46C184.099 197.985 190.296 198.369 190.296 198.369L193.399 193.698Z" fill="#F38992"/>
<path d="M131.737 193.045C131.737 193.045 134.991 202.618 138.327 203.515C140.967 204.225 158.905 199.082 177.32 190.421C185.434 186.606 201.253 174.327 201.253 174.327L203.939 165.313L199.31 166.31C199.31 166.31 187.33 182.862 169.652 187.597C151.974 192.331 141.001 192.945 136.519 191.056L134.663 192.226L131.737 193.045Z" fill="white"/>
<path d="M115.636 179.321C115.636 179.321 109.068 177.649 103.761 172.697C98.5804 167.866 93.7985 158.462 99.3337 151.02C108.933 138.112 133.433 147.918 135.245 155.959C137.058 164 125.751 177.9 115.636 179.321Z" fill="#3D3837"/>
<path d="M164.374 219.796C164.374 219.796 163.794 219.508 163.761 218.175C163.696 215.597 164.394 210.546 166.306 206.195C169.206 199.595 168.415 201.364 168.415 201.364C168.415 201.364 167.791 200.609 166.86 200.739C165.928 200.87 164.429 201.9 164.429 201.9C164.429 201.9 169.912 195.179 171.362 194.049C172.812 192.92 179.397 189.918 179.397 189.918L184.363 188.656L189.894 190.074L193.572 193.59L190.823 198.382C190.823 198.382 186.313 197.542 181.846 200.885C177.38 204.227 177.497 212.187 177.497 212.187C177.497 212.187 175.528 225.799 172.052 227.969C168.577 230.139 163.08 232.656 159.757 229.686C158.64 228.687 158.11 225.751 158.11 225.751C158.11 225.751 163.238 228.563 165.964 227.576C171.302 225.644 172.273 221.74 173.056 217.131C173.84 212.521 174.863 204.912 176.009 203.137C176.556 202.288 174.943 201.928 173.362 201.896C170.863 201.846 169.964 202.948 169.964 202.948L166.755 209.323L164.374 219.796Z" fill="#A34F55"/>
<path d="M123.458 145.822C123.458 145.822 127.114 154.562 118.776 163.231C112.109 170.162 102.204 171.088 102.204 171.088C102.204 171.088 110.64 181.219 117.37 179.3C124.1 177.38 129.762 170.689 131.689 167.432C133.616 164.175 135.971 160.405 135.304 156.247C134.357 150.34 123.458 145.822 123.458 145.822Z" fill="#2B2021"/>
<path d="M101.867 156.849C100.567 156.106 101.598 153.852 104.169 151.526C106.739 149.201 112.472 146.931 113.997 150.767C115.522 154.603 110.177 152.207 107.505 153.856C104.834 155.506 103.168 157.591 101.867 156.849Z" fill="#666666"/>
<path d="M117.996 178.979C117.45 179.144 116.893 179.299 116.315 179.428C116.718 179.366 117.296 179.216 117.996 178.979Z" fill="#EEBB72"/>
<path d="M120.431 193.508C120.569 193.565 120.711 193.616 120.852 193.667C117.987 191.586 113.752 185.545 111.219 181.705C113.702 186.3 117.388 192.24 120.431 193.508Z" fill="#EEBB72"/>
<path d="M108.402 176.088C108.402 176.088 108.831 177.034 109.552 178.487C110.167 178.643 111.31 178.919 112.53 179.14C110.005 178.199 108.402 176.088 108.402 176.088Z" fill="#EEBB72"/>
<path d="M193.601 206.567C196.597 204.404 202.252 200.48 205.384 199.317C209.779 197.685 217.308 193.289 220.246 190.16C220.606 189.775 221.036 189.266 221.509 188.669C216.709 194.578 206.27 198.772 203.329 200.069C201.381 200.928 196.604 204.354 193.601 206.567Z" fill="#EEBB72"/>
<path d="M112.53 179.139C113.635 179.55 114.914 179.739 116.315 179.428C115.398 179.571 113.914 179.39 112.53 179.139Z" fill="#666666"/>
<path d="M109.081 178.365C109.081 178.365 109.929 179.752 111.218 181.707C110.57 180.506 110.004 179.398 109.553 178.489C109.256 178.413 109.081 178.365 109.081 178.365Z" fill="#666666"/>
<path d="M132.986 166.065C133.044 165.937 133.312 165.245 129.475 170.638C126.131 175.343 120.966 177.972 117.997 178.98C126.391 176.44 130.985 169.818 132.986 166.065Z" fill="#666666"/>
<path d="M199.81 166.203C199.102 166.623 198.635 167.011 198.635 167.011L189.994 175.986C189.994 175.986 181.025 184.271 165.021 189.174C149.017 194.078 136.519 191.056 136.519 191.056C136.519 191.056 127.355 196.004 120.851 193.667C121.143 193.877 121.419 194.048 121.678 194.171C125.793 196.126 131.54 193.109 131.54 193.109L133.565 197.215C133.565 197.215 134.827 196.969 135.835 196.235C136.88 195.476 137.573 194.27 137.573 194.27C137.573 194.27 136.835 195.689 146.398 196.455C156.52 197.266 170.015 190.544 176.334 187.998C182.654 185.453 191.432 178.712 194.743 175.394C196.556 173.576 198.391 170.46 199.872 169.694C200.623 169.306 199.22 173.153 199.309 174.599C199.365 175.511 201.017 174.231 201.017 174.231C201.017 174.231 201.17 174.005 201.421 173.666C202.949 168.883 203.939 165.313 203.939 165.313L199.81 166.203Z" fill="#AC968C"/>
<path d="M199.811 166.203L203.939 165.313C202.523 164.846 200.888 165.562 199.811 166.203Z" fill="#666666"/>
<path d="M136.52 191.056C136.52 191.056 149.017 194.078 165.021 189.175C181.025 184.271 189.994 175.986 189.994 175.986L198.634 167.011L194.555 168.694C194.555 168.694 183.896 174.298 175.125 177.112C166.352 179.926 156.222 178.415 148.078 174.912C139.934 171.409 132.977 166.081 132.977 166.081C132.977 166.081 132.981 166.075 132.986 166.066C130.985 169.819 126.391 176.44 117.997 178.979C117.297 179.217 116.718 179.365 116.313 179.428C114.913 179.739 113.636 179.55 112.531 179.139C111.312 178.918 110.168 178.644 109.553 178.487C110.004 179.397 110.57 180.505 111.218 181.706C113.751 185.546 117.986 191.586 120.851 193.666C127.355 196.004 136.52 191.056 136.52 191.056Z" fill="#A76D38"/>
<path d="M205.263 170.576C206.734 171.024 206.742 175.46 207.509 172.643C208.275 169.825 206.285 166.085 203.94 165.313C203.94 165.313 202.949 168.883 201.422 173.666C202.245 172.558 204.137 170.233 205.263 170.576Z" fill="#A76D38"/>
<path d="M221.51 188.668L221.513 188.665C226.312 182.754 230.971 175.26 230.971 175.26L230.384 165.164L230.635 175.626C230.635 175.626 224.902 184.401 221.51 188.668Z" fill="#666666"/>
<path d="M191.596 208.059C192.057 207.712 192.759 207.187 193.6 206.566C192.39 207.44 191.612 208.028 191.612 208.028C191.612 208.028 191.605 208.04 191.596 208.059Z" fill="#666666"/>
<path d="M281.378 188.93L272.954 185.481C272.954 185.481 256.11 175.618 252.84 167.039C249.571 158.46 249.846 146.231 240.562 137.463C231.278 128.695 223.069 131.21 223.069 131.21C223.069 131.21 221.496 124.759 214.038 119.033C207.175 113.765 192.638 109.718 183.408 108.551C158.433 105.397 130.875 120.461 130.378 121.993C130.055 122.988 133.287 126.283 140.055 125.09C152.694 122.86 175.131 115.19 191.923 119.574C205.84 123.209 216.389 147.643 216.561 148.054C217.361 149.951 218.97 157.177 220.409 159.432C222.379 158.263 223.567 156.975 223.999 156.455L228.935 151.412L226.49 140.275C226.49 140.275 230.63 140.141 235.187 143.705C239.744 147.271 242.442 163.768 243.558 169.307C244.907 176.012 250.785 180.948 250.485 181.537C250.186 182.126 246.944 180.744 245.111 180.156C243.28 179.566 241.197 177.803 240.789 177.89C240.291 177.998 242.713 185.047 254.828 195.987C263.337 203.671 276.721 201.797 276.584 212.152C276.447 222.507 271.895 230.928 271.895 230.928C282.121 230.969 287.998 225.985 292.399 212.478C297.69 196.238 281.378 188.93 281.378 188.93Z" fill="#342E2E"/>
<path d="M223.226 170.63C221.172 177.136 209.517 192.954 207.146 192.495C204.774 192.037 208.894 188.3 208.315 187.813C207.737 187.325 200.253 195.238 200.253 195.238L191 208.509C191 208.509 191.219 208.343 191.596 208.06C191.606 208.04 191.613 208.027 191.613 208.027C191.613 208.027 192.391 207.44 193.602 206.567C196.604 204.352 201.381 200.928 203.329 200.069C206.27 198.772 216.71 194.578 221.51 188.669C224.902 184.402 230.638 175.626 230.638 175.626L230.384 165.163L228.79 150.736C228.357 151.258 222.378 158.263 220.408 159.433C222.36 162.491 224.409 166.886 223.226 170.63Z" fill="#A76D38"/>
<path d="M220.409 159.432C219.001 160.268 217.201 161.04 214.984 161.416C212.823 161.783 210.587 161.514 208.591 161.01C204.852 160.063 205.006 157.014 200.13 157.663C195.253 158.312 195.521 160.734 192.457 163.37C186.871 168.173 177.173 174.908 166.921 174.65C150.252 174.229 134.228 163.37 134.228 163.37C134.228 163.37 133.845 164.453 132.986 166.065C132.981 166.074 132.978 166.081 132.978 166.081C132.978 166.081 139.934 171.407 148.079 174.911C156.223 178.413 166.353 179.924 175.125 177.111C183.897 174.297 194.555 168.694 194.555 168.694L198.635 167.011L199.311 166.31L199.81 166.203C200.886 165.561 202.524 164.846 203.94 165.313C206.286 166.085 208.276 169.825 207.509 172.642C206.743 175.46 206.733 171.024 205.263 170.576C204.137 170.233 202.246 172.558 201.421 173.666C199.086 180.977 195.492 191.125 192.246 195.705C189.275 199.899 184.928 205.968 181.58 209.984C178.878 213.225 176.805 214.907 176.805 214.907L174.946 223.402C174.946 223.402 179.911 223.333 184.36 218.452C188.625 213.773 191 208.509 191 208.509L200.252 195.236C200.252 195.236 207.736 187.324 208.314 187.811C208.893 188.3 204.772 192.037 207.144 192.495C209.516 192.953 221.172 177.135 223.226 170.629C224.409 166.885 222.361 162.491 220.409 159.432Z" fill="#F7BB64"/>
<path d="M164.276 151.636C157.295 148.22 149.348 137.698 151.902 127.458C154.921 115.349 164.154 110.41 169.306 109.661C174.458 108.912 180.628 109.203 185.505 112.274C185.505 112.274 192.904 117.151 195.168 124.615C196.2 128.015 198.347 137.975 190.894 146.253C182.685 155.371 171.256 155.052 164.276 151.636Z" fill="white"/>
<path d="M110.412 144.856C110.412 144.856 107.96 130.907 119.867 124.968C131.774 119.027 142.9 125.89 146.531 134.297C150.162 142.703 145.973 151.066 145.973 151.066L139.633 152.994L132.53 151.471C132.53 151.471 126.305 146.068 120.968 145.372C115.63 144.674 110.412 144.856 110.412 144.856Z" fill="white"/>
<path d="M168.697 109.933C168.697 109.933 177.002 109.607 180.912 115.519C181.729 116.754 182.047 117.664 182.047 118.674C182.048 119.99 181.11 121.469 181.11 121.469C181.11 121.469 182.383 122.926 182.945 124.959C183.507 126.991 183.85 129.901 183.85 129.901C183.85 129.901 183.255 135.044 180.918 139.276C176.001 148.18 163.715 151.356 163.715 151.356C163.715 151.356 170.369 155.582 180.994 152.771C185.901 151.475 187.122 150.179 191.236 145.852C195.351 141.525 197.257 134.247 196.099 127.621C194.447 118.175 185.413 111.66 185.413 111.66C185.413 111.66 181.641 109.322 178.596 109.422C175.55 109.522 168.697 109.933 168.697 109.933Z" fill="#AC968C"/>
<path d="M127.178 122.683C127.178 122.683 142.451 124.013 146.23 133.646C151.205 146.321 143.897 153.929 143.897 153.929L139.967 153.095L133.344 151.296C133.344 151.296 140.466 145.088 137.767 137.613C137.767 137.613 139.264 137.306 139.463 135.595C139.662 133.882 138.405 130.802 135.924 127.962C133.807 125.537 127.178 122.683 127.178 122.683Z" fill="#AC968C"/>
<path d="M183.282 130.637C183.282 130.637 181.545 115.192 168.601 114.856C153.968 114.476 150.143 128.529 153.211 135.632C156.279 142.734 162.765 145.914 165.511 145.849C165.511 145.849 174.169 146.115 178.411 141.718C182.688 137.284 183.282 130.637 183.282 130.637Z" fill="#5FAEEF"/>
<path d="M110.411 144.856C110.411 144.856 107.631 133.822 116.48 129.83C125.33 125.84 133.362 127.188 137.503 136.338C141.643 145.487 132.53 151.472 132.53 151.472C132.53 151.472 125.44 145.471 120.165 144.951C114.89 144.431 110.411 144.856 110.411 144.856Z" fill="#5FAEEF"/>
<path d="M168.993 114.87C168.993 114.87 177.572 116.261 180.046 120.22C182.52 124.181 183.215 130.038 183.215 130.038C183.215 130.038 183.03 135.37 181.214 138.238C179.498 140.948 175.936 143.841 174.184 144.625C172.432 145.411 166.664 145.973 166.664 145.973C166.664 145.973 176.497 136.222 176.439 133.534C176.38 130.847 176.923 129.404 176.923 129.404C176.923 129.404 178.005 127.834 178.108 126.775C178.211 125.716 177.765 123.403 176.224 120.887C175.006 118.899 168.993 114.87 168.993 114.87Z" fill="#3F71A7"/>
<path d="M129.066 148.173C129.066 148.173 132.168 143.317 132.113 141.411C132.056 139.505 133.491 139.263 133.966 138.431C134.43 137.617 133.717 134.478 132.212 132.93C130.705 131.382 125.521 127.71 125.521 127.71C125.521 127.71 134.833 128.183 137.879 137.256C140.925 146.328 132.64 151.583 132.64 151.583L129.066 148.173Z" fill="#3F71A7"/>
<path d="M177.236 128.086C178.488 133.896 174.793 139.621 168.983 140.874C163.172 142.126 157.446 138.431 156.194 132.621C154.942 126.811 158.637 121.085 164.447 119.833C170.259 118.58 175.984 122.275 177.236 128.086Z" fill="#110331"/>
<path d="M129.189 148.83C131.884 146.614 133.274 142.972 132.479 139.285C131.353 134.057 126.263 130.721 121.112 131.831C115.96 132.941 112.697 138.078 113.825 143.306C113.933 143.81 114.078 144.297 114.258 144.765C114.258 144.765 118.034 144.842 121.861 145.675C125.688 146.508 129.189 148.83 129.189 148.83Z" fill="#110331"/>
<path d="M160.081 130.05C161.154 130.349 160.959 127.908 162.608 125.969C164.152 124.15 165.347 123.2 164.035 122.229C162.722 121.258 160.845 122.457 159.942 124.983C159.039 127.51 159.171 129.797 160.081 130.05Z" fill="#D2D2DC"/>
<path d="M160.43 131.602C159.293 131.417 158.538 132.823 159.501 134.984C160.463 137.147 161.753 137.042 161.969 136.828C162.184 136.614 161.742 135.687 161.576 134.685C161.409 133.682 161.163 131.72 160.43 131.602Z" fill="#D2D2DC"/>
<path d="M117.447 139.91C118.262 140.281 118.411 138.315 119.963 136.978C121.418 135.725 122.484 135.118 121.562 134.183C120.639 133.248 118.997 133.966 117.965 135.863C116.932 137.76 116.755 139.596 117.447 139.91Z" fill="#D2D2DC"/>
<path d="M117.267 141.031C116.364 140.824 115.683 141.912 116.343 143.699C117.004 145.486 118.047 145.468 118.231 145.308C118.415 145.147 118.108 144.38 118.027 143.566C117.945 142.753 117.85 141.164 117.267 141.031Z" fill="#D2D2DC"/>
<path d="M111.891 131.504C111.891 131.504 113.433 111.07 117.996 93.1539C122.559 75.2389 133.309 54.1222 136.124 53.2273C138.94 52.3312 163.347 67.8483 175.841 80.4366C188.336 93.0261 200.926 111.836 200.926 111.836L189.871 115.677C189.871 115.677 183.233 105.157 169.084 109.01C154.936 112.861 151.9 127.458 151.9 127.458L141.712 127.71C141.712 127.71 139.192 120.322 126.267 122.607C113.341 124.893 111.891 131.504 111.891 131.504Z" fill="#CE2C2C"/>
<path d="M134.412 54.8662C134.412 54.8662 154.197 71.5281 163.716 87.9079C173.235 104.288 174.053 108.118 174.053 108.118C174.053 108.118 178.477 107.784 181.586 109.314C184.694 110.844 189.871 115.677 189.871 115.677L200.926 111.837C200.926 111.837 183.601 86.3438 172.542 77.2879C161.48 68.2319 140.842 53.3644 136.124 53.2285C134.845 53.1904 134.412 54.8662 134.412 54.8662Z" fill="#A52323"/>
<path d="M124.594 121.808C114.255 124.035 107.378 133.823 108.557 144.334C100.804 146.39 94.8328 152.509 96.4855 161.579C97.9528 168.229 102.48 173.826 108.018 177.669C109.245 180.218 110.584 182.706 112.045 185.139C114.309 188.614 116.502 192.552 120.229 194.914C123.956 196.391 128.107 195.908 131.88 194.467C132.394 195.754 132.936 197.027 133.536 198.284C134.295 199.846 135.095 201.387 136.223 202.844C136.852 203.644 137.803 204.404 138.904 204.431C141.414 204.339 143.871 203.94 146.3 203.396C146.351 204.259 146.38 205.139 146.381 206.006C146.417 209.663 146.072 213.377 145.247 216.921C144.085 221.553 141.677 226.02 138.703 229.863C137.218 231.946 135.206 233.419 133.465 235.252C131.627 237.409 130.672 240.09 130.329 242.76C129.63 248.114 131.472 253.964 135.889 257.301C142.4 261.878 151.668 260.591 158.742 258.163C161.179 257.289 163.582 255.978 165.544 254.301C171.552 249.569 176.55 242.28 175.92 234.264C175.817 231.782 175.414 229.367 174.653 226.968C174.782 226.741 174.904 226.515 175.01 226.296C175.299 225.675 175.549 225.05 175.781 224.422C179.383 224.211 182.595 222.039 185.11 219.605C187.714 217.063 189.579 213.79 191.298 210.613C191.484 210.281 191.677 209.954 191.864 209.623C193.283 208.527 194.714 207.438 196.172 206.398C199.639 203.812 203.455 201.415 207.485 199.899C211.671 198.183 215.882 195.947 219.17 192.757C220.402 191.67 221.713 190.436 222.911 189.297C224.841 187.104 226.673 184.764 228.125 182.221C227.622 189.935 226.983 197.657 228.471 205.399C230.642 217.215 239.676 227.198 251.098 230.789C263.077 234.784 279.604 234.676 288.266 224.178C295.823 213.765 297.028 195.473 283.742 189.129C282.631 188.557 280.866 187.935 279.702 187.477C273.145 184.949 266.741 181.53 261.546 176.884C255.222 171.432 251.035 163.814 250.41 155.496C249.841 146.514 244.935 137.731 236.982 133.276C233.102 131.098 228.542 129.675 224.072 130.06C223.299 128.338 220.403 122.401 215.599 118.545C212.83 116.322 207.811 112.977 200.318 110.462L199.318 112.963C206.492 115.35 211.276 118.53 213.912 120.645C217.758 123.732 220.326 128.483 221.32 130.543C220.69 130.713 220.064 130.914 219.445 131.17C218.915 131.405 218.666 132.021 218.889 132.559C219.116 133.105 219.742 133.364 220.288 133.137C225.252 131.178 231.204 132.82 235.701 135.469C240.402 138.23 244.032 142.647 245.941 147.738C246.903 150.287 247.484 152.97 247.711 155.728C248.358 164.683 252.971 173.152 259.965 178.734C266.788 184.393 274.998 187.343 283.087 190.464C294.172 195.829 294.005 209.866 288.892 219.496C282.433 232.461 263.967 232.709 251.888 228.517C241.242 225.063 233.084 215.851 231.059 204.88C228.986 193.742 231.376 182.183 230.98 170.832C230.7 159.297 229.119 147.849 226.39 136.655C226.356 136.513 226.219 136.416 226.069 136.433C225.904 136.453 225.788 136.605 225.811 136.768C227.149 148.134 228.34 159.511 228.495 170.866C228.538 172.69 228.506 174.515 228.438 176.34C226.936 180.5 224.056 184.208 221.08 187.445C218.329 189.913 215.396 192.775 212.34 194.68C209.644 196.202 206.286 197.606 203.385 198.883C200.283 200.475 197.479 202.476 194.8 204.633C196.337 202.133 197.951 199.681 199.698 197.322C200.721 195.895 201.829 194.499 202.966 193.204C203.378 192.757 202.715 192.102 202.269 192.487C196.783 197.198 192.649 203.138 188.959 209.275C186.103 214.365 182.431 220.344 176.56 222.026C177.139 219.95 177.527 217.842 177.917 215.72C179.257 214.186 180.56 212.578 181.826 211.015C184.488 207.594 188.36 203.043 190.837 199.514C196.326 191.377 199.863 182.08 202.429 172.663C202.895 170.948 203.307 169.069 203.694 167.321C203.694 167.321 203.725 167.168 203.747 167.061C205.542 167.332 206.548 169.079 207.496 170.836C207.53 170.919 207.604 170.981 207.701 170.98C207.818 170.979 207.912 170.885 207.911 170.767C207.947 168.061 206.555 164.741 203.474 164.383C202.396 164.251 201.406 164.543 200.539 164.883C197.72 166.184 194.672 166.806 191.678 167.178C191.253 167.232 191.037 167.773 191.313 168.105L191.695 168.589C192.583 169.716 193.48 169.626 194.321 169.564C194.631 169.546 194.938 169.501 195.244 169.459C191.335 173.049 186.963 177.03 182.666 180.018C176.606 184.19 169.488 186.539 162.436 188.469C155.377 190.218 147.851 191.347 140.64 190.419C135.251 189.479 130.194 186.967 125.981 183.476C124.518 182.334 123.329 180.93 121.788 179.81C121.687 179.726 121.569 179.695 121.446 179.767C121.321 179.845 121.283 180.008 121.361 180.133C123.505 183.338 126.474 185.843 129.609 188.041C131.188 189.18 132.882 190.109 134.655 190.851C130.462 192.585 125.738 193.865 121.449 192.567C118.278 190.541 116.099 187.098 113.758 184.012C112.614 182.412 111.498 180.779 110.395 179.135C112.432 180.211 114.559 181.034 117.062 180.676C119.731 180.045 121.822 178.682 123.818 177.26C127.759 174.349 131.128 170.781 133.732 166.624C137.497 160.84 137.166 156.026 134.599 152.318C137.329 153.299 140.111 154.079 142.92 154.749C143.132 154.87 143.367 154.936 143.605 154.932C143.623 154.932 143.639 154.923 143.656 154.922C151.054 156.64 158.618 157.709 165.871 159.997C169.589 161.125 173.324 162.304 177.029 163.507C178.289 163.896 178.953 162.077 177.768 161.545C174.14 159.957 170.459 158.558 166.682 157.363C159.897 155.13 152.837 154.171 145.801 153.114C147.672 150.698 150.704 145.396 149.063 137.78C147.249 129.363 139.039 122.686 132.701 121.715C128.942 121.14 126.12 121.478 124.594 121.808ZM164.792 116.665C165.724 116.464 166.662 116.358 167.595 116.344C170.36 116.302 173.077 117.076 175.452 118.609C178.631 120.66 180.819 123.827 181.616 127.524C183.261 135.156 178.389 142.703 170.758 144.348C163.126 145.994 155.578 141.122 153.933 133.489C152.289 125.857 157.159 118.31 164.792 116.665ZM168.018 147.36C169.109 147.343 170.217 147.22 171.325 146.981C180.409 145.024 186.207 136.04 184.25 126.956C183.301 122.555 180.696 118.788 176.913 116.346C173.131 113.904 168.623 113.083 164.224 114.031C163.029 114.289 161.896 114.674 160.825 115.159C163.358 113.105 166.344 111.647 169.624 110.941C171.01 110.643 172.402 110.485 173.789 110.464C177.897 110.403 181.933 111.553 185.463 113.831C190.184 116.877 193.436 121.581 194.62 127.073C197.063 138.412 189.825 149.625 178.487 152.069C172.995 153.254 167.369 152.227 162.648 149.18C160.102 147.537 158.002 145.401 156.405 142.93C159.519 145.773 163.654 147.424 168.018 147.36ZM125.162 124.44C134.788 122.366 144.329 128.604 146.43 138.347C148.344 147.233 142.907 152.378 142.679 152.59C142.666 152.601 142.657 152.615 142.644 152.626C140.187 152.236 137.741 151.802 135.313 151.278C138.759 147.695 140.247 142.677 139.204 137.837C137.466 129.772 129.336 124.655 121.083 126.436C120.392 126.585 119.726 126.793 119.072 127.027C120.877 125.82 122.924 124.923 125.162 124.44ZM111.897 143.709C111.212 140.515 111.842 137.237 113.675 134.476C115.516 131.701 118.349 129.781 121.651 129.069C128.45 127.608 135.145 131.791 136.571 138.404C137.492 142.68 135.993 147.134 132.661 150.097C128.366 146.062 121.205 143.794 114.789 143.569C113.818 143.557 112.85 143.604 111.897 143.709ZM97.9067 161.273C95.9465 152.735 101.998 147.487 109.326 146.215C109.581 146.36 109.882 146.428 110.197 146.379C110.318 146.36 110.43 146.321 110.536 146.272C110.752 146.321 110.98 146.322 111.206 146.256C111.414 146.195 111.593 146.083 111.742 145.944C112.735 145.891 113.738 145.904 114.734 145.994C122.099 145.997 135.426 150.148 134.351 159.362C132.97 166.936 123.679 175.804 116.5 178.041C114.655 178.396 112.376 177.48 110.648 176.563C104.815 173.305 99.6354 167.852 97.9067 161.273ZM138.509 202.819C138.071 202.651 137.643 202.252 137.304 201.895C135.369 199.668 133.906 196.893 132.581 194.193C134.194 193.518 135.719 192.672 137.104 191.74C141.806 193.216 146.909 193.529 151.799 193.016C161.321 192.098 170.685 189.557 179.258 185.293C187.198 181.062 193.731 174.726 199.726 168.118C200.678 167.694 201.624 167.274 202.548 167.094C201.97 169.285 201.366 171.47 200.716 173.643C200.595 173.651 200.472 173.68 200.351 173.749C188.584 183.482 174.913 190.732 160.849 196.637C156.081 198.419 151.198 200.039 146.298 201.414C143.751 202.024 141.112 202.966 138.509 202.819ZM190.19 197.266C186.093 197.072 181.698 198.581 179.407 202.143C176.295 207.597 176.059 213.844 174.476 219.734C173.773 222.387 173.115 225.254 171.231 227.164C169.16 228.745 166.344 229.557 163.787 229.42C159.988 229.369 157.669 226.46 157.228 222.802C156.317 215.039 160.719 207.41 165.425 201.445C167.352 199.035 169.453 196.738 171.692 194.613C172.605 194.177 173.515 193.732 174.421 193.282C173.582 194.237 172.824 195.253 172.153 196.278C169.817 199.816 167.733 203.593 166.353 207.615C164.952 211.632 164.023 215.773 163.811 220.033C163.78 220.737 164.818 220.776 164.884 220.115C166.266 212.086 169.538 204.381 174.366 197.815C176.684 194.533 179.42 191.589 183.011 190.441C183.345 190.322 184.023 190.147 184.374 190.089C187.48 189.433 190.284 191.352 192.537 193.465C191.802 194.76 191.01 196.022 190.19 197.266ZM189.091 198.907C188.499 199.747 187.885 200.574 187.247 201.384C184.699 204.653 181.295 209.004 178.488 212.558C179.74 205.539 181.062 199.588 189.091 198.907ZM165.586 199.684C165.507 199.303 165.407 198.877 165.29 198.515C165.198 198.232 165.098 197.905 165.005 197.595C166.375 197.033 167.737 196.447 169.084 195.833C167.881 197.079 166.71 198.363 165.586 199.684ZM164.171 197.94C164.258 198.229 164.35 198.528 164.436 198.791C164.621 199.369 164.771 200.165 164.841 200.574C163.883 201.739 162.971 202.938 162.109 204.17C161.832 202.48 161.435 200.782 160.728 199.225C161.884 198.818 163.033 198.395 164.171 197.94ZM193.094 192.436C192.064 190.95 190.771 189.683 189.17 188.757C187.878 187.995 186.237 187.583 184.681 187.679C187.725 185.855 190.694 183.906 193.535 181.783C195.624 180.184 197.747 178.609 199.706 176.853C199.449 177.634 199.196 178.416 198.918 179.19C197.314 183.753 195.405 188.208 193.094 192.436ZM173.362 241.491C170.875 247.951 164.758 254.17 158.139 256.513C151.662 258.632 142.99 259.803 137.161 255.643C133.476 252.788 131.939 247.685 132.622 243.067C133.047 240.171 134.243 237.459 136.496 235.662C145.633 227.804 150.812 214.9 147.982 203.004C150.926 202.264 153.833 201.348 156.741 200.513C157.8 200.207 158.846 199.869 159.888 199.516C160.258 200.258 160.584 201.03 160.825 201.811C161.087 202.712 161.297 204.032 161.5 205.054C159.1 208.646 157.179 212.525 156.068 216.775C155 221.04 154.637 225.898 157.74 229.554C161.607 233.451 168.059 232.462 172.255 229.69C172.727 229.387 173.152 228.998 173.531 228.567C174.615 232.791 174.757 237.412 173.362 241.491ZM161.772 111.193C158.722 113.034 156.105 115.556 154.117 118.637C150.68 123.962 149.522 130.307 150.858 136.505C153.278 147.735 163.324 155.399 174.398 155.235C175.936 155.213 177.494 155.039 179.054 154.703C191.845 151.946 200.009 139.296 197.253 126.505C195.617 118.916 190.286 112.734 183.934 109.94C180.338 108.358 178.61 107.935 173.108 107.935C167.605 107.935 161.772 111.193 161.772 111.193Z" fill="#110331"/>
<path d="M151.902 127.458C149.443 128.083 146.836 128.531 143.674 128.976" stroke="#110331" stroke-width="3.45516" stroke-miterlimit="10" stroke-linecap="round"/>
<path d="M111.891 132.76C111.891 132.76 114.086 109.919 117.996 93.1551C121.906 76.3918 132.797 54.7187 135.996 53.8227C139.196 52.9278 159.625 65.386 174.939 79.5901C190.255 93.7954 200.926 112.302 200.926 112.302C200.926 112.302 196.85 113.629 190.564 115.641" stroke="#110331" stroke-width="3.45516" stroke-miterlimit="10" stroke-linecap="round"/>
</g>
</g>
</svg>
