<svg width="695" height="695" viewBox="0 0 695 695" fill="none" xmlns="http://www.w3.org/2000/svg">
<mask id="mask0_3_1000" style="mask-type:luminance" maskUnits="userSpaceOnUse" x="0" y="0" width="695" height="695">
<path d="M694.181 0.108643H0.181274V694.109H694.181V0.108643Z" fill="white"/>
</mask>
<g mask="url(#mask0_3_1000)">
<path d="M667.598 770.409C688.004 946.892 561.478 1106.5 384.995 1126.91C208.511 1147.31 48.9006 1020.79 28.4947 844.305C8.08888 667.823 134.615 508.212 311.099 487.806C487.582 467.4 647.192 593.926 667.598 770.409Z" fill="#B0ACC6"/>
<path d="M231.101 507.575C231.101 507.575 154.132 596.422 142.086 703.688C132.395 789.973 167.147 902.625 246.434 959.093C315.639 1008.38 406.818 1012.64 474.316 997.943C580.281 974.866 657.529 894.994 657.529 894.994C657.529 894.994 622.849 1013.4 527.775 1076.73C417.965 1149.88 238.128 1161.32 108.97 1022.76C-23.7775 880.349 24.5606 703.776 97.4994 605.634C143.959 543.122 231.101 507.575 231.101 507.575Z" fill="#7E7A93"/>
<path d="M667.482 770.422C687.888 946.905 561.362 1106.52 384.879 1126.92C208.395 1147.33 48.7848 1020.8 28.3789 844.319C7.97307 667.836 134.499 508.226 310.983 487.82C487.466 467.414 647.076 593.94 667.482 770.422Z" stroke="#110331" stroke-width="6.77734" stroke-miterlimit="10" stroke-linecap="round"/>
<path d="M312.476 620.19C316.044 651.049 293.92 678.959 263.061 682.527C232.203 686.095 204.294 663.971 200.726 633.112C197.158 602.252 219.282 574.343 250.139 570.775C280.998 567.207 308.908 589.331 312.476 620.19Z" fill="#7E7A93"/>
<path d="M312.476 620.19C316.044 651.049 293.92 678.959 263.061 682.527C232.203 686.095 204.294 663.971 200.726 633.112C197.158 602.252 219.282 574.343 250.139 570.775C280.998 567.207 308.908 589.331 312.476 620.19Z" stroke="#110331" stroke-width="5.42188" stroke-miterlimit="10" stroke-linecap="round"/>
<path d="M451.29 563.149C452.973 577.711 442.534 590.882 427.97 592.566C413.408 594.25 400.239 583.809 398.555 569.247C396.872 554.684 407.31 541.513 421.872 539.829C436.436 538.146 449.606 548.587 451.29 563.149Z" fill="#7E7A93"/>
<path d="M451.29 563.149C452.973 577.711 442.534 590.882 427.97 592.566C413.408 594.25 400.239 583.809 398.555 569.247C396.872 554.684 407.31 541.513 421.872 539.829C436.436 538.146 449.606 548.587 451.29 563.149Z" stroke="#110331" stroke-width="5.42188" stroke-miterlimit="10" stroke-linecap="round"/>
<path d="M399.584 520.846C399.584 520.846 440.16 506.838 453.186 490.127C466.211 473.418 468.013 464.43 467.115 463.089C466.216 461.75 444.616 478.827 430.159 483.688C417.792 487.847 409.785 489.69 407.723 490.136C407.723 490.136 393.445 491.527 382.927 496.103C376.617 498.849 372.791 501.792 371.601 506.491C370.41 511.191 372.295 518.421 379.272 520.678C386.65 523.064 399.584 520.846 399.584 520.846Z" fill="#C6C3CC"/>
<path d="M434.513 504.273C456.407 491.994 466.03 469.245 466.03 469.245L467.114 463.09C467.114 463.09 440.644 486.712 432.159 493.713C424.155 500.317 411.085 506.853 403.519 507.961C395.952 509.069 372.48 508.406 371.816 510.592C371.418 511.9 372.09 518.639 379.272 520.678C386.244 522.661 399.584 520.846 399.584 520.846C399.584 520.846 414.631 515.424 434.513 504.273Z" fill="#747388"/>
<path d="M407.199 490.79C414.063 489.252 424.216 487.769 437.113 480.551C450.011 473.333 465.338 461.65 466.888 463.202C468.436 464.755 460.254 487.574 438.163 501.744C416.073 515.914 407.974 518.801 399.996 520.746C392.02 522.693 383.58 524.446 375.679 518.781C367.776 513.115 369.222 498.253 387.295 494.439C396.476 492.502 400.334 492.327 407.199 490.79Z" stroke="#110331" stroke-width="4.06641" stroke-miterlimit="10" stroke-linecap="round"/>
<path d="M293.977 564.842C293.977 564.842 286.119 563.655 282.838 571.721C279.556 579.788 279.748 588.217 294.376 592.638C309.002 597.058 312.626 590.126 312.626 590.126L333.978 535.064L309.222 526.004L293.977 564.842Z" fill="#C6C3CC"/>
<path d="M307.081 581.221C306.451 582.058 306.893 582.898 297.944 581.732C288.993 580.564 284.061 573.828 284.061 573.828C284.061 573.828 279.099 578.705 282.027 583.858C287.338 593.205 305.442 596.972 311.148 592.232C316.573 587.724 332.781 540.38 334.147 536.276C334.147 536.276 329.808 534.719 325.263 537.698C320.718 540.677 308.11 579.857 307.081 581.221Z" fill="#747388"/>
<path d="M294.143 564.6L307.409 530.074" stroke="#110331" stroke-width="4.06641" stroke-miterlimit="10" stroke-linecap="round"/>
<path d="M303.159 568.555C303.159 568.555 288.74 558.179 282.887 571.743C277.033 585.308 287.492 589.937 287.492 589.937C287.492 589.937 305.431 598.799 311.626 591.559C317.821 584.319 331.403 541.521 331.403 541.521" stroke="#110331" stroke-width="4.06641" stroke-miterlimit="10" stroke-linecap="round"/>
<path d="M367.178 575.546C367.178 575.546 360.013 578.983 361.836 587.498C363.66 596.014 368.56 602.876 383.141 598.304C397.72 593.732 396.818 585.962 396.818 585.962L383.504 528.426L357.94 534.858L367.178 575.546Z" fill="#C6C3CC"/>
<path d="M387.225 581.718C387.175 582.764 388.013 583.211 379.957 587.28C371.9 591.348 364.033 588.553 364.033 588.553C364.033 588.553 362.673 595.376 367.992 597.99C377.641 602.732 394.729 595.664 396.78 588.536C398.731 581.756 385.504 533.494 384.326 529.333C384.326 529.333 379.862 530.485 377.78 535.506C375.697 540.525 387.309 580.011 387.225 581.718Z" fill="#747388"/>
<path d="M361.338 550.942L367.179 575.251" stroke="#110331" stroke-width="4.06641" stroke-miterlimit="10" stroke-linecap="round"/>
<path d="M376.858 573.452C376.858 573.452 359.101 572.982 361.89 587.489C364.679 601.998 375.93 599.942 375.93 599.942C375.93 599.942 395.747 597.18 396.798 587.71C397.847 578.24 385.007 535.213 385.007 535.213" stroke="#110331" stroke-width="4.06641" stroke-miterlimit="10" stroke-linecap="round"/>
<path d="M260.414 273.687C260.414 273.687 257.95 266.132 249.268 266.819C240.587 267.506 233.14 271.463 235.754 286.517C238.366 301.571 246.189 301.7 246.189 301.7L304.977 296.073L301.964 269.882L260.414 273.687Z" fill="#C6C3CC"/>
<path d="M251.657 292.747C250.627 292.559 250.074 293.332 247.1 284.81C244.126 276.289 247.933 268.858 247.933 268.858C247.933 268.858 241.349 266.611 238.057 271.54C232.088 280.481 236.845 298.351 243.642 301.322C250.105 304.148 299.688 297.386 303.97 296.767C303.97 296.767 303.414 292.19 298.712 289.466C294.01 286.74 253.338 293.054 251.657 292.747Z" fill="#747388"/>
<path d="M260.706 273.725L297.514 270.091" stroke="#110331" stroke-width="4.06641" stroke-miterlimit="10" stroke-linecap="round"/>
<path d="M261.217 283.559C261.217 283.559 264.02 266.017 249.272 266.873C234.523 267.729 235.08 279.154 235.08 279.154C235.08 279.154 235.21 299.162 244.459 301.45C253.708 303.738 298.051 296.668 298.051 296.668" stroke="#110331" stroke-width="4.06641" stroke-miterlimit="10" stroke-linecap="round"/>
<path d="M256.586 181.253C256.586 181.253 232.021 154.319 229.948 121.761C227.877 89.2009 243.267 54.5714 243.267 54.5714C243.267 54.5714 278.49 37.1089 329.4 43.6206C380.31 50.1322 403.989 74.9942 404.877 76.4744C405.765 77.9532 405.469 98.9684 402.213 117.32C398.957 135.672 393.037 152.246 392.149 153.134C391.261 154.022 367.582 169.119 327.328 177.111C287.074 185.103 256.586 181.253 256.586 181.253Z" fill="#352A54"/>
<path d="M270.828 182.281C273.417 179.128 274.285 178.696 276.359 174.868C280.559 167.112 282.044 159.329 282.044 159.329C282.044 159.329 274.139 158.806 270.504 157.126C266.868 155.448 266.848 141.803 266.848 141.803C266.848 141.803 256.931 141.414 253.358 137.708C249.785 134.002 244.978 111.688 244.978 111.688C244.978 111.688 230.081 87.0064 243.244 76.8363C246.999 73.9343 247.846 73.5073 247.846 73.5073L261.453 72.6154C261.453 72.6154 260.912 66.1118 270.436 57.0126C273.231 54.3423 278.365 52.099 283.713 51.9282C289.3 51.7507 295.047 53.708 295.047 53.708C295.047 53.708 309.655 48.7158 327.021 50.0184C346.654 51.489 369.475 59.3806 372.44 61.4368C379.287 66.1823 393.874 74.6825 399.135 83.5608C404.396 92.4391 402.749 104.705 402.749 104.705L392.481 152.043L369.208 161.785L270.828 182.281Z" fill="#493D6F"/>
<path d="M299.591 164.721L299.328 166.807L299.184 169.407L301.257 167.889C301.257 167.889 301.987 165.694 301.945 164.223C301.906 162.894 301.881 160.348 301.876 159.87L299.71 159.928L299.504 163.645L299.591 164.721Z" fill="#AD877F"/>
<path d="M305.64 159.765L305.074 165.411L298.97 169.644L299.328 166.807L299.503 163.645L299.204 159.941L299.709 159.929L299.717 159.794L291.964 159.829" fill="#38275F"/>
<path d="M301.875 159.783C301.875 159.783 301.875 159.818 301.876 159.868L305.64 159.765L301.875 159.783Z" fill="#666666"/>
<path d="M301.257 167.887L299.184 169.407L299.328 166.807L298.971 169.643L305.074 165.411L305.64 159.767L301.876 159.868C301.88 160.345 301.906 162.891 301.944 164.221C301.987 165.691 301.257 167.887 301.257 167.887Z" fill="#7B5269"/>
<path d="M299.504 163.643L299.71 159.929L299.203 159.943L299.504 163.643Z" fill="#666666"/>
<path d="M347.245 152.866C350.781 151.525 360.32 148.526 360.32 148.526C360.32 148.526 355.536 155.632 351.878 159.62C348.22 163.607 342.701 169.218 342.724 169.043C342.746 168.869 341.132 163.224 337.446 160.269C335.25 158.509 329.553 158.444 329.553 158.444L330.513 156.852C330.513 156.852 343.709 154.206 347.245 152.866Z" fill="#562861"/>
<path d="M305.64 159.765L305.072 165.411C305.072 165.411 308.249 163.523 309.136 163.064C310.022 162.605 314.786 159.702 314.786 159.702L305.64 159.765Z" fill="#562861"/>
<path d="M337.534 172.803C337.534 172.803 328.61 169.96 323.625 173.546C318.639 177.132 315.89 180.303 315.89 180.303C315.89 180.303 327.742 178.712 330.51 176.927C333.301 175.127 337.534 172.803 337.534 172.803Z" fill="#773F72"/>
<path d="M316.937 180.302C320.045 177.129 319.452 175.97 324.267 173.146C329.408 170.131 336.892 173.29 336.892 173.29L342.745 168.869C342.745 168.869 340.405 156.884 328.516 157.938L315.389 159.756C315.389 159.756 295.222 171.128 286.815 182.036L316.937 180.302Z" fill="#A7678F"/>
<path d="M266.905 141.347C266.905 141.347 266.774 154.574 270.504 157.126C273.455 159.147 297.829 160.57 324.315 157.857C335.985 156.661 360.835 148.356 360.835 148.356L368.057 138.391L361.907 137.617C361.907 137.617 339.947 152.86 316.072 151.047C292.197 149.233 278.384 145.237 273.67 140.964L270.871 141.602L266.905 141.347Z" fill="#B5B1C8"/>
<path d="M252.972 117.429C252.972 117.429 245.589 112.518 241.182 104.108C236.88 95.8983 235.051 82.2175 245.109 75.428C262.551 63.6517 288.549 86.3707 287.303 97.083C286.058 107.795 266.074 120.055 252.972 117.429Z" fill="#3D2D63"/>
<path d="M311.53 180.92C314.493 175.569 315.005 174.681 317.187 172.986C318.231 172.176 316.396 171.032 314.458 170.307C311.396 169.163 309.808 170.133 309.808 170.133L303.084 176.615C303.084 176.615 298.658 182.601 298.317 182.179C297.964 181.743 301.73 174.865 303.885 172.557C310.325 165.666 308.582 167.506 308.582 167.506C308.582 167.506 308.137 166.305 306.932 166.063C305.726 165.819 303.428 166.442 303.428 166.442C303.428 166.442 313.109 160.52 315.389 159.754C317.669 158.987 327.099 158.135 327.099 158.135L333.776 158.726L339.99 162.875L343.006 168.806L337.536 173.533C337.536 173.533 332.333 170.544 325.37 172.736C318.409 174.927 317.301 179.7 317.301 179.7L315.044 180.661L311.53 180.92Z" fill="#773F72"/>
<path d="M277.14 79.4605C277.14 79.4605 277.869 91.8346 263.82 98.9237C252.586 104.594 239.957 101.446 239.957 101.446C239.957 101.446 245.982 117.606 255.122 118.151C264.262 118.697 274.151 112.892 277.941 109.705C281.731 106.518 286.273 102.884 287.251 97.4625C288.64 89.7607 277.14 79.4605 277.14 79.4605Z" fill="#301D59"/>
<path d="M245.709 83.7207C244.426 82.2392 246.676 79.9051 250.856 78.147C255.038 76.3904 263.099 76.0718 263.32 81.4693C263.541 86.8654 257.979 81.5913 253.966 82.471C249.953 83.3493 246.993 85.2023 245.709 83.7207Z" fill="#796DAA"/>
<path d="M256.034 118.029C255.287 117.996 254.532 117.948 253.762 117.855C254.287 117.952 255.068 118.02 256.034 118.029Z" fill="#EFBC72"/>
<path d="M252.746 137.022C252.892 137.153 253.045 137.275 253.197 137.399C250.561 133.588 247.947 124.297 246.485 118.46C247.56 125.209 249.539 134.139 252.746 137.022Z" fill="#EFBC72"/>
<path d="M245.442 110.304C245.442 110.304 245.562 111.657 245.822 113.765C246.515 114.223 247.806 115.058 249.216 115.859C246.507 113.605 245.442 110.304 245.442 110.304Z" fill="#EFBC72"/>
<path d="M335.585 174.266C341.578 170.017 355.277 155.628 361.328 147.613C362.826 146.602 366.169 144.55 367.41 145.462C369.03 146.652 367.119 152.134 369.286 148.987C371.454 145.841 370.616 140.362 368.055 138.391C366.51 137.202 364.18 137.377 362.573 137.701L361.908 137.617L360.771 138.189L355.006 138.499C355.006 138.499 339.421 140.8 327.372 140.473C315.324 140.148 303.471 133.892 294.935 126.04C286.398 118.188 280.117 108.596 280.117 108.596C280.117 108.596 280.124 108.588 280.134 108.579C281.891 106.962 282.834 105.79 282.834 105.79C282.834 105.79 297.914 126.14 318.311 133.881C330.853 138.64 345.746 134.529 354.723 131.018C358.566 132.692 363.174 134.521 365.98 134.955C367.908 135.253 371.627 135.348 375.664 135.093C377.91 136.581 380.552 137.881 383.379 138.365C386.278 138.86 388.835 138.686 390.936 138.265C392.02 142.887 392.645 149.199 389.563 153.309C384.207 160.45 364.946 167.909 363.71 168.062C362.727 168.183 359.155 169.221 351.608 171.497C344.061 173.771 335.585 174.266 335.585 174.266Z" fill="#AD877F"/>
<path d="M249.217 115.859C250.402 116.844 251.9 117.632 253.764 117.854C252.57 117.633 250.818 116.768 249.217 115.859Z" fill="#666666"/>
<path d="M245.293 113.41C245.293 113.41 245.741 115.487 246.486 118.46C246.206 116.698 245.986 115.084 245.822 113.765C245.489 113.544 245.293 113.41 245.293 113.41Z" fill="#666666"/>
<path d="M280.134 108.579C280.262 108.446 280.892 107.707 273.819 112.705C267.652 117.063 260.136 118.072 256.033 118.029C267.496 118.532 276.038 112.347 280.134 108.579Z" fill="#666666"/>
<path d="M362.573 137.7C361.518 137.912 360.771 138.19 360.771 138.19L346.216 145.525C346.216 145.525 331.554 151.867 309.671 150.987C287.787 150.108 273.67 140.962 273.67 140.962C273.67 140.962 260.213 143.1 253.197 137.397C253.464 137.784 253.731 138.114 253.998 138.377C258.233 142.575 266.633 141.34 266.633 141.34L267.354 147.288C267.354 147.288 269.02 147.529 270.582 147.06C272.199 146.575 273.579 145.389 273.579 145.389C273.579 145.389 272.052 146.82 283.526 151.909C295.669 157.296 315.244 154.844 324.149 154.438C333.053 154.033 346.811 149.514 352.336 146.852C355.362 145.393 358.975 142.339 361.136 142.037C362.231 141.883 358.833 146.026 358.316 147.849C357.991 149 360.584 148.135 360.584 148.135C360.584 148.135 360.87 147.922 361.327 147.613C365.286 142.37 368.054 138.389 368.054 138.389L362.573 137.7Z" fill="#806C8D"/>
<path d="M362.573 137.7L368.054 138.389C366.509 137.201 364.18 137.376 362.573 137.7Z" fill="#666666"/>
<path d="M273.67 140.964C273.67 140.964 287.789 150.109 309.671 150.989C331.555 151.87 346.216 145.527 346.216 145.527L360.771 138.192L355.006 138.499C355.006 138.499 339.421 140.8 327.372 140.473C315.324 140.146 303.471 133.893 294.935 126.041C286.398 118.188 280.117 108.596 280.117 108.596C280.117 108.596 280.123 108.59 280.133 108.579C276.038 112.347 267.497 118.533 256.034 118.03C255.068 118.021 254.288 117.953 253.764 117.856C251.9 117.633 250.402 116.844 249.217 115.859C247.806 115.058 246.515 114.224 245.822 113.766C245.986 115.084 246.206 116.697 246.486 118.459C247.949 124.297 250.561 133.59 253.197 137.4C260.213 143.102 273.67 140.964 273.67 140.964Z" fill="#7B5269"/>
<path d="M367.41 145.461C369.031 146.651 367.119 152.133 369.285 148.985C371.452 145.839 370.617 140.36 368.057 138.389C368.057 138.389 365.288 142.369 361.33 147.612C362.826 146.601 366.169 144.549 367.41 145.461Z" fill="#7B5269"/>
<path d="M334.298 185.816C335.017 185.587 336.113 185.244 337.421 184.843C335.547 185.396 334.331 185.783 334.331 185.783C334.331 185.783 334.318 185.797 334.298 185.816Z" fill="#666666"/>
<path d="M402.108 116.432L398.554 132.12L396.657 136.146C395.898 136.602 393.873 137.677 390.934 138.266C390.135 134.859 391.279 125.24 391.115 122.551C391.079 121.969 388.642 87.2341 373.035 76.7184C354.204 64.0298 323.183 63.7804 306.612 61.0573C297.741 59.5988 295.177 54.1295 296.007 53.041C297.285 51.3657 337.833 44.7076 367.298 59.4212C378.189 64.8607 394.383 76.1531 400.572 85.6306C407.299 95.9308 403.689 104.351 403.689 104.351" fill="#38275F"/>
<path d="M389.563 153.31C388.28 155.02 383.3 158.277 383.3 158.277L393.593 153.377L393.563 149.949L399.032 130.419C398.272 130.875 393.874 137.676 390.936 138.266C392.02 142.888 392.645 149.201 389.563 153.31Z" fill="#7B5269"/>
<path d="M375.665 135.094C371.458 132.306 372.969 128.608 366.667 127.298C360.366 125.987 359.646 129.092 354.723 131.018C358.566 132.692 363.174 134.521 365.98 134.955C367.908 135.252 371.628 135.348 375.665 135.094Z" fill="#7B5269"/>
<path d="M403.249 104.352C403.249 104.352 405.297 94.0291 400.561 86.4235C395.733 78.6703 379.159 56.4108 334.056 50.7313C303.702 46.9103 295.417 53.037 295.417 53.037" stroke="#220664" stroke-width="4.06641" stroke-miterlimit="10" stroke-linecap="round"/>
<path d="M325.014 104.323C317.876 97.0816 312.624 80.6465 320.213 69.1115C329.187 55.4701 342.723 53.3732 349.408 54.6798C356.093 55.9879 363.585 59.0227 368.276 64.9258C368.276 64.9258 375.298 74.1511 374.86 84.347C374.659 88.9908 372.995 102.217 360.207 109.208C346.123 116.908 332.152 111.563 325.014 104.323Z" fill="#B5B1C8"/>
<path d="M261.453 72.6154C261.453 72.6154 264.469 54.3328 281.742 52.1586C299.015 49.9845 309.777 63.2762 310.619 75.2274C311.459 87.1785 302.664 95.6882 302.664 95.6882L294.003 95.3222L285.894 90.3652C285.894 90.3652 280.548 80.9976 274.261 77.8244C267.974 74.6513 261.453 72.6154 261.453 72.6154Z" fill="#B5B1C8"/>
<path d="M348.542 54.7544C348.542 54.7544 358.933 57.9492 361.199 66.9414C361.673 68.8201 361.67 70.0806 361.233 71.3277C360.664 72.9542 358.867 74.3721 358.867 74.3721C358.867 74.3721 359.809 76.7238 359.622 79.4768C359.433 82.2284 358.597 85.9708 358.597 85.9708C358.597 85.9708 355.634 92.0623 350.917 96.2724C340.989 105.136 324.445 103.736 324.445 103.736C324.445 103.736 330.827 111.833 345.162 112.968C351.783 113.492 353.851 112.421 360.805 108.862C367.76 105.303 373.266 97.1439 374.705 88.4622C376.759 76.084 368.43 64.1274 368.43 64.1274C368.43 64.1274 364.786 59.6069 360.983 58.4114C357.179 57.2159 348.542 54.7544 348.542 54.7544Z" fill="#806C8D"/>
<path d="M291.759 52.5056C291.759 52.5056 310.037 60.7659 310.531 74.2962C311.181 92.0989 298.863 98.3259 298.863 98.3259L294.372 95.5933L286.975 90.5035C286.975 90.5035 298.458 85.9247 298.363 75.5256C298.363 75.5256 300.344 75.7967 301.333 73.7702C302.321 71.7425 302.101 67.3941 300.27 62.8126C298.706 58.9007 291.759 52.5056 291.759 52.5056Z" fill="#806C8D"/>
<path d="M357.576 86.6337C357.576 86.6337 362.123 66.8126 346.289 60.7916C328.386 53.9818 317.576 69.674 318.287 79.7723C318.998 89.8692 325.628 96.6058 329.046 97.7133C329.046 97.7133 339.619 101.795 346.761 98.2039C353.963 94.5835 357.576 86.6337 357.576 86.6337Z" fill="#477EBF"/>
<path d="M261.453 72.6154C261.453 72.6154 262.801 57.7893 275.455 56.6954C288.111 55.6029 297.444 60.7469 298.59 73.8353C299.737 86.9251 285.894 90.3652 285.894 90.3652C285.894 90.3652 279.741 79.8861 273.455 76.9583C267.168 74.0318 261.453 72.6154 261.453 72.6154Z" fill="#477EBF"/>
<path d="M346.768 60.9773C346.768 60.9773 356.756 66.4114 358.095 72.3728C359.435 78.3341 357.754 85.8651 357.754 85.8651C357.754 85.8651 355.216 92.3673 351.732 95.1216C348.438 97.7227 342.787 99.7519 340.285 99.962C337.782 100.172 330.417 98.3666 330.417 98.3666C330.417 98.3666 346.781 90.5889 347.874 87.2463C348.966 83.9037 350.26 82.3571 350.26 82.3571C350.26 82.3571 352.276 80.8878 352.863 79.6245C353.449 78.3612 353.9 75.3128 353.087 71.5391C352.446 68.5585 346.768 60.9773 346.768 60.9773Z" fill="#3B4E90"/>
<path d="M283.047 84.7929C283.047 84.7929 288.98 80.1423 289.736 77.7648C290.494 75.3873 292.37 75.7099 293.316 74.8885C294.241 74.0861 294.722 69.9004 293.533 67.3372C292.346 64.774 287.537 57.9953 287.537 57.9953C287.537 57.9953 298.828 62.6134 298.657 75.1338C298.486 87.653 285.982 90.5509 285.982 90.5509L283.047 84.7929Z" fill="#3B4E90"/>
<path d="M351.218 80.8634C350.246 88.5787 343.204 94.0467 335.488 93.0748C327.772 92.1043 322.304 85.0627 323.276 77.3473C324.248 69.6306 331.29 64.164 339.006 65.1346C346.722 66.1064 352.19 73.1481 351.218 80.8634Z" fill="#220664"/>
<path d="M282.913 85.6577C287.2 84.0894 290.494 80.1965 291.111 75.2992C291.984 68.3579 287.148 62.0332 280.306 61.1712C273.467 60.3104 267.211 65.2376 266.337 72.1789C266.253 72.8499 266.222 73.5154 266.241 74.1687C266.241 74.1687 270.87 75.9024 275.233 78.5889C279.596 81.2755 282.913 85.6577 282.913 85.6577Z" fill="#220664"/>
<path d="M260.846 72.6696C263.261 59.5202 275.444 50.3816 288.729 52.0543C302.5 53.7879 312.24 66.4805 310.487 80.4053C308.849 93.4313 298.624 97.7648 298.624 97.7648" stroke="#220664" stroke-width="2.71094" stroke-miterlimit="10" stroke-linecap="round"/>
<path d="M261.92 72.9285C261.941 72.5002 261.979 72.0705 262.033 71.6394C263.263 61.8773 272.374 54.9861 282.387 56.2467C292.4 57.5073 299.52 66.4426 298.292 76.2047C297.453 82.8681 292.939 88.1938 286.975 90.5021" stroke="#220664" stroke-width="2.71094" stroke-miterlimit="10" stroke-linecap="round"/>
<path d="M374.865 87.3642C372.844 103.412 358.199 114.783 342.151 112.762C326.104 110.742 314.733 96.0962 316.754 80.0488C318.773 64.0014 333.421 52.6317 349.468 54.6513C365.515 56.6723 376.886 71.3168 374.865 87.3642Z" stroke="#220664" stroke-width="2.71094" stroke-miterlimit="10" stroke-linecap="round"/>
<path d="M358.617 82.2853C357.217 93.4015 347.071 101.281 335.954 99.8806C324.838 98.4818 316.96 88.3347 318.36 77.2185C319.759 66.101 329.906 58.2243 341.023 59.6232C352.14 61.0234 360.018 71.1691 358.617 82.2853Z" stroke="#220664" stroke-width="2.71094" stroke-miterlimit="10" stroke-linecap="round"/>
<path d="M329.337 74.6743C330.532 75.5066 331.351 72.4093 334.226 70.7286C336.922 69.1535 338.804 68.4988 337.605 66.7313C336.407 64.9637 333.568 65.6293 331.359 68.3565C329.149 71.0837 328.323 73.9681 329.337 74.6743Z" fill="#B4B2BE"/>
<path d="M329.095 76.7387C327.772 76.019 326.228 77.4273 326.481 80.5137C326.733 83.6001 328.373 84.0284 328.732 83.8576C329.091 83.6855 328.945 82.3517 329.174 81.041C329.403 79.7302 329.948 77.2023 329.095 76.7387Z" fill="#B4B2BE"/>
<path d="M272.43 68.3755C273.277 69.186 274.313 66.8248 276.808 65.8462C279.146 64.9285 280.725 64.6425 279.992 63.0878C279.259 61.5331 276.919 61.7093 274.824 63.6042C272.728 65.4978 271.711 67.6882 272.43 68.3755Z" fill="#B4B2BE"/>
<path d="M271.724 69.6794C270.699 69.0315 269.387 70.0834 269.428 72.5747C269.47 75.0661 270.763 75.4958 271.061 75.3765C271.358 75.2586 271.312 74.1796 271.564 73.1386C271.816 72.099 272.385 70.0969 271.724 69.6794Z" fill="#B4B2BE"/>
<path d="M285.749 88.9013C296.681 96.0284 308.773 101.002 319.802 108.055C326.453 112.455 332.336 117.892 337.667 123.787C338.986 125.252 336.863 127.367 335.409 126.005C331.581 122.59 327.637 119.219 323.641 116.047C315.583 109.555 306.279 105.069 297.57 99.3764C293.179 96.4703 288.941 93.3785 285.025 89.8C284.507 89.3419 285.177 88.4771 285.749 88.9013Z" fill="#220664"/>
<path d="M260.391 120.686C263.012 124.751 264.961 129.22 268.269 132.808C271.381 136.431 275.046 139.524 279.142 141.769C287.612 145.981 297.377 147.844 306.813 148.729C313.998 149.32 321.281 149.319 328.43 148.477C339.184 146.993 349.124 142.057 359.088 137.904C359.532 137.706 361.148 137.026 361.603 136.818C361.879 136.692 362.135 136.519 362.701 136.992C363.916 136.711 365.25 137.016 366.47 137.161C366.821 137.213 367.176 137.21 367.504 137.597L368.171 138.383C368.255 138.48 368.206 138.644 368.077 138.674C368.149 139.039 367.906 139.207 367.802 139.462C367.097 140.709 365.651 143.071 364.876 144.314C356.587 156.898 346.844 169.081 333.866 177.091C333.332 177.411 332.641 177.237 332.321 176.703C332.011 176.188 332.165 175.524 332.656 175.192C337.865 171.619 342.666 167.432 347.047 162.865C354.152 155.721 360.306 147.626 365.857 139.22L366.289 138.552C366.463 138.347 366.487 138.053 366.833 137.957L367.405 139.032C367.075 138.658 366.715 138.77 366.358 138.78C365.281 138.841 364.194 138.936 363.138 139.177L363.73 139.058C355.078 144.053 346.131 148.28 336.469 151.058C326.749 153.803 316.413 153.758 306.435 152.833C291.84 151.315 275.2 147.313 266.309 134.356C263.425 130.238 260.777 125.87 259.622 120.932C259.581 120.714 259.725 120.504 259.943 120.463C260.145 120.43 260.288 120.533 260.391 120.686Z" fill="#220664"/>
<path d="M352.188 135.153C356.015 135.932 360.009 136.523 364.028 136.13C365.273 136.087 366.663 136.153 367.982 136.814C371.719 138.655 371.99 143.478 370.638 146.852C370.575 147.017 370.392 147.102 370.226 147.04C370.093 146.993 370.024 146.872 370.013 146.742C369.469 143.363 368.301 139.853 364.267 140.156C360.995 140.429 357.495 140.74 354.288 139.756C353.217 139.455 352.054 139.17 351.507 137.171L351.241 136.202C351.07 135.627 351.603 135.041 352.188 135.153Z" fill="#220664"/>
<path d="M254.627 115.955C264.541 116.202 279.408 109.58 284.533 100.798C289.75 89.9721 275.213 79.2965 266.212 76.122C255.163 70.9712 240.522 73.4815 239.049 87.4862C238.368 96.2412 242.406 105.236 248.189 111.703C249.878 113.529 252.294 115.624 254.627 115.955ZM254.111 119.988C242.929 117.304 235.034 97.7525 236.872 87.2111C239.222 72.2358 254.679 68.0203 267.5 72.6967C283.04 78.7204 298.692 96.1734 280.954 109.771C275.916 113.805 270.199 116.772 264.039 118.682C260.941 119.581 257.753 120.379 254.111 119.988Z" fill="#220664"/>
<path d="M274.886 142.03C267.309 144.261 257.963 144.282 251.694 138.85C248.072 134.27 247.085 128.411 245.818 123.107C244.971 118.872 244.355 114.627 243.989 110.333C243.954 109.923 244.258 109.563 244.669 109.528C245.036 109.496 245.364 109.736 245.453 110.083C246.512 114.197 247.617 118.312 248.82 122.356C250.393 127.146 251.606 132.295 254.603 136.118C260.059 140.039 267.694 140.03 274.284 139.524C275.833 139.292 276.377 141.537 274.886 142.03Z" fill="#220664"/>
<path d="M267.36 141.773C267.871 146.061 268.466 150.666 270.069 154.635C270.323 155.193 270.673 155.857 271.114 156.232C274.245 157.495 277.886 157.477 281.27 157.811C287.907 158.216 294.639 158.311 301.286 158.156C321.118 156.901 341.074 153.911 359.736 147.033C360.535 146.871 361.339 147.41 361.433 148.234C361.513 150.071 358.937 150.311 357.715 150.993C354.562 152.245 351.363 153.369 348.123 154.381C330.819 159.525 312.605 162.292 294.532 161.636C286.562 161.168 278.468 161.09 270.759 158.665C267.233 157.006 267.293 151.849 266.721 148.615C266.473 146.354 266.351 144.103 266.334 141.834C266.348 141.193 267.274 141.13 267.36 141.773Z" fill="#220664"/>
<path d="M286.136 181.577C289.095 175.329 294.205 170.276 299.827 166.415C301.211 165.415 302.809 164.749 304.403 164.127C309.126 162.25 313.501 159.887 318.158 157.846C319.157 157.396 319.814 158.96 318.763 159.342C314.189 161.102 309.631 163.35 305.913 166.602C304.682 167.72 303.476 168.835 302.15 169.751C299.486 171.598 297.005 173.559 294.656 175.742C292.306 177.922 290.117 180.269 288.11 182.797C287.28 183.865 285.545 182.801 286.136 181.577Z" fill="#220664"/>
<path d="M337.191 174.215C336.755 175.361 336.851 174.936 336.777 174.994L336.626 174.942C328.949 172.39 321.772 174.839 316.487 180.847C315.801 181.634 314.575 180.588 315.271 179.787C317.441 177.422 319.497 175.086 322.081 173.136C326.257 170.224 331.71 169.647 336.586 170.749C336.957 170.85 337.677 171.003 338.037 171.131C338.083 171.227 338.302 170.842 337.986 172.032C337.914 172.477 337.33 173.769 337.191 174.215Z" fill="#220664"/>
<path d="M282.902 159.439C283.618 163.954 282.298 168.208 280.483 172.287C279.092 175.283 276.858 178.026 274.185 180.069C274.165 180.059 271.873 182.229 271.848 182.232C270.83 183.181 269.304 181.747 270.188 180.673C270.875 179.834 272.556 177.777 273.17 176.932C276.113 173.56 277.548 169.258 278.811 164.978C279.355 163.04 279.936 161.049 280.559 159.136C280.763 158.507 281.438 158.164 282.069 158.369C282.558 158.526 282.857 158.959 282.902 159.439Z" fill="#220664"/>
<path d="M342.113 169.043C339.974 165.052 337.025 161.186 333.152 160.822C328.836 160.185 324.722 161.569 320.949 163.72C312.992 168.417 305.937 174.728 300.266 182.041C299.987 182.393 299.474 182.453 299.122 182.175C298.806 181.924 298.727 181.484 298.914 181.142C300.079 179.032 301.426 177.024 302.848 175.063C310.086 165.929 323.137 152.931 335.856 157.777C337.742 158.61 339.439 160.02 340.587 161.659C342.121 163.809 343.02 166.185 343.379 168.692C343.431 169.054 343.18 169.389 342.819 169.441C342.51 169.485 342.234 169.31 342.113 169.043Z" fill="#220664"/>
<path d="M299.869 159.811C300.289 162.289 300.328 164.86 299.794 167.312L299.371 169.75C299.32 170.045 299.038 170.243 298.742 170.191C298.421 170.137 298.233 169.815 298.308 169.504C298.483 168.122 298.864 166.12 298.935 164.766C298.994 163.204 298.826 161.58 298.533 160.046C298.371 159.165 299.72 158.922 299.869 159.811Z" fill="#220664"/>
<path d="M305.495 159.775C305.495 159.775 305.402 161.457 305.37 162.621C305.339 163.784 305.029 165.441 305.029 165.441" stroke="#220664" stroke-width="1.35547" stroke-linecap="round" stroke-linejoin="round"/>
<path d="M280.527 300.258L280.382 332.658C280.382 332.658 267.169 336.418 265.948 337.44C264.727 338.461 262.673 361.641 262.847 371.473C263.019 381.307 263.743 397.281 267.232 401.226C270.721 405.169 276.767 407.739 276.767 407.739C276.767 407.739 272.628 483.028 277.502 498.543C280.992 509.652 288.876 529.574 306.44 540.548C306.44 540.548 314.966 545.224 320.618 546.361C326.269 547.497 334.166 548.346 334.166 548.346C343.671 548.675 351.764 548.445 358.799 547.414C358.799 547.414 367.39 546.402 372.779 544.356C378.169 542.31 385.151 538.071 385.151 538.071C385.151 538.071 394.943 530.386 400.038 517.389C399.962 507.618 402.208 497.968 406.788 489.051C406.442 489.143 406.246 489.193 406.246 489.193L413.018 420.636C413.018 420.636 452.642 423.595 458.97 416.046C465.295 408.499 471.246 334.203 471.657 328.562C472.066 322.922 477.699 246.922 470.648 237.621C459.081 222.359 408.257 212.138 408.257 212.138C408.257 212.138 421.25 204.605 423.905 197.333C426.559 190.06 425.485 182.125 421.915 179.489C418.345 176.852 411.409 176.927 411.409 176.927C420.401 163.136 433.624 139.872 434.811 120.772C438.713 58.0427 397.182 9.4668 334.299 9.4668C271.417 9.4668 236.979 53.3149 240.524 55.3996C244.068 57.4843 270.73 37.9967 324.446 43.0567C378.162 48.1166 404.877 76.4758 404.877 76.4758C404.877 76.4758 404.371 100.912 402.968 112.683C401.564 124.454 391.825 153.386 391.825 153.386C391.825 153.386 360.29 169.064 331.573 176.229C302.857 183.395 257.034 181.306 257.034 181.306L253.447 177.476L250.585 181.033C250.585 181.033 254.295 188.565 257.669 192.153C261.043 195.741 265.319 198.866 273.533 201.975C275.242 202.621 276.877 203.349 278.406 204.094C278.379 204.118 269.044 212.383 271.546 220.806C274.051 229.241 291.964 232.138 291.964 232.138L282.471 272.223L280.879 288.219L280.527 300.258Z" fill="#C6C3CC"/>
<path d="M286.371 363.176C286.371 363.176 275.271 374.642 286.371 379.473C297.471 384.303 295.954 368.208 295.954 368.208C295.954 368.208 295.768 363.176 291.07 363.176H286.371Z" fill="#BA8BF9"/>
<path d="M425.769 186.113C425.563 184.017 424.913 182.406 424.015 181.153C424.997 182.948 425.629 185.138 425.836 187.483C425.826 187.029 425.815 186.575 425.769 186.113Z" fill="#BA8BF9"/>
<path d="M344.088 223.47C360.183 219.585 381.382 215.034 381.382 215.034C381.382 215.034 383.714 211.371 381.716 207.154C379.718 202.936 374.932 199.827 374.932 199.827C374.932 199.827 353.753 207.886 329.552 209.518C329.522 209.519 329.492 209.523 329.463 209.524C302.555 212.397 288.553 209.523 288.553 209.523L277.768 204.757C275.943 206.717 270.822 212.681 271.545 217.218C272.422 222.723 273.14 228.848 291.133 231.987C291.133 231.987 283.852 230.576 280.117 228.577C280.117 228.577 327.993 227.354 344.088 223.47Z" fill="#BA8BF9"/>
<path d="M424.016 181.155C424.008 181.14 424.001 181.123 423.993 181.108C420.763 175.264 412.129 177.111 412.129 177.111C412.129 177.111 420.288 175.959 424.016 181.155Z" fill="#110331"/>
<path d="M332.361 548.275C332.361 548.275 334.166 548.344 341.98 548.484C345.748 548.55 354.514 548.544 361.911 546.982C369.853 545.305 376.313 542.063 376.313 542.063L385.743 537.575C395.173 532.346 400.053 517.351 400.053 517.351C400.053 517.351 400.219 517.301 400.537 517.2C400.926 513.819 401.897 510.437 403.443 507.055C403.321 507.107 403.249 507.137 403.249 507.137C405.32 500.329 413.016 420.636 413.016 420.636C413.016 420.636 453.417 421.448 458.968 416.046C464.517 410.645 466.885 381.342 471.917 331.32C476.948 281.298 470.648 239.303 470.648 239.303C470.648 239.303 469.995 234.681 448.24 235.273C426.484 235.864 418.048 241.488 418.048 241.488C417.751 229.945 406.282 213.221 406.282 213.221C406.282 213.221 413.111 208.94 419.912 202.994C424.615 198.881 426.305 192.787 425.836 187.483C426.33 206.636 397.244 218.111 374.982 224.616C352.191 231.277 309.125 235.124 291.134 231.986L290.853 236.828C290.853 236.828 326.883 241.785 342.745 241.34C358.605 240.895 383.3 233.35 383.3 233.35C383.3 233.35 390.936 289.863 390.2 359.439C389.739 402.947 377.499 500.847 368.899 515.499C360.298 530.15 345.532 534.589 323.111 535.478C300.69 536.366 287.322 520.633 287.322 520.633C287.322 520.633 296.102 532.888 302.7 538.07C309.299 543.253 321.113 546.503 321.113 546.503C321.113 546.503 324.672 547.549 326.578 547.806C328.484 548.064 332.361 548.275 332.361 548.275Z" fill="#747388"/>
<path d="M288.553 209.522C288.553 209.522 305.309 211.146 329.463 209.523C335.301 208.901 341.734 208.012 348.777 206.759C372.81 202.486 405.05 188.466 405.05 188.466L412.129 177.111C412.129 177.111 427.889 161.645 434.81 120.772C441.731 79.8983 411.753 44.1166 411.753 44.1166C411.753 44.1166 422.339 73.8068 416.79 118.46C414.701 135.26 401.918 165.42 396.369 171.821C390.818 178.223 369.395 192.058 327.217 197.275C285.038 202.492 257.667 192.153 257.667 192.153L272.385 202.381L277.768 204.759C278.157 204.341 278.405 204.094 278.405 204.094L288.553 209.522Z" fill="#747388"/>
<path d="M278.406 204.094C278.406 204.094 278.157 204.341 277.768 204.759L288.555 209.522L278.406 204.094Z" fill="#110331"/>
<path d="M374.983 224.616C397.247 218.111 426.33 206.635 425.836 187.483C425.629 185.138 424.999 182.948 424.016 181.153C420.288 175.958 412.13 177.11 412.13 177.11L405.049 188.465C405.049 188.465 372.81 202.484 348.777 206.759C341.735 208.012 335.302 208.9 329.464 209.523C329.494 209.52 329.522 209.519 329.552 209.518C353.753 207.886 374.932 199.827 374.932 199.827C374.932 199.827 379.718 202.936 381.716 207.152C383.714 211.371 381.382 215.033 381.382 215.033C381.382 215.033 360.183 219.585 344.088 223.47C327.993 227.354 280.118 228.577 280.118 228.577C283.854 230.576 291.134 231.985 291.134 231.985C309.126 235.124 352.192 231.276 374.983 224.616Z" fill="#6953A1"/>
<path d="M322.889 349.227L302.318 358.552C302.318 358.552 305.574 379.714 304.981 389.037C304.389 398.362 304.241 417.157 304.241 417.157C304.241 417.157 321.853 412.716 324.369 406.057C326.884 399.397 322.889 349.227 322.889 349.227Z" fill="#747388"/>
<path d="M256.586 181.253C256.586 181.253 232.021 154.319 229.948 121.761C227.877 89.2009 243.267 54.5714 243.267 54.5714C243.267 54.5714 278.49 37.1089 329.4 43.6206C380.31 50.1322 403.989 74.9942 404.877 76.4744C405.765 77.9532 405.469 98.9684 402.213 117.32C398.957 135.672 393.037 152.246 392.149 153.134C391.261 154.022 367.582 169.119 327.328 177.111C287.074 185.103 256.586 181.253 256.586 181.253Z" stroke="#110331" stroke-width="4.06641" stroke-miterlimit="10" stroke-linecap="round"/>
<path d="M242.456 56.5002C242.456 56.5002 239.271 56.0529 240.011 52.5016C240.751 48.9489 282.338 3.07169 344.644 10.1743C406.949 17.2784 438.324 70.5564 435.364 114.955C432.405 159.353 401.622 190.431 401.622 190.431" stroke="#110331" stroke-width="4.06641" stroke-miterlimit="10" stroke-linecap="round"/>
<path d="M253.901 178.046C253.901 178.046 251.407 177.998 250.666 180.513C249.926 183.029 254.071 191.022 265.764 198.274C277.455 205.526 285.743 207.449 291.07 211.15" stroke="#110331" stroke-width="4.06641" stroke-miterlimit="10" stroke-linecap="round"/>
<path d="M280.71 210.261C280.71 210.261 315.984 214.56 351.599 206.118C391.557 196.646 413.015 185.249 413.015 185.249" stroke="#110331" stroke-width="4.06641" stroke-miterlimit="10" stroke-linecap="round"/>
<path d="M278.954 205.219C278.954 205.219 270.201 209.965 271.682 219.437C273.162 228.908 290.033 238.824 349.526 229.796C409.02 220.768 426.187 202.269 426.04 188.95C425.892 175.631 412.425 176.965 412.425 176.965" stroke="#110331" stroke-width="4.06641" stroke-miterlimit="10" stroke-linecap="round"/>
<path d="M291.07 231.986C291.07 231.986 281.449 264.723 280.709 292.25C279.969 319.777 280.709 332.8 280.709 332.8" stroke="#110331" stroke-width="4.06641" stroke-miterlimit="10" stroke-linecap="round"/>
<path d="M276.124 407.98C276.124 407.98 273.608 479.017 276.124 492.336C278.639 505.656 289.441 549.462 341.831 549.462C394.221 549.462 400.734 519.864 404.878 499.146C409.022 478.426 418.346 356.776 418.789 340.792C419.234 324.808 419.677 242.674 416.569 233.35C413.462 224.024 405.308 213.785 405.308 213.785" stroke="#110331" stroke-width="4.06641" stroke-miterlimit="10" stroke-linecap="round"/>
<path d="M266.726 337.46C266.726 337.46 280.266 331.689 284.706 332.799C289.145 333.909 320.447 346.341 322.224 349.227C324 352.113 327.107 400.949 323.554 407.165C320.003 413.382 303.39 417.997 303.39 417.997" stroke="#110331" stroke-width="4.06641" stroke-miterlimit="10" stroke-linecap="round"/>
<path d="M303.39 417.997C306.73 415.388 304.685 362.546 302.021 358.55C299.358 354.554 269.61 336.722 266.725 337.462C263.839 338.202 259.671 389.792 266.725 400.581C270.498 406.352 301.022 419.847 303.39 417.997Z" stroke="#110331" stroke-width="4.06641" stroke-miterlimit="10" stroke-linecap="round"/>
<path d="M281.932 370.649C281.876 372.369 281.708 379.197 287.813 379.752C290.55 380 294.917 377.806 295.953 373.314C296.98 368.86 294.341 364.471 291.069 363.491C285.145 361.717 282.02 367.931 281.932 370.649Z" stroke="#110331" stroke-width="4.06641" stroke-miterlimit="10" stroke-linecap="round"/>
<path d="M267.114 360.383C267.114 360.383 267.279 356.22 270.498 356.387C273.716 356.554 273.718 359.384 273.718 359.384V372.148C273.718 372.148 273.662 377.062 269.944 377.088C266.226 377.113 266.775 372.259 266.775 372.259L267.114 360.383Z" fill="#110331"/>
<path d="M275.004 394.587C274.347 397.177 276.565 400.211 279.748 399.545C282.929 398.878 284.263 396.51 282.635 393.403C281.007 390.295 275.661 391.996 275.004 394.587Z" fill="#110331"/>
<path d="M407.851 212.376C407.851 212.376 458.968 223.137 469.623 235.791C480.279 248.444 468.069 408.498 458.968 416.046C449.866 423.594 413.015 420.635 413.015 420.635" stroke="#110331" stroke-width="4.06641" stroke-miterlimit="10" stroke-linecap="round"/>
<path d="M469.623 235.789C469.623 235.789 463.296 232.906 451.531 233.35C439.765 233.791 427.668 237.565 427.668 237.565C427.668 237.565 451.199 236.012 458.08 239.231C464.962 242.449 472.398 245.301 472.398 245.301L469.623 235.789Z" fill="#110331"/>
<path d="M316.285 352.723C316.534 353.056 312.122 356.098 308.514 357.689C304.904 359.281 302.702 360.657 302.702 360.657L301.521 357.441C301.521 357.441 304.022 356.425 307.962 354.787C311.902 353.15 316.035 352.39 316.285 352.723Z" fill="#110331"/>
<path d="M320.078 289.577C320.078 289.577 315.8 282.879 307.567 285.72C299.335 288.559 293.116 294.254 299.417 308.174C305.716 322.094 313.322 320.26 313.322 320.26L368.827 300.089L359.351 275.487L320.078 289.577Z" fill="#C6C3CC"/>
<path d="M316.375 310.223C315.331 310.298 314.989 311.185 309.976 303.679C304.962 296.175 306.785 288.027 306.785 288.027C306.785 288.027 299.85 287.501 297.897 293.098C294.357 303.248 303.439 319.357 310.763 320.532C317.728 321.649 364.035 302.685 368.025 301.013C368.025 301.013 366.342 296.721 361.108 295.261C355.873 293.8 318.079 310.099 316.375 310.223Z" fill="#747388"/>
<path d="M320.37 289.541L355.096 276.804" stroke="#110331" stroke-width="4.06641" stroke-miterlimit="10" stroke-linecap="round"/>
<path d="M323.328 298.933C323.328 298.933 321.649 281.248 307.585 285.771C293.521 290.293 296.92 301.214 296.92 301.214C296.92 301.214 302.058 320.552 311.585 320.451C321.112 320.349 362.271 302.4 362.271 302.4" stroke="#110331" stroke-width="4.06641" stroke-miterlimit="10" stroke-linecap="round"/>
</g>
</svg>
