<svg width="406" height="406" viewBox="0 0 406 406" fill="none" xmlns="http://www.w3.org/2000/svg">
<mask id="mask0_3_492" style="mask-type:luminance" maskUnits="userSpaceOnUse" x="0" y="0" width="406" height="406">
<path d="M405.502 108.575L108.841 0.598877L0.865537 297.26L297.527 405.236L405.502 108.575Z" fill="white"/>
</mask>
<g mask="url(#mask0_3_492)">
<mask id="mask1_3_492" style="mask-type:luminance" maskUnits="userSpaceOnUse" x="-26" y="-10" width="471" height="472">
<path d="M99.5461 -9.01793L444.299 116.462L318.819 461.214L-25.9335 335.735L99.5461 -9.01793Z" fill="white"/>
</mask>
<g mask="url(#mask1_3_492)">
<path d="M122.409 299.193C124.631 287.25 122.502 279.749 118.582 268.229C116.857 263.159 114.839 257.217 112.374 251.845C109.237 245.01 105.641 238.972 103.902 235.441C100.795 229.135 93.9008 222.846 89.8622 229.87C85.8233 236.895 84.8515 243.272 90.3404 246.272C93.6267 248.069 95.4178 256.187 95.9575 260.756C96.965 269.29 95.6624 277.411 95.6624 277.411C95.6609 278.442 95.6419 281.052 95.4864 282.502C95.2019 285.151 93.9128 288.016 93.1796 290.402C90.9944 297.513 84.7112 297.386 84.162 307.263C83.9395 311.262 86.4473 315.442 90.8811 317.31C90.8811 317.31 96.4829 319.584 98.8157 319.195C101.148 318.805 106.258 318.301 106.258 318.301C106.258 318.301 116.159 314.426 118.685 308.875C121.21 303.322 122.409 299.193 122.409 299.193Z" fill="#505050"/>
<path d="M106.032 303.455C98.5519 314.11 84.2414 306.262 84.2414 306.262C84.2414 306.262 83.1295 317.605 98.1082 319.187C98.1082 319.187 102.112 319.663 106.052 318.143C109.992 316.623 115.467 314.518 118.289 309.485C121.111 304.453 122.86 298.206 123.048 289.424C123.191 282.8 118.555 267.97 117.278 264.419C113.031 252.615 111.311 249.427 111.311 249.427C111.311 249.427 105.792 236.859 102.705 233.311C99.6176 229.764 99.4708 228.333 95.9142 227.058C92.3586 225.782 89.8631 229.869 89.8631 229.869C89.8631 229.869 98.886 236.532 101.882 243.438C104.878 250.342 111.755 271.853 111.723 277.066C111.692 282.277 112.281 290.431 110.305 295.264C108.329 300.097 107.691 301.092 106.032 303.455Z" fill="#342E2E"/>
<path d="M117.558 262.064C120.715 270.968 123.729 280.096 124.038 289.672C124.237 299.099 121.888 309.89 113.633 315.571C104.384 322.094 85.07 322.764 83.6834 308.302C83.4193 305.232 83.9547 301.94 85.7695 299.354C86.9535 297.936 88.2531 296.952 89.2824 295.429C93.4733 289.848 95.2323 282.924 95.7566 276.053C96.3307 269.143 95.9942 262.063 94.0654 255.383C93.0863 252.128 91.7866 248.859 89.4546 246.376C88.626 245.471 87.4945 244.958 86.8132 243.906C85.3197 241.726 85.333 239.003 85.7942 236.547C86.7347 230.756 92.826 222.711 98.9196 227.944C101.568 230.388 103.613 233.444 105.534 236.451C110.484 244.531 114.245 253.213 117.558 262.064ZM115.518 262.789C112.431 254.028 108.842 245.326 104.097 237.333C102.298 234.403 100.374 231.524 97.8813 229.16C91.1278 223.509 84.4316 237.993 88.0035 243.073C88.6356 244.009 89.7578 244.528 90.4864 245.382C94.5534 249.925 95.9216 256.139 96.8149 261.983C97.4677 266.686 97.5385 271.451 97.1525 276.174C96.6317 283.316 94.8133 290.479 90.5118 296.327C89.3015 298.264 87.1372 299.548 86.2442 301.663C84.5415 305.661 84.9257 310.788 87.7049 314.128C93.2452 320.658 106.324 318.562 112.567 314.061C120.227 308.677 122.226 298.606 122.003 289.714C121.666 280.469 118.528 271.51 115.518 262.789Z" fill="#110331"/>
<path d="M258.697 192.409C258.415 193.185 275.088 201.381 275.088 201.381L283.226 205.743C283.226 205.743 280.989 209.604 285.869 212.875C290.748 216.146 293.725 213.937 293.725 213.937C293.725 213.937 294.982 213.31 296.632 211.112C298.75 208.29 301.315 203.452 300.55 200.103C300.55 200.103 299.555 207.205 295.083 208.528C290.611 209.85 287.519 207.854 286.719 205.047C285.919 202.24 288.014 199.534 286.977 199.07C285.94 198.606 283.753 200.325 283.753 200.325C283.753 200.325 272.979 195.362 268.257 193.557C263.535 191.752 258.98 191.633 258.697 192.409Z" fill="#2F2928"/>
<path d="M257.705 191.279L283.444 206.468C283.444 206.468 281.058 211.849 289.398 214.36C297.737 216.871 303.381 201.83 299.771 198.557C296.16 195.285 265.903 177.93 265.903 177.93L257.705 191.279Z" fill="#505050"/>
<path d="M265.59 178.443L286.774 190.324C286.774 190.324 299.92 197.87 300.441 200.539C300.962 203.208 300.182 206.819 297.558 210.554C294.934 214.288 293.698 214.537 290.725 214.714C289.125 214.81 287.5 213.601 287.5 213.601C287.5 213.601 289.695 214.407 292.7 210.332C295.704 206.257 296.261 201.613 295.595 200.593C295.308 200.154 290.904 196.518 285.103 192.922C277.477 188.195 267.921 183.175 266.961 181.981C265.727 180.447 265.59 178.443 265.59 178.443Z" fill="#2F2828"/>
<path d="M283.421 206.075L257.629 190.753" stroke="#110331" stroke-width="3.14467" stroke-miterlimit="10" stroke-linecap="round"/>
<path d="M286.42 201.556C286.42 201.556 279.423 208.399 286.231 212.86C293.038 217.32 296.541 212.082 296.541 212.082C296.541 212.082 303.048 203.186 299.705 199.139C296.363 195.092 265.589 178.442 265.589 178.442" stroke="#110331" stroke-width="3.14467" stroke-miterlimit="10" stroke-linecap="round"/>
<path d="M124.69 288.123L114.965 316.385C114.965 316.385 109.215 315.125 108.426 323.799C107.637 332.472 123.503 334.988 125.987 330.795C128.469 326.602 139.41 293.481 139.41 293.481L124.69 288.123Z" fill="#505050"/>
<path d="M135.715 302.348L131.448 316.412C131.448 316.412 126.69 330.804 124.18 331.849C121.669 332.895 117.974 332.853 113.79 331.031C109.605 329.208 109.114 328.047 108.344 325.17C107.93 323.62 108.789 321.786 108.789 321.786C108.789 321.786 108.439 324.098 113.033 326.227C117.627 328.354 122.291 327.969 123.155 327.112C124.021 326.256 129.109 313.435 130.053 311.468C130.997 309.502 133.726 302.003 134.463 301.588C135.2 301.173 135.715 302.348 135.715 302.348Z" fill="#2F2828"/>
<path d="M121.675 297.948L115.346 316.283" stroke="#110331" stroke-width="3.14467" stroke-miterlimit="10" stroke-linecap="round"/>
<path d="M120.374 318.316C120.374 318.316 112.268 312.832 109.262 320.395C106.256 327.959 112.089 330.34 112.089 330.34C112.089 330.34 122.109 334.933 125.405 330.848C128.7 326.763 136.002 301.58 136.002 301.58" stroke="#110331" stroke-width="3.14467" stroke-miterlimit="10" stroke-linecap="round"/>
<path d="M237.616 122.568C237.048 121.848 232.872 116.574 228.554 111.834C226.69 109.787 223.216 107.003 219.9 104.917C214.954 101.806 211.242 98.7638 211.904 98.3927C214.76 96.7915 226.249 99.3865 233.19 102.801C239.864 106.085 247.354 113.661 248.646 115.658C249.938 117.654 255.501 130.533 250.62 134.007C248.032 135.85 244.542 131.271 241.907 128.01C239.658 125.231 237.616 122.568 237.616 122.568Z" fill="#505050"/>
<path d="M244.754 117.761C243.683 116.645 236.922 109.614 232.896 105.931C228.513 101.923 211.903 98.3934 211.903 98.3934L214.158 97.8874L218.608 98.1593C218.608 98.1593 221.845 98.4787 226.33 99.9439C228.612 100.689 231.084 101.997 233.892 103.164C241.69 106.407 247.853 114.567 248.605 115.592C248.605 115.592 249.806 117.308 250.597 119.325C250.992 120.333 252.332 124.613 252.469 125.438C252.664 126.605 252.19 132.917 251.318 133.602C250.339 134.368 249.835 132.261 249.015 126.599C248.195 120.938 244.754 117.761 244.754 117.761Z" fill="#2E2828"/>
<path d="M226.818 110.137C220.51 104.99 211.421 99.502 211.904 98.3942C212.386 97.2856 225.428 97.3014 237.465 105.311C246.045 111.02 248.683 115.7 248.683 115.7C248.683 115.7 252.628 122.428 252.587 129.234C252.547 136.042 248.072 135.719 242.961 129.316C239.044 124.408 233.126 115.285 226.818 110.137Z" stroke="#110331" stroke-width="3.14467" stroke-miterlimit="10" stroke-linecap="round"/>
<path d="M119.17 285.823C116.73 278.417 112.382 274.481 112.382 274.481L108.369 257.078L138.501 233.688L159.237 236.029L169.476 237.934L171.749 238.052L174.413 237.553L178.158 235.862C183.166 233.861 188.595 224.134 188.595 224.134L196.087 210.62L203.799 196.097L208.495 185.413L211.65 175.3L212.965 168.042L215.209 151.893C215.209 151.893 216.71 139.387 223.369 130.783C229.643 122.676 240.514 119.193 241.749 118.818C241.749 118.818 246.314 117.686 248.544 117.326C250.773 116.967 254.779 116.433 254.779 116.433C255.618 116.25 261.219 115.253 270.626 118.79C280.855 122.634 285.064 128.174 290.712 134.534C296.358 140.895 297.862 148.51 298.141 158.527C298.324 165.112 295.851 172.378 293.237 177.729C291.874 180.519 290.473 182.789 289.389 184.171C286.227 188.204 275.807 201.492 275.807 201.492L271.076 209.154C271.076 209.154 262.472 224.982 261.391 227.142C260.309 229.301 252.938 245.656 252.938 245.656L247.473 259.643C247.473 259.643 243.502 270.538 238.906 278.792C234.309 287.046 227.999 294.299 221.008 302.055C214.016 309.81 204.05 317.145 200.302 319.559C196.554 321.973 189.931 323.786 180.845 325.749C171.758 327.711 158.147 326.052 158.147 326.052C158.147 326.052 154.476 325.496 151.02 324.757C147.565 324.018 143.188 322.428 143.188 322.428C143.188 322.428 139.37 320.658 135.235 318.056C131.101 315.454 128.922 312.467 125.437 306.9C121.952 301.332 121.609 293.228 119.17 285.823Z" fill="#505050"/>
<path d="M206.396 315.204C227.621 298.209 231.914 289.451 233.31 287.456C234.705 285.462 242.132 274.66 243.9 269.447C245.667 264.234 258.267 232.494 261.746 226.49C263.425 223.592 266.617 216.885 270.752 209.791C275.48 201.68 281.398 193.283 284.555 189.567C290.52 182.547 292.903 180.837 292.903 180.837L282.914 175.483C282.914 175.483 278.166 171.365 271.243 174.832C264.32 178.298 249.887 204.365 246.193 213.085C242.499 221.805 226.523 261.648 218.453 273.807C210.384 285.966 196.531 304.956 185.356 309.914C174.387 314.781 152.36 315.93 144.962 308.725C134.611 298.647 141.179 287.5 133.771 284.804C120.859 280.104 120.95 292.745 120.95 292.745C120.95 292.745 121.277 314.552 148.055 324.201C174.833 333.85 206.396 315.204 206.396 315.204Z" fill="#F8BC64"/>
<path d="M147.243 236.089L109.215 269.554C111.344 273.516 114.876 276.889 116.107 278.863C117.998 281.893 119.45 284.637 119.45 284.637C119.45 284.637 125.976 276.62 130.841 273.451C135.708 270.282 141.654 267.891 141.654 267.891C141.654 267.891 149.141 281.288 159.244 283.924C169.346 286.559 177.633 283.459 177.633 283.459L163.472 242.451L147.243 236.089Z" fill="#342E2E"/>
<path d="M122.513 286.48C119.491 290.404 120.95 292.745 120.95 292.745C121.544 295.92 122.299 299.44 123.227 302.265C123.65 303.494 124.117 304.573 124.616 305.287C125.322 306.3 126.001 307.574 126.816 308.97C128.91 312.089 131.159 315.188 134.276 317.413C134.352 317.466 134.424 317.52 134.502 317.573C134.742 317.739 134.985 317.901 135.236 318.057C139.827 320.899 143.345 322.486 143.345 322.486C143.345 322.486 149.479 324.473 152.027 324.994C154.575 325.515 158.147 326.053 158.147 326.053C158.147 326.053 174.278 329.826 196.206 321.583C203.945 318.674 220.13 304.882 229.168 292.873C239.389 279.293 244.99 266.46 244.99 266.46L253.101 245.12L261.109 227.646L269.947 210.994L275.807 201.493L280.037 195.666L286.051 187.964L289.932 183.737L292.903 180.836L287.658 178.025L282.915 175.483C282.915 175.483 278.413 174.86 273.117 181.782C267.822 188.704 258.139 207.564 252.323 221.932C246.507 236.3 234.838 266.93 228.65 276.304C222.462 285.677 208.261 305.149 197.087 310.105C185.913 315.061 165.973 318.714 160.274 318.461C154.574 318.209 151.283 317.597 145.898 314.985C140.512 312.375 134.696 304.004 133.297 299.077C129.906 287.14 129.106 283.769 129.106 283.769C129.106 283.769 125.535 282.556 122.513 286.48Z" fill="#A86D38"/>
<path d="M112.382 274.481C112.382 274.481 119.291 280.705 120.287 288.16C121.282 295.615 123.261 312.104 139.547 320.754C140.729 321.381 148.434 324.888 158.031 326.038C174.655 328.03 190.913 324.92 204.736 316.62C218.559 308.319 238.008 286.477 246.402 262.636C254.795 238.796 264.261 219.742 271.692 208.104C280.621 194.122 288.144 189.952 292.797 178.608C295.72 171.483 297.569 164.821 297.999 158.533C298.589 149.904 296.505 141.975 290.85 134.508C289.149 132.261 287.124 130.056 284.752 127.887C274.354 118.375 257.946 112.144 236.19 121.144C214.435 130.143 215.41 153.923 212.458 171.329C209.507 188.736 198.761 205.387 189.228 222.999C179.694 240.612 169.476 237.934 169.476 237.934C169.476 237.934 134.822 217.195 116.488 239.56C101.724 257.57 112.382 274.481 112.382 274.481Z" stroke="#110331" stroke-width="3.14467" stroke-miterlimit="10" stroke-linecap="round"/>
<path d="M150.411 301.042L140.686 329.304C140.686 329.304 134.936 328.044 134.148 336.717C133.359 345.39 149.225 347.907 151.708 343.714C154.191 339.521 165.132 306.4 165.132 306.4L150.411 301.042Z" fill="#505050"/>
<path d="M161.437 315.267L157.17 329.33C157.17 329.33 152.412 343.722 149.901 344.768C147.39 345.813 143.696 345.772 139.511 343.95C135.327 342.127 134.836 340.966 134.066 338.088C133.651 336.539 134.51 334.705 134.51 334.705C134.51 334.705 134.161 337.017 138.754 339.145C143.348 341.272 148.012 340.887 148.877 340.031C149.742 339.174 154.831 326.354 155.775 324.387C156.718 322.42 159.447 314.922 160.184 314.507C160.921 314.092 161.437 315.267 161.437 315.267Z" fill="#2F2828"/>
<path d="M147.397 310.867L141.067 329.201" stroke="#110331" stroke-width="3.14467" stroke-miterlimit="10" stroke-linecap="round"/>
<path d="M146.095 331.235C146.095 331.235 137.989 325.751 134.984 333.314C131.978 340.877 137.811 343.259 137.811 343.259C137.811 343.259 147.831 347.852 151.126 343.767C154.421 339.681 161.723 314.499 161.723 314.499" stroke="#110331" stroke-width="3.14467" stroke-miterlimit="10" stroke-linecap="round"/>
<path d="M280.397 174.4L301.386 186.786C301.386 186.786 299 192.167 307.339 194.678C315.679 197.189 321.323 182.148 317.712 178.875C314.102 175.603 289.27 161.912 289.27 161.912L280.397 174.4Z" fill="#505050"/>
<path d="M288.925 161.786L304.714 170.643C304.714 170.643 317.861 178.188 318.382 180.857C318.903 183.526 318.123 187.137 315.499 190.871C312.875 194.606 311.64 194.854 308.666 195.032C307.065 195.127 305.44 193.919 305.44 193.919C305.44 193.919 307.636 194.725 310.64 190.651C313.645 186.576 314.202 181.93 313.536 180.912C313.249 180.471 308.845 176.836 303.044 173.239C295.419 168.512 291.392 166.633 290.431 165.44C289.197 163.906 288.925 161.786 288.925 161.786Z" fill="#2F2828"/>
<path d="M301.362 186.393L280.535 174.019" stroke="#110331" stroke-width="3.14467" stroke-miterlimit="10" stroke-linecap="round"/>
<path d="M304.361 181.874C304.361 181.874 297.364 188.716 304.171 193.176C310.979 197.637 314.481 192.4 314.481 192.4C314.481 192.4 320.989 183.504 317.646 179.457C314.304 175.41 288.924 161.786 288.924 161.786" stroke="#110331" stroke-width="3.14467" stroke-miterlimit="10" stroke-linecap="round"/>
<path d="M160.237 241.803C160.237 241.803 151.392 256.873 141.31 262.284C134.783 265.787 126.152 267.683 126.152 267.683L110.628 275.4C110.628 275.4 106.437 276.161 103.41 276.549C100.383 276.938 95.3484 276.857 95.3484 276.857C94.0983 276.394 89.4867 274.662 88.0534 273.82C87.3733 273.421 83.1115 269.448 83.1115 269.448L85.4636 268.029L84.1686 265.072C84.1686 265.072 76.7217 268.08 73.8388 266.812C70.9557 265.544 63.0499 254.032 63.0499 254.032C63.0499 254.032 52.7491 246.368 53.0595 238.584C53.1098 237.319 53.2636 235.94 53.975 234.708C55.4267 232.193 56.2863 231.443 57.612 230.407C58.9376 229.372 63.3007 228.089 63.3007 228.089L62.8725 224.911L70.3185 220.144L73.0766 215.165L77.8402 210.132C77.8402 210.132 85.1131 203.606 95.1637 200.07C110.27 194.755 121.495 195.378 123.696 195.543C129.458 195.977 138.449 198.909 143.771 202.305C150.273 206.456 156.582 217.105 159.238 225.88C161.284 232.636 160.237 241.803 160.237 241.803Z" fill="#505050"/>
<path d="M68.9089 255.423C68.9089 255.423 63.5893 254.358 59.1413 250.622C54.7998 246.975 50.5874 239.656 54.7027 233.477C61.8405 222.76 81.8315 229.581 83.6149 235.934C85.3979 242.285 76.935 253.866 68.9089 255.423Z" fill="#3D3837"/>
<path d="M73.7686 228.319C73.7686 228.319 77.056 235.154 70.7511 242.43C65.7095 248.248 57.8293 249.399 57.8293 249.399C57.8293 249.399 64.993 257.148 70.2932 255.333C75.5931 253.52 79.8426 247.935 81.2473 245.251C82.6521 242.567 84.3789 239.456 83.6733 236.16C82.6707 231.478 73.7686 228.319 73.7686 228.319Z" fill="#2B2021"/>
<path d="M56.968 238.031C55.8973 237.491 56.6292 235.647 58.5877 233.682C60.5462 231.717 65.0332 229.663 66.4114 232.666C67.7897 235.669 63.418 233.976 61.3516 235.406C59.2845 236.835 58.0386 238.572 56.968 238.031Z" fill="#666666"/>
<path d="M70.7804 255.052C70.3507 255.208 69.9124 255.354 69.4549 255.48C69.7752 255.414 70.2308 255.271 70.7804 255.052Z" fill="#EFBC72"/>
<path d="M73.3312 266.565C73.4445 266.606 73.5596 266.639 73.6743 266.674C71.2971 265.13 67.6606 260.477 65.477 257.513C67.6531 261.083 70.8462 265.678 73.3312 266.565Z" fill="#EFBC72"/>
<path d="M62.9919 253.14C62.9919 253.14 63.3735 253.878 64.0104 255.01C64.5091 255.109 65.4349 255.282 66.4189 255.408C64.3612 254.76 62.9919 253.14 62.9919 253.14Z" fill="#EFBC72"/>
<path d="M66.4182 255.407C67.3179 255.69 68.3493 255.787 69.4556 255.481C68.7286 255.633 67.5352 255.55 66.4182 255.407Z" fill="#666666"/>
<path d="M63.6291 254.931C63.6291 254.931 64.3653 256.004 65.4768 257.514C64.909 256.581 64.41 255.718 64.0113 255.009C63.771 254.962 63.6291 254.931 63.6291 254.931Z" fill="#666666"/>
<path d="M157.472 218.081C159.644 223.735 160.464 226.856 160.464 226.856L154.583 232.644C154.258 233.078 153.361 234.156 151.835 235.173C151.116 234.166 149.025 220.556 144.407 210.345C141.033 202.883 134.666 197.843 134.666 197.843C134.666 197.843 142.099 201.102 145.065 203.144C151.265 207.411 155.3 212.428 157.472 218.081Z" fill="#342E2E"/>
<path d="M151.836 235.173L152.111 235.562L152.108 235.563C152.017 235.431 151.926 235.299 151.836 235.173C150.745 235.899 147.916 236.399 145.706 236.105C143.497 235.812 139.324 233.563 136.027 234.177C132.81 234.777 131.02 237.495 128.661 239.682C126.302 241.868 117.916 249.34 109.712 249.559C96.3693 249.915 83.1081 241.9 83.1081 241.9C83.1081 241.9 82.8463 242.782 82.2266 244.105C82.2236 244.114 82.2216 244.119 82.2216 244.119C82.2216 244.119 88.0044 248.088 94.66 250.55C101.315 253.012 109.476 253.799 116.371 251.186C116.57 251.111 116.77 251.032 116.971 250.954C117.024 252.883 119.376 257.712 119.622 258.449C119.93 259.366 117.283 261.473 114.669 262.8C112.056 264.125 105.775 265.49 101.551 266.169C97.3252 266.848 94.9091 265.484 90.4684 266.43C86.0276 267.377 83.111 269.447 83.111 269.447L86.3503 272.727L91.6945 275.781L98.6464 277.161L108.228 275.931L117.635 271.923L125.777 268.034C125.777 268.034 129.665 267.249 137.069 264.149C142.146 262.024 148.312 258.48 151.264 255.224C156.205 249.774 160.183 241.102 160.183 241.102L160.049 239.339L158.174 227.873C157.85 228.308 153.362 234.156 151.836 235.173Z" fill="#F8BC64"/>
<path d="M116.371 251.186C109.476 253.8 101.315 253.012 94.6591 250.55C88.0034 248.089 82.2207 244.119 82.2207 244.119C82.2207 244.119 82.2236 244.114 82.2266 244.105C80.7833 247.189 77.3854 252.674 70.7813 255.052C70.2315 255.271 69.7752 255.414 69.4549 255.48C68.3484 255.788 67.3181 255.69 66.4185 255.407C65.4342 255.281 64.5093 255.109 64.0104 255.01C64.4093 255.718 64.9083 256.58 65.4763 257.513C67.6603 260.478 71.2971 265.13 73.6736 266.673C80.0367 268.628 86.6432 263.315 86.6432 263.315C86.6432 263.315 89.7104 264.319 95.9554 262.922C99.3911 262.154 104.714 260.365 108.932 258.17C114.879 255.074 117.885 256.941 117.163 260.233C116.803 261.873 114.669 262.8 114.669 262.8C114.669 262.8 112.64 263.902 108.345 264.816C104.048 265.73 112.193 265.433 117.182 263.318C125.739 259.687 123.266 248.572 116.371 251.186Z" fill="#A86D38"/>
<path d="M132.629 265.9C133.998 265.509 135.335 265.082 136.574 264.565C140.456 262.944 143.545 261.024 144.694 260.273C142.221 261.767 139.519 263.124 137.069 264.149C135.411 264.843 133.931 265.421 132.629 265.9Z" fill="#A86D38"/>
<path d="M160.027 224.263C159.703 224.698 153.361 234.156 151.835 235.173C151.835 235.173 151.927 235.282 152.06 235.49L152.11 235.562L152.107 235.564C152.102 235.555 152.096 235.547 152.09 235.539C152.717 236.544 154.122 239.568 151.84 243.881C149.015 249.223 144.211 254.505 135.336 258.539C126.461 262.572 121.448 263.782 116.451 266.22C111.453 268.658 103.358 273.547 98.7973 273.243C94.2524 272.939 86.2773 267.819 86.2255 267.785C86.2171 267.789 86.2082 267.792 86.2004 267.796L83.1178 269.454L86.3369 272.714C86.3453 272.721 86.3537 272.728 86.3624 272.734L91.6938 275.781L96.8964 276.813C101.005 276.8 107.654 275.735 113.049 273.714C118.155 271.803 122.002 268.968 126.152 267.682C128.211 267.045 130.459 266.52 132.629 265.9C133.931 265.421 135.411 264.843 137.069 264.149C139.518 263.123 142.221 261.768 144.694 260.273C145.009 260.067 145.179 259.949 145.179 259.949C145.179 259.949 150.136 256.618 153.171 252.912C153.582 252.372 153.982 251.82 154.368 251.262C157.087 247.052 160.182 241.103 160.182 241.103L161.497 232.991L160.027 224.263Z" fill="#A86D38"/>
<path d="M85.4638 268.029C85.4638 268.029 88.6443 266.042 93.7398 266.264C96.6362 266.39 99.3494 266.358 101.877 266.104C103.794 265.911 105.605 265.589 107.309 265.11C111.257 264.002 116.497 262.935 117.341 260.075C118.184 257.215 115.115 256.049 112.593 256.83C110.07 257.61 100.777 261.723 97.4273 262.508C95.8824 262.87 93.5477 263.483 91.4391 263.602C88.9738 263.742 86.8334 263.354 86.8334 263.354L84.0943 264.828L85.4638 268.029Z" fill="white"/>
<path d="M131.032 210.543C131.032 210.543 130.117 207.634 129.645 206.75C129.173 205.867 127.675 203.651 127.675 203.651L121.66 204.372L117.022 205.153C117.022 205.153 119.749 207.829 120.222 209.986C120.693 212.145 120.968 215 120.968 215L126.643 212.758L131.032 210.543Z" fill="white"/>
<path d="M81.3308 215.952L88.6083 213.846L90.0367 215.259L91.9502 218.623L93.2643 223.082L85.0968 226.902L85.3638 223.341L84.5024 220.28L83.2061 217.948L81.3308 215.952Z" fill="white"/>
<path d="M117.941 240.24C117.941 240.24 113.697 232.517 102.843 229.454C91.989 226.391 84.7425 227.354 84.7425 227.354L77.4188 230.041L79.3589 230.968L81.0135 232.195L82.5848 232.476L93.8217 234.457L103.964 235.81L112.367 237.956L117.941 240.24Z" fill="#342E2E"/>
<path d="M118.934 207.423C115.538 208.168 111.857 209.079 108.913 210.066C102.664 212.161 97.773 214.097 96.2638 214.706L96.3525 216.487L97.4389 219.756L98.4336 221.419L105.123 220.104L109.615 218.979L116.024 217.023L120.967 215L120.754 211.692L120.044 209.399L118.934 207.423Z" fill="#5FAFF0"/>
<path d="M118.934 207.423L118.905 207.373L117.1 205.245C115.009 205.656 112.758 206.158 110.489 206.766C108.403 207.325 106.48 207.941 104.756 208.555L100.829 210.119L96.1434 212.273L96.2638 214.706C97.773 214.097 102.664 212.161 108.914 210.066C111.858 209.079 115.538 208.168 118.934 207.423Z" fill="#3970B2"/>
<path d="M75.5091 221.13C70.5821 223.119 64.2508 226.756 63.2026 227.364L63.3 228.089L66.2982 227.873L69.3076 227.918L73.3345 228.45L77.4188 230.041L82.3534 228.207L85.0968 226.902L85.4177 224.186L84.6998 220.6L83.5513 218.484C80.7806 219.279 77.7534 220.225 75.5091 221.13Z" fill="#5FAFF0"/>
<path d="M83.5522 218.484L83.3423 218.098L81.3318 215.952L77.3116 217.154C76.2786 217.527 75.2457 217.926 74.2461 218.347L71.2298 219.797L67.019 222.111L62.8727 224.91L63.2029 227.363C64.2504 226.755 70.5821 223.119 75.5094 221.13C77.753 220.224 80.7813 219.279 83.5522 218.484Z" fill="#3970B2"/>
<path d="M115.793 217.13C116.389 215.512 116.506 213.7 116.022 211.908C115.339 209.383 113.602 207.425 111.412 206.381L105.775 208.175L99.8981 210.517C99.0682 212.295 98.8373 214.365 99.3901 216.407C99.8687 218.177 100.866 219.669 102.174 220.762L109.602 218.891L115.793 217.13Z" fill="#110331"/>
<path d="M65.925 222.756C65.609 224.011 65.601 225.365 65.9642 226.708C66.0719 227.107 66.2086 227.491 66.3706 227.857C66.3706 227.857 69.3943 227.762 72.4876 228.269C74.4315 228.588 76.2534 229.572 77.5338 230.006L79.6063 229.192C80.0623 228.534 80.4154 227.804 80.6498 227.031C81.0602 225.678 81.1078 224.192 80.7091 222.719C80.0539 220.295 78.3347 218.447 76.2031 217.557L70.6475 219.972L65.925 222.756Z" fill="#110331"/>
<path d="M88.6347 213.932C90.6 215.828 92.0954 218.272 92.8633 221.109C93.0476 221.789 93.1781 222.447 93.2643 223.082" stroke="#110331" stroke-width="2.09645" stroke-miterlimit="10" stroke-linecap="round"/>
<path d="M62.9697 228.261C62.8581 227.731 62.6308 225.543 62.6321 224.984" stroke="#110331" stroke-width="2.09645" stroke-miterlimit="10" stroke-linecap="round"/>
<path d="M81.2689 215.951C83.0256 217.335 84.362 219.261 84.9852 221.564C85.4887 223.425 85.4658 225.307 85.0062 227.059" stroke="#110331" stroke-width="2.09645" stroke-miterlimit="10" stroke-linecap="round"/>
<path d="M97.1053 221.722C96.7997 220.993 96.5384 220.235 96.3263 219.451C95.6696 217.025 95.5183 214.769 95.8536 212.43" stroke="#110331" stroke-width="2.09645" stroke-miterlimit="10" stroke-linecap="round"/>
<path d="M127.675 203.652C129.141 205.502 130.262 207.673 130.918 210.095C130.977 210.315 131.032 210.535 131.082 210.754" stroke="#110331" stroke-width="2.09645" stroke-miterlimit="10" stroke-linecap="round"/>
<path d="M117.022 205.153C118.664 206.68 119.912 208.671 120.541 210.995C120.925 212.416 121.047 213.847 120.934 215.234" stroke="#110331" stroke-width="2.09645" stroke-miterlimit="10" stroke-linecap="round"/>
<path d="M80.8225 231.703C88.65 233.277 96.6546 233.307 104.528 234.741C109.304 235.686 113.889 237.388 118.279 239.453C119.247 239.926 118.629 241.408 117.604 241.028C114.646 239.964 111.633 238.96 108.627 238.087C102.553 236.274 96.2314 235.907 89.9738 234.738C86.8155 234.128 83.6952 233.385 80.6439 232.301C80.2933 232.177 80.4344 231.609 80.8225 231.703Z" fill="#110331"/>
<path d="M69.5396 254.342C75.1966 252.236 82.2158 244.817 83.0213 238.689C83.4966 231.292 72.6797 228.535 66.8036 228.838C59.2901 228.549 51.6119 233.37 53.9986 241.729C55.6541 246.91 60.0193 251.05 64.8148 253.407C66.2285 254.066 68.0879 254.701 69.5396 254.342ZM70.1103 256.469C67.8187 256.917 65.8664 256.098 63.9539 255.15C58.8396 252.334 54.4254 247.757 52.8507 242.039C50.7902 233.304 57.907 227.578 65.9158 226.91C66.1912 226.886 66.4677 226.869 66.7449 226.858C76.8732 226.672 89.6976 232.774 82.8629 244.53C80.9525 247.964 78.4072 250.958 75.3772 253.452C73.8383 254.672 72.2235 255.853 70.1103 256.469Z" fill="#110331"/>
<path d="M87.2467 263.918C83.6155 266.845 78.8466 268.901 74.1086 268.023C73.1014 267.823 72.1835 267.129 71.5113 266.558C69.4279 264.711 67.8727 262.544 66.315 260.306C64.8226 258.095 63.4597 255.821 62.2218 253.466C62.1179 253.269 62.1933 253.026 62.3911 252.922C62.5717 252.827 62.7925 252.883 62.9067 253.046C64.4569 255.164 66.0389 257.269 67.6684 259.308C69.2969 261.325 70.9841 263.375 72.8619 264.939C73.4395 265.386 73.927 265.761 74.5242 265.881C78.6861 266.533 82.7831 264.746 86.4212 262.792C87.1382 262.334 87.9037 263.372 87.2467 263.918Z" fill="#110331"/>
<path d="M73.7323 255.654C73.7323 255.654 81.2995 264.116 90.8488 263.671C92.9514 263.573 95.1023 263.155 97.2158 262.568C104.699 260.489 111.711 256.283 114.466 256.605C116.896 256.889 117.812 258.319 117.418 259.827C117.239 260.513 116.79 261.214 116.09 261.831C113.847 263.808 107.625 265.089 104.085 265.858C100.546 266.627 93.3114 265.963 90.1295 266.479C86.9469 266.996 82.9887 269.524 82.9887 269.524C82.9887 269.524 89.3822 277.801 100.132 277.123C110.882 276.446 122.386 268.592 130.036 266.521C137.685 264.45 147.328 259.967 152.451 253.781C157.574 247.595 159.228 243.541 160.234 240.776C161.24 238.011 162.87 231.191 159.333 222.362C154.546 210.413 150.11 206.767 145.662 203.562C141.128 200.295 125.695 190.043 99.3109 198.84C75.9063 206.643 71.0911 217.88 70.4123 219.846C70.3452 220.041 70.3182 220.145 70.3182 220.145" stroke="#110331" stroke-width="3.14467" stroke-miterlimit="10" stroke-linecap="round"/>
<path d="M84.0872 264.993L85.4935 268.132" stroke="#110331" stroke-width="2.09645" stroke-linecap="round" stroke-linejoin="round"/>
<path d="M94.6648 212.97C94.6648 212.97 105.257 207.46 114.863 205.565C124.469 203.671 128.973 203.574 128.973 203.574" stroke="#110331" stroke-width="2.09645" stroke-linecap="round" stroke-linejoin="round"/>
<path d="M95.1502 222.127C95.1502 222.127 107.304 220.123 116.607 216.849C125.909 213.577 134.005 209.359 134.005 209.359" stroke="#110331" stroke-width="2.09645" stroke-linecap="round" stroke-linejoin="round"/>
<path d="M89.5694 213.696C89.5694 213.696 79.5656 216.17 74.2566 218.277C68.4897 220.565 61.6735 225.678 61.6735 225.678" stroke="#110331" stroke-width="2.09645" stroke-linecap="round" stroke-linejoin="round"/>
<path d="M93.902 222.844C93.902 222.844 85.6851 226.899 81.8566 228.407C78.0281 229.916 77.3882 229.938 77.3882 229.938" stroke="#110331" stroke-width="2.09645" stroke-linecap="round" stroke-linejoin="round"/>
<path d="M149.74 213.362C149.74 213.362 156.47 209.531 167.034 216.774C175.829 222.804 173.294 232.574 176.656 240.408C180.221 248.717 186.174 254.502 190.809 257.13C195.885 260.008 201.114 260.142 204.543 264.972C208.196 270.119 210.075 283.089 197.034 291.78C183.994 300.471 162.39 289.545 161.51 273.296C160.631 257.045 159.774 241.876 159.774 241.876L157.892 227.927L155.336 216.358C155.336 216.358 153.371 217.417 151.65 216.204C149.744 214.86 149.74 213.362 149.74 213.362Z" fill="#505050"/>
<path d="M155.901 219.606C155.901 219.606 159.204 219.327 162.995 221.988C166.786 224.648 166.74 237.868 167.861 242.249C169.22 247.554 174.363 249.818 174.148 250.302C173.933 250.785 172.011 251.485 170.522 251.091C169.033 250.696 167.415 248.975 167.094 249.062C166.7 249.168 167.656 255.971 177.796 264.213C184.916 270.001 195.21 268.41 195.531 276.694C195.852 284.977 187.102 294.865 187.102 294.865C196.661 294.656 203.419 288.537 206.872 277.701C210.929 264.969 200.12 261.127 200.12 261.127L193.58 258.526L187.536 254.946C187.536 254.946 180.467 248.454 177.497 241.731C174.527 235.009 174.818 223.397 167.033 216.773C159.247 210.15 149.06 213.543 149.06 213.543C149.06 213.543 149.14 214.534 150.507 217.824C151.874 221.115 155.901 219.606 155.901 219.606Z" fill="#342E2E"/>
<path d="M155.673 216.705C158.687 225.322 160.697 234.276 161.481 243.39C162.245 252.573 161.092 261.671 162.171 270.509C163.08 279.508 167.496 287.47 175.765 291.537C185.827 296.734 198.66 293.458 203.974 283.181C207.214 277.598 208.052 269.929 203.589 264.774C202.192 263.123 200.396 261.796 198.381 260.952C196.336 260.144 193.992 259.591 191.989 258.544C183.464 254.621 177.286 246.477 174.838 237.512C174.187 235.285 173.734 232.973 173.424 230.712C172.566 224.294 168.783 218.272 162.927 215.332C159.254 213.456 154.491 212.42 150.655 214.173C150.22 214.381 149.698 214.197 149.49 213.761C149.284 213.332 149.461 212.818 149.884 212.604C154.393 210.452 159.576 211.41 163.866 213.483C170.359 216.64 174.713 223.301 175.615 230.393C176.204 234.803 177.366 239.079 179.316 243.063C182.164 249.009 186.712 254.209 192.606 257.302C194.618 258.413 196.732 258.905 198.878 259.816C201.021 260.773 203.002 262.165 204.531 263.979C210.959 271.554 207.552 283.072 201.162 289.555C190.468 300.303 172.151 296.319 164.439 284.01C159.36 275.972 159.428 266.139 159.552 257.045C159.949 247.963 159.402 239.085 157.792 230.156C157.045 225.709 156.189 221.263 155.211 216.843C155.179 216.712 155.262 216.578 155.394 216.55C155.514 216.523 155.633 216.591 155.673 216.705Z" fill="#110331"/>
</g>
</g>
</svg>
