<svg width="322" height="322" viewBox="0 0 322 322" fill="none" xmlns="http://www.w3.org/2000/svg">
<mask id="mask0_3_1281" style="mask-type:luminance" maskUnits="userSpaceOnUse" x="0" y="0" width="322" height="322">
<path d="M0.181274 321.779H321.181V0.779297H0.181274V321.779Z" fill="white"/>
</mask>
<g mask="url(#mask0_3_1281)">
<path d="M115.838 189.504L73.8616 176.56C73.8616 176.56 67.9828 154.064 85.7604 149.272C98.3668 145.873 94.6101 161.366 94.6101 161.366L111.423 166.936L123.674 173.7L122.079 182.205L115.838 189.504Z" fill="#505050"/>
<path d="M121.857 180.122C121.857 180.122 96.9602 169.461 93.6455 169.3C90.3304 169.139 86.0795 169.212 85.924 168.795C85.7682 168.378 94.0079 160.664 91.1469 157.836C88.2862 155.007 84.1825 155.125 82.3829 156.012C80.5835 156.898 74.8278 162.608 74.8278 162.608C74.8278 162.608 80.0617 144.808 89.8169 149.421C99.5721 154.034 95.2073 161.436 95.2073 161.436L111.128 166.093C111.128 166.093 124.978 171.908 124.597 174.59C124.216 177.273 121.857 180.122 121.857 180.122Z" fill="#342E2E"/>
<path d="M95.6399 159.955C102.419 162.027 120.707 167.349 124.864 172.3C126.55 174.461 125.573 177.959 124.71 180.258C123.787 182.78 121.537 186.609 120.478 188.01C117.646 192.897 110.817 190.999 106.589 189.536C105.189 189.027 103.867 188.483 102.523 187.824L101.849 187.259C101.989 187.435 101.935 187.36 101.977 187.412C101.462 187.034 100.873 186.757 100.28 186.49C96.229 184.75 91.8588 183.877 87.5481 182.832C85.7737 182.408 83.9956 181.979 82.2081 181.508C80.4184 181.027 78.6333 180.534 76.7848 179.818C75.657 179.352 74.601 178.91 73.6158 178C68.6608 173.046 71.5048 163.412 73.8102 157.747C75.8596 153.076 79.3825 148.423 84.5698 147.049C86.81 146.464 89.2417 146.525 91.4213 147.327C95.2932 148.908 98.0876 152.806 97.9918 157.062C97.9246 158.749 97.3539 160.388 96.6143 161.805C95.7613 163.379 94.7253 164.751 93.4481 165.971C93.2625 166.145 93.0915 166.297 92.8745 166.489C92.326 166.974 91.4885 166.922 91.0036 166.374C90.5915 165.909 90.5709 165.239 90.8998 164.748C91.0624 164.486 91.3764 163.946 91.533 163.679C92.7314 161.43 94.1041 158.687 93.5217 156.126C93.0041 154.129 91.3538 152.106 89.3402 151.536C85.6759 150.589 82.4647 152.378 80.0759 155.214C76.9473 158.997 75.041 164.338 74.7021 169.211C74.6168 171.236 74.7523 173.082 75.7639 174.618C76.1439 175.155 76.4462 175.423 77.1146 175.744C79.0169 176.641 81.0833 177.15 83.2095 177.722C88.5177 179.14 93.9374 180.073 99.189 181.835C100.888 182.429 102.683 183.079 104.194 184.132C104.514 184.378 104.7 184.511 104.996 184.875L104.321 184.309C106.874 185.608 115.649 189.334 117.329 186.016C119.252 183.254 122.649 177.892 122.11 174.567C121.905 174.262 121.323 173.738 120.834 173.41C119.392 172.401 117.71 171.557 116.084 170.789C109.202 167.655 101.983 165.141 94.7864 162.82C92.9275 162.189 93.7288 159.469 95.6399 159.955Z" fill="#11082F"/>
<path d="M172.778 230.391C172.778 230.391 167.097 240.415 168.685 246.848C170.272 253.281 175.205 274.853 175.205 274.853C175.205 274.853 156.767 255.129 157.022 238.161C157.276 221.194 164.015 213.901 164.015 213.901C164.015 213.901 173.149 201.406 179.298 208.587C185.448 215.767 172.778 230.391 172.778 230.391Z" fill="#505050"/>
<path d="M167.523 221.912C167.525 221.916 167.529 221.925 167.529 221.925C167.529 221.925 167.279 221.45 164.955 238.323C162.632 255.196 174.343 275.46 174.343 275.46C174.343 275.46 170.519 253.915 169.137 244.949C167.755 235.983 172.519 229.816 172.519 229.816L178.666 221.554L180.336 211.007C178.91 209.212 172.73 218.244 167.523 221.912Z" fill="#342E2E"/>
<path d="M174.393 230.997C174.245 231.152 174.102 231.365 173.979 231.549C172.614 233.82 172.059 236.395 171.639 239.026C171.34 241.298 171.19 243.651 171.313 245.946C171.838 253.132 173.85 260.179 175.648 267.189C176.257 269.668 177.043 272.097 177.33 274.689C177.34 274.811 177.342 275.041 177.34 275.162C177.316 275.38 177.345 275.541 177.165 276.025C176.873 276.813 175.93 277.309 175.117 277.082C174.574 276.974 174.028 276.522 173.674 276.196C171.089 273.629 169.133 270.582 167.153 267.565C162.025 259.31 157.082 249.669 156.025 239.894C155.002 230.318 157.531 220.331 163.038 212.421C164.497 210.677 166.077 209.101 167.879 207.668C169.314 206.551 170.82 205.557 172.607 204.963C177.303 203.328 181.288 206.647 181.593 211.409C182.084 217.515 177.693 225.975 174.393 230.997ZM171.023 228.197C173.62 224.272 178.003 217.026 177.909 211.652C177.872 209.145 176.188 207.256 173.568 208.094C170.456 209.068 167.66 211.628 165.392 214.02C165.288 214.129 165.157 214.282 165.071 214.4C163.539 216.435 162.313 218.708 161.272 221.041C158.408 227.577 157.405 234.962 158.64 242.007C160.313 250.709 164.578 258.727 169.456 266.052C170.809 268.048 172.243 269.987 173.794 271.821C174.51 272.636 175.203 273.483 176.038 274.098C175.342 273.728 174.302 274.274 174.177 275.054C174.172 275.084 174.171 275.069 174.172 275.079L174.159 274.938C173.773 272.652 172.968 270.399 172.314 268.133C171.361 265 170.396 261.844 169.534 258.642C168.371 254.216 167.236 249.595 166.999 244.939C166.926 242.79 167 240.592 167.234 238.454C167.666 234.916 168.72 230.889 171.023 228.197Z" fill="#11082F"/>
<path d="M276.097 84.5674C276.097 84.5674 273.76 108.068 165.272 107.415C45.2497 106.694 46.8434 83.5973 46.8434 83.5973L50.2617 77.558L60.7192 72.1022C60.7192 72.1022 67.953 84.5674 161.81 84.5674C255.666 84.5674 262.136 72.389 262.136 72.389C262.136 72.389 267.675 74.1421 272.848 77.4023C278.021 80.6628 276.097 84.5674 276.097 84.5674Z" fill="#826FA8"/>
<path d="M161.428 59.2542C141.633 59.2542 125.632 59.9592 112.738 61.0349C71.2575 64.4954 61.9357 71.7917 61.9357 71.7917C61.9357 71.7917 87.0552 84.5672 161.81 84.5672C236.564 84.5672 262.136 72.3888 262.136 72.3888C262.136 72.3888 244.902 59.2542 161.428 59.2542Z" fill="#3D2566"/>
<path d="M252.103 68.6871C252.103 68.6871 225.566 77.1146 164.77 77.1146C103.975 77.1146 74.2238 68.1682 74.2238 68.1682L62.2817 72.1022C62.2817 72.1022 86.135 84.5674 163.454 84.5674C240.773 84.5674 263.263 72.3834 263.263 72.3834L252.103 68.6871Z" fill="#332055"/>
<path d="M89.249 102.2C89.249 102.2 86.4221 94.7193 101.559 91.3078C116.696 87.8966 146.576 90.4613 166.248 90.4613C185.92 90.4613 207.896 88.332 219.828 92.9048C231.761 97.4773 232.25 102.422 232.25 102.422C232.25 102.422 276.776 97.3554 276.776 83.5973C276.776 78.335 263.263 72.3834 263.263 72.3834C263.263 72.3834 229.231 84.5674 165.272 84.5674C101.313 84.5674 60.7192 72.1025 60.7192 72.1025C60.7192 72.1025 46.8434 76.5876 46.8434 83.5973C46.8434 94.8564 89.249 102.2 89.249 102.2Z" fill="#685389"/>
<path d="M47.5597 83.3158C47.5597 69.9985 98.8715 59.2025 162.168 59.2025C225.464 59.2025 276.776 69.9985 276.776 83.3158C276.776 96.6332 225.464 107.429 162.168 107.429C98.8715 107.429 47.5597 96.6332 47.5597 83.3158Z" stroke="#11082F" stroke-width="4.45833" stroke-miterlimit="10"/>
<path d="M262.781 72.011C243.325 79.4933 205.563 84.5674 162.168 84.5674C118.837 84.5674 81.1217 79.5081 61.6409 72.0437" stroke="#11082F" stroke-width="4.45833" stroke-miterlimit="10"/>
<path d="M111.671 61.9693L112.056 149.392V61.9244L111.671 61.9693Z" fill="#F6BA64"/>
<path d="M212.593 61.3264V160.945C212.593 160.945 220.63 172.91 219.584 186.379C218.539 199.848 203.098 215.974 186.362 217C142.761 219.673 146.446 179.538 146.446 179.538C146.446 179.538 127.176 182.14 117.558 174.381C110.538 168.718 112.202 153.511 112.738 147.636V61.5547C112.738 61.5547 146.209 59.2616 164.788 59.2616C183.367 59.2616 212.593 61.3264 212.593 61.3264Z" fill="#505050"/>
<path d="M127.756 193.129C119.565 192.047 105.592 192.722 102.679 193.004C103.563 181.622 113.985 167.357 113.985 167.357L115.601 172.207L134.955 174.556L145.853 179.312L149.524 200.254C149.524 200.254 135.946 194.21 127.756 193.129Z" fill="#342E2E"/>
<path d="M150.762 155.557C150.735 141.344 150.772 59.9881 150.772 59.9881H133.049L133.048 149.348C133.048 149.348 150.659 155.512 150.762 155.557Z" fill="#F6BA64"/>
<path d="M128.147 180.76C148.047 181.817 150.772 160.181 150.772 160.181C150.772 160.181 150.767 157.696 150.762 155.557C150.686 155.524 133.055 149.339 133.055 149.339L133.049 59.9877L123.616 60.5893L112.056 61.9247V151.402L112.065 153.575C112.065 153.575 108.247 179.703 128.147 180.76Z" fill="#A66D38"/>
<path d="M183.27 217.129L185.709 217.041C199.702 216.23 206.715 208.523 206.715 208.523C206.715 208.523 208.036 208.484 206.05 205.934C205.2 204.64 204.168 202.713 202.489 201.128C198.431 197.401 191.706 193.586 181.287 192.444C166.626 190.836 151.304 195.799 149.904 196.331C151.164 201.428 156.547 207.201 161.127 210.895C170.161 218.18 183.27 217.129 183.27 217.129Z" fill="#F6BA64"/>
<path d="M124.074 221.078C143.037 228.848 157.433 217.078 160.759 213.928C161.202 213.509 161.824 213.002 161.824 213.002C161.824 213.002 152.886 205.607 151.565 203.514C150.602 201.989 149.814 199.597 149.506 198.759C149.425 198.532 149.237 198.072 149.237 198.072C149.237 198.072 144.416 196.066 137.887 194.134C134.668 193.157 130.941 192.169 127.02 191.743C116.031 190.547 105.679 191.376 102.766 191.658C102.239 191.709 101.954 191.743 101.954 191.743C101.954 191.743 102.589 212.276 124.074 221.078Z" fill="#F6BA64"/>
<path d="M217.75 195.063C223.202 179.376 212.593 161.381 212.593 161.381V61.3267L199.217 60.4906L200.278 164.649C200.278 164.649 212.761 175.679 206.685 194.899C205.765 197.807 204.448 199.954 203.183 202.271C206.255 205.393 207.179 206.64 207.703 207.958C211.715 204.057 215.62 201.195 217.75 195.063Z" fill="#342E2E"/>
<path d="M147.925 221.641C147.925 221.641 151.658 217.56 148.758 207.755C145.927 198.192 136.731 193.674 136.731 193.674C136.731 193.674 141.527 194.973 143.948 195.986C146.37 196.998 149.256 197.954 149.256 197.954C149.256 197.954 151.321 203.812 154.02 206.216C156.718 208.621 162.186 212.921 162.186 212.921L153.19 219.641L147.925 221.641Z" fill="#A66D38"/>
<path d="M114.967 60.7762C114.862 89.3264 114.713 138.365 114.682 166.9L114.681 167.608L114.221 168.157C109.054 174.703 104.372 182.583 104.593 191.05C105.338 217.37 135.249 230.712 156.422 215.065C158.101 213.739 159.744 212.98 160.748 211.035L164.235 213.455C162.704 214.467 161.479 215.79 160.075 216.948C157.76 218.856 155.22 220.489 152.506 221.773C128.153 233.307 100.096 216.247 100.764 189.319C101.187 180.657 105.548 173.152 110.673 166.366C110.861 166.125 111.035 165.906 111.255 165.642L110.793 166.899C110.766 138.416 110.613 89.2614 110.509 60.7762H114.967Z" fill="#11082F"/>
<path d="M112.259 105.029C73.9658 101.125 47.5597 92.8694 47.5597 83.3158C47.5597 69.9985 98.8715 59.2028 162.168 59.2028C225.464 59.2028 276.776 69.9985 276.776 83.3158C276.776 92.8263 250.607 101.051 212.593 104.976" stroke="#11082F" stroke-width="4.45833" stroke-miterlimit="10"/>
<path d="M185.169 217.194L185.191 217.196C191.174 216.85 196.265 215.183 200.138 213.39C203.015 211.889 205.263 210.674 207.651 208.353C207.128 207.035 206.437 205.149 203.364 202.027C196.278 213.147 187.212 216.327 185.169 217.194Z" fill="#A66D38"/>
<path d="M214.375 61.3356C215.252 90.1451 214.688 117.938 214.784 146.922C214.815 150.705 214.768 157.329 214.928 160.955C214.931 160.983 214.923 160.911 214.892 160.778C214.851 160.633 214.842 160.621 214.853 160.647L214.859 160.662C214.864 160.675 214.862 160.674 214.872 160.701C216.041 163.35 217.34 166.014 218.413 168.735C219.895 172.511 221.216 176.469 221.714 180.575C222.945 195.776 213.89 208.074 200.212 214.683C186.575 221.404 171.664 220.049 160.734 213.018C151.163 206.868 144.64 196.371 144.736 183.035C144.824 182.188 145.046 180.459 145.14 179.584C145.385 177.945 147.713 178.136 147.735 179.75C147.748 180.799 147.677 182.533 147.705 183.581C147.734 187.979 148.585 192.026 150.147 195.664C153.508 203.499 160.16 209.439 168.963 212.907C188.281 220.85 212.038 208.289 216.845 190.304C217.853 186.527 217.727 183.647 217.276 180.022C216.274 173.826 213.584 169.15 210.9 163.481C210.714 163.075 210.482 162.603 210.336 162.184C210.292 162.096 210.181 161.572 210.186 161.491C210.103 160.551 210.097 159.623 210.071 158.716C209.873 145.152 209.846 137.455 209.886 123.917C209.95 113.294 210.05 87.2959 210.282 76.9657C210.392 72.595 210.583 65.6874 210.81 61.3176C210.923 59.235 214.12 58.9127 214.375 61.3356Z" fill="#11082F"/>
<path d="M148.459 180.068C148.459 180.068 140.234 178.755 133.264 179.463C126.295 180.17 113.834 181.93 113.834 181.93C113.834 181.93 105.979 175.276 108.213 164.226C110.447 153.176 114.594 147.937 123.746 152.111C127.631 153.883 126.687 160.179 126.687 160.179L153.71 157.593C153.71 157.593 153.5 164.486 153.81 169.756C154.121 175.026 148.459 180.068 148.459 180.068Z" fill="#505050"/>
<path d="M129.229 166.385C127.407 166.796 124.615 169.52 123.97 168.95C123.326 168.378 125.429 156.782 120.275 156.061C115.121 155.34 108.137 167.323 108.137 167.323C108.137 167.323 106.131 149.731 118.779 150.495C128.327 151.072 127.001 159.665 127.001 159.665L148.842 158.64C148.842 158.64 144.593 162.452 139.409 164.531C135.243 166.202 130.041 166.202 129.229 166.385Z" fill="#342E2E"/>
<path d="M149.05 158.995C147.287 159.639 145.498 159.98 143.694 160.279C140.99 160.742 138.268 161.134 135.535 161.402C133.689 161.59 131.862 161.732 129.992 161.786C129.127 161.817 128.214 161.825 127.359 161.564C127.146 161.509 126.879 161.399 126.667 161.33C125.668 160.995 125.131 159.914 125.466 158.915C125.824 157.765 127.135 157.457 127.782 157.679L127.778 157.676L127.761 157.664C127.748 157.657 127.735 157.65 127.743 157.646C127.75 157.637 127.75 157.63 127.76 157.625C127.855 157.585 128.01 157.573 128.114 157.559C129.594 157.479 131.091 157.612 132.596 157.535C134.368 157.502 136.158 157.422 137.945 157.351C141.542 157.256 145.108 156.78 148.719 156.912C149.886 156.959 150.145 158.592 149.05 158.995Z" fill="#11082F"/>
<path d="M148.81 181.252C142.894 179.88 136.727 180.578 130.841 181.795C127.559 182.344 124.135 182.993 120.821 183.452C118.666 183.703 116.508 184.053 114.293 183.535C109.579 182.205 107.449 177.002 106.507 172.753C105.253 166.572 105.184 159.862 108.536 154.236C110.481 150.914 114.053 148.562 117.922 148.298C120.068 148.16 122.209 148.893 123.968 150.032C129.359 153.462 129.126 159.782 127.082 165.13C126.452 166.647 124.204 165.907 124.579 164.324C124.684 163.921 124.786 163.435 124.861 163.007C125.277 160.275 125.571 156.998 123.676 154.779C122.704 153.679 121.249 152.845 119.805 152.558C116.767 152.015 113.897 153.939 112.403 156.556C109.871 161.079 110.072 166.829 110.96 171.837C111.555 174.558 112.372 177.504 114.634 179.116C115.55 179.725 116.554 179.662 117.645 179.665C121.287 179.524 125.151 178.779 128.798 178.242C131.683 177.762 134.672 177.544 137.597 177.508C141.553 177.471 145.559 177.89 149.388 178.997C150.006 179.175 150.363 179.821 150.185 180.438C150.013 181.033 149.406 181.385 148.81 181.252Z" fill="#11082F"/>
</g>
</svg>
