<svg width="292" height="292" viewBox="0 0 292 292" fill="none" xmlns="http://www.w3.org/2000/svg">
<mask id="mask0_3_319" style="mask-type:luminance" maskUnits="userSpaceOnUse" x="0" y="0" width="292" height="292">
<path d="M291.152 77.7672L77.8413 0.128662L0.202787 213.439L213.513 291.077L291.152 77.7672Z" fill="white"/>
</mask>
<g mask="url(#mask0_3_319)">
<path d="M182.303 137.693L207.066 156.447C207.066 156.447 205.532 172.818 192.559 171.703C183.36 170.912 189.604 161.525 189.604 161.525L179.778 153.758L173.274 146.3L176.39 141.034L182.303 137.693Z" fill="#505050"/>
<path d="M176.034 142.472C176.034 142.472 190 155.578 192.164 156.487C194.328 157.396 197.17 158.375 197.173 158.69C197.175 159.005 189.834 162.138 191.051 164.709C192.268 167.281 195.024 168.195 196.434 168.041C197.844 167.887 203.05 165.485 203.05 165.485C203.05 165.485 195.267 176.047 189.9 170.623C184.533 165.198 189.224 161.335 189.224 161.335L179.771 154.389C179.771 154.389 171.974 147.175 172.875 145.485C173.777 143.795 176.034 142.472 176.034 142.472Z" fill="#342E2E"/>
<path d="M188.578 162.214C184.574 159.198 173.709 151.238 172.144 146.942C171.546 145.099 173.042 143.011 174.171 141.691C175.394 140.239 177.816 138.239 178.858 137.564C181.922 135.001 186.001 137.915 188.457 139.909C189.264 140.586 190.011 141.267 190.745 142.03L191.056 142.569C191.005 142.418 191.023 142.481 191.008 142.436C191.259 142.811 191.583 143.138 191.912 143.459C194.184 145.595 196.877 147.232 199.488 148.969C200.565 149.68 201.643 150.395 202.717 151.14C203.79 151.893 204.857 152.652 205.912 153.575C206.549 154.158 207.143 154.707 207.578 155.55C209.672 160.04 205.452 165.754 202.55 168.961C200.059 171.57 196.592 173.81 192.813 173.468C191.183 173.315 189.582 172.686 188.327 171.626C186.136 169.639 185.222 166.373 186.316 163.568C186.768 162.463 187.544 161.512 188.378 160.749C189.325 159.91 190.346 159.248 191.49 158.747C191.655 158.676 191.805 158.616 191.996 158.541C192.478 158.352 193.022 158.588 193.211 159.07C193.373 159.479 193.224 159.929 192.887 160.176C192.716 160.31 192.376 160.594 192.208 160.733C190.868 161.937 189.292 163.428 189.06 165.271C188.92 166.723 189.528 168.467 190.728 169.333C192.934 170.848 195.501 170.436 197.774 169.129C200.768 167.372 203.326 164.284 204.73 161.127C205.277 159.802 205.633 158.543 205.332 157.278C205.21 156.829 205.074 156.578 204.707 156.203C203.66 155.147 202.41 154.309 201.136 153.414C197.951 151.188 194.575 149.257 191.512 146.816C190.526 146.011 189.491 145.144 188.741 144.079C188.588 143.838 188.497 143.705 188.388 143.392L188.7 143.931C187.317 142.45 182.387 137.852 180.468 139.651C178.522 141.021 174.968 143.762 174.522 146.102C174.585 146.354 174.845 146.843 175.09 147.18C175.804 148.199 176.719 149.167 177.613 150.07C181.429 153.817 185.618 157.234 189.838 160.517C190.921 161.386 189.731 162.999 188.578 162.214Z" fill="#11082F"/>
<path d="M154.355 96.7517C154.355 96.7517 160.554 91.4641 161.055 86.8055C161.556 82.1467 163.495 66.6185 163.495 66.6185C163.495 66.6185 170.977 84.185 166.704 95.3988C162.431 106.612 156.189 109.829 156.189 109.829C156.189 109.829 147.098 115.923 144.748 109.663C142.398 103.404 154.355 96.7517 154.355 96.7517Z" fill="#505050"/>
<path d="M155.796 103.657C155.795 103.653 155.795 103.647 155.795 103.647C155.795 103.647 155.846 104.023 161.471 93.3723C167.096 82.7222 164.215 66.4236 164.215 66.4236C164.215 66.4236 161.545 81.6654 160.295 87.9577C159.045 94.25 154.387 97.1962 154.387 97.1962L148.304 101.2L144.643 107.805C145.157 109.342 151.448 104.835 155.796 103.657Z" fill="#342E2E"/>
<path d="M153.428 95.9581C153.564 95.8909 153.71 95.784 153.836 95.6916C155.293 94.5126 156.284 92.9357 157.2 91.2885C157.948 89.8514 158.617 88.324 159.09 86.7688C160.48 81.8667 160.847 76.6971 161.347 71.6043C161.543 69.8096 161.607 68.0055 162.043 66.2133C162.067 66.1304 162.121 65.9769 162.151 65.8972C162.22 65.7575 162.24 65.6438 162.476 65.3658C162.861 64.913 163.608 64.8108 164.093 65.159C164.428 65.3618 164.681 65.7943 164.838 66.0961C165.934 68.4275 166.497 70.9256 167.084 73.4089C168.494 80.1352 169.447 87.7372 167.785 94.4883C166.149 101.099 162.053 107.124 156.48 111.049C155.089 111.855 153.658 112.52 152.114 113.036C150.89 113.431 149.649 113.727 148.318 113.69C144.802 113.64 142.957 110.471 143.906 107.233C145.056 103.057 150.02 98.4971 153.428 95.9581ZM154.99 98.6339C152.315 100.614 147.65 104.369 146.413 107.963C145.831 109.637 146.493 111.3 148.436 111.377C150.74 111.482 153.217 110.457 155.303 109.416C155.398 109.369 155.522 109.299 155.608 109.242C157.119 108.26 158.483 107.046 159.739 105.748C163.223 102.097 165.676 97.4323 166.559 92.4519C167.552 86.2643 166.657 79.9046 165.187 73.8575C164.771 72.2037 164.287 70.5685 163.7 68.9744C163.421 68.2599 163.165 67.5294 162.759 66.919C163.132 67.3326 163.955 67.2216 164.227 66.7335C164.237 66.7148 164.235 66.7251 164.237 66.7181L164.211 66.8154C163.915 68.4273 163.905 70.1197 163.791 71.7833C163.667 74.0957 163.545 76.4261 163.343 78.763C163.045 81.9853 162.682 85.3301 161.713 88.4817C161.242 89.9272 160.662 91.3701 159.989 92.7341C158.846 94.981 157.171 97.402 154.99 98.6339Z" fill="#11082F"/>
<path d="M50.4272 168.664C50.4272 168.664 57.6641 153.613 129.599 180.286C209.181 209.795 202.536 224.757 202.536 224.757L198.804 227.944L190.535 229.04C190.535 229.04 188.743 219.007 126.373 196.307C64.004 173.606 56.7591 180.134 56.7591 180.134C56.7591 180.134 53.5023 177.629 50.8534 174.212C48.2045 170.794 50.4272 168.664 50.4272 168.664Z" fill="#826FA8"/>
<path d="M120.505 213.22C133.659 218.008 144.462 221.409 153.291 223.813C181.692 231.546 189.651 228.952 189.651 228.952C189.651 228.952 176.049 214.387 126.373 196.307C76.6975 178.226 56.759 180.134 56.759 180.134C56.759 180.134 65.0346 193.03 120.505 213.22Z" fill="#3D2566"/>
<path d="M62.5309 185.02C62.5309 185.02 82.2038 185.839 122.604 200.543C163.003 215.247 180.609 228.388 180.609 228.388L189.497 228.662C189.497 228.662 176.661 214.61 125.281 195.909C73.901 177.208 56.0092 179.865 56.0092 179.865L62.5309 185.02Z" fill="#332055"/>
<path d="M178.856 202.139C178.856 202.139 178.925 207.794 168.041 206.4C157.157 205.006 137.922 196.074 124.849 191.316C111.777 186.558 96.659 182.658 89.8356 176.734C83.0121 170.809 83.8832 167.405 83.8832 167.405C83.8832 167.405 53.069 160.002 49.7414 169.145C48.4687 172.642 56.0092 179.865 56.0092 179.865C56.0092 179.865 81.5711 180 124.073 195.469C166.574 210.938 190.535 229.04 190.535 229.04C190.535 229.04 200.841 229.416 202.536 224.757C205.259 217.276 178.856 202.139 178.856 202.139Z" fill="#685389"/>
<path d="M201.992 224.771C198.771 233.621 162.062 228.384 120 213.075C77.9388 197.766 46.4524 178.182 49.6734 169.332C52.8944 160.482 89.6032 165.719 131.665 181.028C173.726 196.337 205.213 215.922 201.992 224.771Z" stroke="#11082F" stroke-width="3.15278" stroke-miterlimit="10"/>
<path d="M56.2394 180.229C70.9781 179.963 97.2986 185.724 126.135 196.22C154.93 206.7 178.768 219.184 189.908 228.856" stroke="#11082F" stroke-width="3.15278" stroke-miterlimit="10"/>
<path d="M154.226 223.45L175.114 165.263L153.959 223.387L154.226 223.45Z" fill="#F6BA64"/>
<path d="M87.0061 199.468L111.1 133.27C111.1 133.27 108.653 123.375 112.606 114.677C116.558 105.98 130.719 98.9985 142.089 102.365C171.709 111.134 159.553 136.913 159.553 136.913C159.553 136.913 172.987 139.844 177.502 147.327C180.797 152.788 176.014 162.49 174.237 166.265L153.417 223.468C153.417 223.468 130.62 216.896 118.274 212.402C105.927 207.909 87.0061 199.468 87.0061 199.468Z" fill="#505050"/>
<path d="M175.26 132.402C180.441 135.102 189.89 138.033 191.894 138.55C188.553 145.899 178.178 152.859 178.178 152.859L178.277 149.245L165.984 143.003L159.892 137.207L162.518 122.402C162.518 122.402 170.079 129.703 175.26 132.402Z" fill="#342E2E"/>
<path d="M150.885 151.804C147.465 161.256 127.763 215.31 127.763 215.31L139.54 219.596L161.154 160.215C161.154 160.215 150.942 151.86 150.885 151.804Z" fill="#F6BA64"/>
<path d="M172.008 140.527C159.04 135.011 151.996 148.73 151.996 148.73C151.996 148.73 151.399 150.382 150.885 151.804C150.927 151.845 161.147 160.22 161.147 160.22L139.54 219.596L145.955 221.478L153.959 223.387L175.601 163.927L176.12 162.481C176.12 162.481 184.976 146.042 172.008 140.527Z" fill="#A66D38"/>
<path d="M144.175 103.026L142.533 102.495C133.038 99.6495 126.514 103.075 126.514 103.075C126.514 103.075 125.626 102.781 126.33 104.956C126.581 106.022 126.801 107.551 127.533 109.011C129.328 112.469 132.875 116.631 139.522 119.91C148.876 124.524 160.258 124.932 161.316 124.917C161.712 121.225 159.531 116.087 157.381 112.525C153.14 105.498 144.175 103.026 144.175 103.026Z" fill="#F6BA64"/>
<path d="M184.467 114.719C173.744 104.97 161.331 109.309 158.359 110.598C157.964 110.77 157.428 110.956 157.428 110.956C157.428 110.956 161.578 118.032 161.95 119.742C162.222 120.989 162.166 122.769 162.169 123.4C162.167 123.571 162.181 123.922 162.181 123.922C162.181 123.922 164.9 126.42 168.771 129.284C170.674 130.712 172.911 132.269 175.414 133.501C182.427 136.954 189.506 138.906 191.51 139.423C191.873 139.517 192.07 139.564 192.07 139.564C192.07 139.564 196.615 125.765 184.467 114.719Z" fill="#F6BA64"/>
<path d="M115.925 109.35C108.508 118.456 111.206 132.98 111.206 132.98L87.0062 199.468L95.6923 203.258L120.179 133.787C120.179 133.787 114.552 123.438 123.239 112.135C124.553 110.426 125.947 109.317 127.348 108.084C126.062 105.266 125.749 104.214 125.721 103.212C122.111 104.833 118.824 105.791 115.925 109.35Z" fill="#342E2E"/>
<path d="M168.753 108.577C168.753 108.577 165.286 110.386 164.841 117.603C164.409 124.643 169.428 129.869 169.428 129.869C169.428 129.869 166.555 127.846 165.191 126.587C163.826 125.329 162.14 123.995 162.14 123.995C162.14 123.995 162.184 119.603 160.972 117.353C159.761 115.102 157.168 110.922 157.168 110.922L164.771 108.632L168.753 108.577Z" fill="#A66D38"/>
<path d="M151.747 223.446C158.722 204.499 170.682 171.948 177.604 152.994L177.776 152.523L178.214 152.27C183.231 149.169 188.248 145.066 190.15 139.385C196.02 121.715 179.371 105.615 161.517 110.892C160.08 111.367 158.804 111.474 157.667 112.523L155.935 110.072C157.198 109.77 158.331 109.187 159.544 108.757C161.544 108.049 163.627 107.578 165.741 107.382C184.714 105.607 199.232 123.729 192.275 141.462C189.899 147.116 185.186 151.048 180.139 154.318C179.956 154.433 179.787 154.536 179.577 154.659L180.188 153.934C173.317 172.869 161.53 205.57 154.71 224.524L151.747 223.446Z" fill="#11082F"/>
<path d="M164.25 194.694C188.752 206.55 204.303 218.423 201.992 224.771C198.771 233.621 162.062 228.384 120.001 213.075C77.9389 197.766 46.4524 178.182 49.6734 169.332C51.9736 163.012 71.3526 163.876 97.5634 170.462" stroke="#11082F" stroke-width="3.15278" stroke-miterlimit="10"/>
<path d="M142.928 102.524L142.914 102.517C138.855 101.3 135.069 101.177 132.061 101.432C129.786 101.733 127.999 101.997 125.851 102.962C125.879 103.964 125.883 105.384 127.169 108.202C134.568 102.527 141.361 102.606 142.928 102.524Z" fill="#A66D38"/>
<path d="M85.8241 199.031C92.2094 179.674 99.3061 161.342 106.252 142.058C107.147 139.537 108.78 135.146 109.551 132.698C109.556 132.679 109.543 132.729 109.532 132.825C109.524 132.931 109.527 132.941 109.526 132.921L109.526 132.91C109.526 132.899 109.527 132.901 109.526 132.88C109.391 130.838 109.171 128.753 109.117 126.685C109.045 123.818 109.125 120.868 109.787 118.019C112.645 107.62 121.637 101.638 132.325 100.554C143.013 99.3862 152.594 103.893 158.156 111.209C163.029 117.611 164.824 126.164 161.535 135.003C161.271 135.544 160.706 136.639 160.432 137.198C159.873 138.228 158.372 137.538 158.748 136.46C158.993 135.76 159.46 134.625 159.694 133.921C160.739 130.992 161.152 128.097 160.994 125.302C160.655 119.282 157.672 113.726 152.661 109.292C141.745 99.3422 122.92 101.943 115.375 112.732C113.792 114.998 113.179 116.942 112.602 119.46C111.769 123.82 112.426 127.577 112.839 131.994C112.864 132.309 112.904 132.679 112.899 132.992C112.908 133.062 112.854 133.436 112.831 133.489C112.66 134.133 112.439 134.752 112.237 135.361C109.088 144.422 107.244 149.544 103.943 158.53C101.331 165.574 94.9769 182.826 92.3239 189.634C91.1941 192.512 89.3966 197.056 88.1884 199.905C87.6101 201.262 85.4075 200.703 85.8241 199.031Z" fill="#11082F"/>
<path d="M158.343 136.074C158.343 136.074 163.492 138.935 168.294 140.151C173.097 141.367 181.803 143.211 181.803 143.211C181.803 143.211 185.413 149.532 181.256 156.335C177.099 163.138 173.076 165.617 168.004 160.629C165.851 158.512 168.001 154.556 168.001 154.556L149.418 149.739C149.418 149.739 151.225 145.209 152.293 141.632C153.361 138.055 158.343 136.074 158.343 136.074Z" fill="#505050"/>
<path d="M167.813 149.817C169.123 149.985 171.637 148.85 171.927 149.385C172.218 149.92 168.015 157.118 171.266 158.844C174.516 160.569 182.055 154.296 182.055 154.296C182.055 154.296 179.134 166.471 170.914 162.904C164.709 160.211 167.668 154.822 167.668 154.822L152.906 150.22C152.906 150.22 156.652 148.715 160.599 148.587C163.772 148.484 167.229 149.742 167.813 149.817Z" fill="#342E2E"/>
<path d="M152.854 149.935C154.181 149.933 155.452 150.139 156.724 150.376C158.632 150.723 160.536 151.121 162.417 151.604C163.689 151.925 164.937 152.273 166.194 152.689C166.776 152.878 167.384 153.093 167.89 153.474C168.017 153.561 168.169 153.699 168.293 153.797C168.875 154.261 168.971 155.109 168.507 155.692C167.99 156.369 167.045 156.257 166.669 155.953L166.671 155.956L166.679 155.968C166.685 155.976 166.693 155.984 166.687 155.984C166.68 155.988 166.678 155.993 166.67 155.994C166.598 155.997 166.491 155.968 166.419 155.952C165.416 155.647 164.454 155.197 163.435 154.884C162.249 154.477 161.04 154.097 159.835 153.713C157.423 152.906 154.938 152.359 152.57 151.398C151.806 151.085 152.029 149.937 152.854 149.935Z" fill="#11082F"/>
<path d="M158.396 135.202C161.996 137.545 166.263 138.573 170.469 139.187C172.782 139.616 175.214 140.013 177.528 140.509C179.021 140.864 180.54 141.153 181.886 142.033C184.697 144.058 184.854 148.03 184.452 151.081C183.791 155.492 182.213 159.967 178.625 162.895C176.529 164.632 173.586 165.332 170.951 164.571C169.493 164.144 168.247 163.139 167.354 161.957C164.601 158.373 166.284 154.23 168.936 151.17C169.721 150.315 171.036 151.351 170.404 152.312C170.237 152.554 170.051 152.852 169.899 153.119C168.961 154.833 167.973 156.94 168.696 158.873C169.076 159.839 169.841 160.745 170.731 161.285C172.619 162.381 174.991 161.797 176.617 160.419C179.393 158.026 180.65 154.156 181.271 150.613C181.534 148.661 181.704 146.505 180.59 144.888C180.129 144.262 179.447 144.06 178.723 143.795C176.268 143.007 173.52 142.567 170.967 142.042C168.933 141.664 166.894 141.086 164.942 140.402C162.305 139.47 159.744 138.222 157.467 136.561C157.099 136.293 157.019 135.778 157.286 135.41C157.544 135.057 158.033 134.97 158.396 135.202Z" fill="#11082F"/>
</g>
</svg>
