<svg width="19" height="19" viewBox="0 0 19 19" fill="none" xmlns="http://www.w3.org/2000/svg">
<g clip-path="url(#clip0_3_47)">
<mask id="mask0_3_47" style="mask-type:luminance" maskUnits="userSpaceOnUse" x="0" y="0" width="19" height="19">
<path d="M18.1613 0.708862H0.161278V18.7089H18.1613V0.708862Z" fill="white"/>
</mask>
<g mask="url(#mask0_3_47)">
<path d="M9.16128 18.7089C14.1319 18.7089 18.1613 14.6794 18.1613 9.70886C18.1613 4.7383 14.1319 0.708862 9.16128 0.708862C4.19071 0.708862 0.161278 4.7383 0.161278 9.70886C0.161278 14.6794 4.19071 18.7089 9.16128 18.7089Z" fill="#F3BA2F"/>
<path d="M6.97653 8.81111L9.16128 6.62636L11.3472 8.81224L12.6184 7.54099L9.16128 4.08386L5.70528 7.53986L6.97653 8.81111ZM3.53628 9.70886L4.80753 8.43761L6.07878 9.70886L4.80753 10.9801L3.53628 9.70886ZM6.97653 10.6066L9.16128 12.7914L11.3472 10.6055L12.6184 11.8762L9.16128 15.3339L5.70528 11.8779L5.70359 11.8762L6.97653 10.6066ZM12.2438 9.70886L13.515 8.43761L14.7863 9.70886L13.515 10.9801L12.2438 9.70886ZM10.4505 9.70774H10.4517V9.70886L9.16128 10.9992L7.87259 9.71111L7.87034 9.70886L7.87259 9.70717L8.09815 9.48105L8.20784 9.37136L9.16128 8.41849L10.4511 9.7083L10.4505 9.70774Z" fill="white"/>
</g>
</g>
<defs>
<clipPath id="clip0_3_47">
<rect width="18" height="18" fill="white" transform="translate(0.161278 0.708862)"/>
</clipPath>
</defs>
</svg>
