<svg width="27" height="27" viewBox="0 0 27 27" fill="none" xmlns="http://www.w3.org/2000/svg">
<g clip-path="url(#clip0_2_24)">
<path d="M13.7759 26.1813C20.8685 26.1813 26.6181 20.4143 26.6181 13.3001C26.6181 6.18573 20.8685 0.418823 13.7759 0.418823C6.68331 0.418823 0.933602 6.18573 0.933602 13.3001C0.933602 20.4143 6.68331 26.1813 13.7759 26.1813Z" fill="#4793FF"/>
<path d="M13.776 0.418823C20.8572 0.418823 26.6182 6.19732 26.6182 13.3001C26.6182 20.4027 20.8572 26.1813 13.776 26.1813V0.418823Z" fill="#5E69E2"/>
<path d="M13.7757 22.9475C19.0877 22.9475 23.394 18.6284 23.394 13.3001C23.394 7.97177 19.0877 3.6527 13.7757 3.6527C8.46368 3.6527 4.15745 7.97177 4.15745 13.3001C4.15745 18.6284 8.46368 22.9475 13.7757 22.9475Z" fill="#2EBEEF"/>
<path d="M13.776 3.6527C19.0795 3.6527 23.3942 7.98014 23.3942 13.3001C23.3942 18.62 19.0795 22.9475 13.776 22.9475V3.6527Z" fill="#4793FF"/>
<path d="M13.1498 6.81826L9.11987 12.8815C8.95134 13.1345 8.95134 13.4649 9.11987 13.7187L13.1498 19.7819C13.4476 20.2301 14.1041 20.2301 14.402 19.7819L18.4319 13.7187C18.6005 13.4649 18.6005 13.1345 18.4319 12.8815L14.402 6.81826C14.1041 6.36996 13.4477 6.36996 13.1498 6.81826Z" fill="#76E5F6"/>
<path d="M13.776 14.2752V20.1181C14.0145 20.1181 14.2531 20.006 14.402 19.7819L18.432 13.7187C18.5103 13.6008 18.5518 13.4662 18.5572 13.331L13.9235 14.2603C13.8748 14.27 13.8254 14.2752 13.776 14.2752Z" fill="#2EBEEF"/>
<path d="M13.7756 6.48202C13.5371 6.48202 13.2985 6.59414 13.1496 6.81826L9.11961 12.8815C9.02949 13.0173 8.98805 13.1745 8.99434 13.331L13.6281 14.2603C13.6768 14.27 13.7262 14.2752 13.7756 14.2752V6.48202Z" fill="#C2F4FB"/>
</g>
<defs>
<clipPath id="clip0_2_24">
<rect width="26" height="26" fill="white" transform="translate(0.701279 0.418823)"/>
</clipPath>
</defs>
</svg>
