<svg width="26" height="27" viewBox="0 0 26 27" fill="none" xmlns="http://www.w3.org/2000/svg">
<g clip-path="url(#clip0_2_29)">
<path d="M12.9913 26.4188C20.171 26.4188 25.9913 20.5985 25.9913 13.4188C25.9913 6.23912 20.171 0.418823 12.9913 0.418823C5.81157 0.418823 -0.00872612 6.23912 -0.00872612 13.4188C-0.00872612 20.5985 5.81157 26.4188 12.9913 26.4188Z" fill="#15B785"/>
<path fill-rule="evenodd" clip-rule="evenodd" d="M14.5529 14.5428V14.5412C14.4635 14.5477 14.0029 14.5753 12.975 14.5753C12.1544 14.5753 11.5768 14.5509 11.3736 14.5412V14.5436C8.21463 14.4047 5.85675 13.8546 5.85675 13.1965C5.85675 12.5392 8.21463 11.9891 11.3736 11.8478V13.996C11.58 14.0106 12.1715 14.0455 12.9889 14.0455C13.9695 14.0455 14.4611 14.0049 14.5529 13.9968V11.8494C17.7054 11.9899 20.0576 12.54 20.0576 13.1965C20.0576 13.8546 17.7054 14.403 14.5529 14.5428ZM14.5529 11.6259V9.70353H18.9518V6.77203H6.97475V9.70353H11.3736V11.6251C7.79863 11.7893 5.11007 12.4978 5.11007 13.346C5.11007 14.1943 7.79863 14.9019 11.3736 15.0669V21.2273H14.5529V15.0653C18.1223 14.9011 20.8043 14.1934 20.8043 13.346C20.8043 12.4985 18.1223 11.7909 14.5529 11.6259Z" fill="white"/>
</g>
<defs>
<clipPath id="clip0_2_29">
<rect width="26" height="26" fill="white" transform="translate(-0.00872612 0.418823)"/>
</clipPath>
</defs>
</svg>
