<svg width="152" height="21" viewBox="0 0 152 21" fill="none" xmlns="http://www.w3.org/2000/svg">
<g clip-path="url(#clip0_3_57)">
<g clip-path="url(#clip1_3_57)">
<g clip-path="url(#clip2_3_57)">
<path d="M21.0159 16.6477L17.616 3.7835H20.1338L22.4493 14.0198L25.1692 3.7835H27.7604L30.4068 14.0198L32.7223 3.7835H35.2584L31.7667 16.6477H28.9733L26.4188 7.10986L23.7909 16.6477H21.0159ZM39.8166 16.8683C38.8977 16.8683 38.083 16.6722 37.3724 16.2802C36.6618 15.8881 36.1044 15.3368 35.7 14.6262C35.2958 13.9156 35.0936 13.0947 35.0936 12.1636C35.0936 11.2203 35.2896 10.381 35.6817 9.64591C36.0859 8.91085 36.6373 8.34115 37.3357 7.93681C38.0462 7.52026 38.8793 7.31199 39.835 7.31199C40.7294 7.31199 41.5196 7.50799 42.2057 7.90004C42.8918 8.2921 43.4247 8.83117 43.8045 9.51725C44.1965 10.1911 44.3926 10.9446 44.3926 11.7777C44.3926 11.9125 44.3865 12.0534 44.3742 12.2004C44.3742 12.3474 44.3681 12.5005 44.3558 12.6598H37.4275C37.4765 13.3704 37.7216 13.9279 38.1626 14.3322C38.6159 14.7365 39.1611 14.9386 39.7982 14.9386C40.276 14.9386 40.6742 14.8345 40.9928 14.6262C41.3235 14.4057 41.5686 14.1239 41.7279 13.7808H44.1169C43.9454 14.3567 43.6575 14.8835 43.2532 15.3613C42.8611 15.8269 42.3711 16.1944 41.783 16.464C41.2072 16.7335 40.5517 16.8683 39.8166 16.8683ZM39.835 9.22322C39.2592 9.22322 38.7507 9.38865 38.3096 9.71945C37.8686 10.038 37.5868 10.5281 37.4643 11.1896H42.0035C41.9668 10.5893 41.7462 10.1115 41.3419 9.75616C40.9376 9.40087 40.4353 9.22322 39.835 9.22322ZM51.2227 16.8683C50.5366 16.8683 49.9363 16.7396 49.4217 16.4824C48.9072 16.225 48.4905 15.8636 48.172 15.3981L47.9148 16.6477H45.8197V3.41596H48.172V8.83731C48.4661 8.43304 48.852 8.07769 49.3298 7.77145C49.8199 7.46514 50.4508 7.31199 51.2227 7.31199C52.0803 7.31199 52.846 7.52026 53.5199 7.93681C54.1937 8.35336 54.7267 8.92306 55.1187 9.64591C55.5108 10.3688 55.7068 11.1896 55.7068 12.1085C55.7068 13.0274 55.5108 13.8482 55.1187 14.5711C54.7267 15.2816 54.1937 15.8453 53.5199 16.2618C52.846 16.6661 52.0803 16.8683 51.2227 16.8683ZM50.7265 14.81C51.4738 14.81 52.0925 14.5589 52.5826 14.0565C53.0727 13.5542 53.3177 12.9049 53.3177 12.1085C53.3177 11.3122 53.0727 10.6567 52.5826 10.1421C52.0925 9.62756 51.4738 9.37024 50.7265 9.37024C49.9669 9.37024 49.3421 9.62756 48.852 10.1421C48.3742 10.6444 48.1353 11.2937 48.1353 12.0901C48.1353 12.8865 48.3742 13.5419 48.852 14.0565C49.3421 14.5589 49.9669 14.81 50.7265 14.81ZM61.5204 16.8683C60.675 16.8683 59.9093 16.7213 59.2232 16.4272C58.5371 16.1209 57.9858 15.6553 57.5692 15.0305C57.1527 14.4057 56.9321 13.6216 56.9076 12.6782H59.2232C59.2355 13.303 59.4376 13.8299 59.8297 14.2587C60.2339 14.6752 60.7976 14.8835 61.5204 14.8835C62.2065 14.8835 62.7333 14.6936 63.1009 14.3138C63.4685 13.934 63.6521 13.4562 63.6521 12.8803C63.6521 12.2065 63.4072 11.6981 62.9171 11.355C62.4393 10.9997 61.8206 10.8221 61.061 10.8221H60.1053V8.89243H61.0793C61.7041 8.89243 62.2249 8.74542 62.6414 8.45139C63.0579 8.15736 63.2662 7.7224 63.2662 7.14656C63.2662 6.66877 63.107 6.28897 62.7884 6.00718C62.4822 5.71314 62.0533 5.56612 61.502 5.56612C60.9017 5.56612 60.43 5.74377 60.0869 6.09907C59.7561 6.45437 59.5724 6.8893 59.5356 7.40388H57.2384C57.2875 6.21546 57.6979 5.27821 58.4697 4.59212C59.2538 3.90603 60.2646 3.56298 61.502 3.56298C62.3841 3.56298 63.1253 3.72225 63.7255 4.04079C64.3381 4.34708 64.7976 4.75751 65.1039 5.27208C65.4228 5.78665 65.5817 6.35635 65.5817 6.98119C65.5817 7.70405 65.3798 8.31659 64.9754 8.81895C64.583 9.30898 64.0932 9.63977 63.5053 9.81134C64.228 9.95835 64.8159 10.3136 65.2697 10.8772C65.7228 11.4285 65.9494 12.1269 65.9494 12.9722C65.9494 13.6829 65.7779 14.3322 65.4348 14.9203C65.0918 15.5083 64.5893 15.98 63.928 16.3353C63.2785 16.6906 62.476 16.8683 61.5204 16.8683ZM67.7081 16.6477V3.7835H72.4678C73.4968 3.7835 74.3487 3.95503 75.0227 4.29808C75.696 4.64112 76.1985 5.11281 76.5295 5.71314C76.8598 6.31347 77.0257 6.98732 77.0257 7.73468C77.0257 8.44525 76.8662 9.1007 76.5478 9.70103C76.2289 10.2891 75.7327 10.767 75.0594 11.1345C74.3854 11.4898 73.5215 11.6675 72.4678 11.6675H70.0604V16.6477H67.7081ZM70.0604 9.75616H72.321C73.1418 9.75616 73.7297 9.57851 74.0854 9.22322C74.4525 8.85566 74.6366 8.3595 74.6366 7.73468C74.6366 7.09758 74.4525 6.60139 74.0854 6.24609C73.7297 5.87854 73.1418 5.69476 72.321 5.69476H70.0604V9.75616ZM80.8329 16.8683C80.0488 16.8683 79.4052 16.7458 78.9033 16.5007C78.4009 16.2434 78.0275 15.9065 77.7819 15.49C77.537 15.0734 77.4149 14.614 77.4149 14.1116C77.4149 13.2663 77.7452 12.5802 78.4072 12.0534C79.0685 11.5266 80.0608 11.2631 81.3842 11.2631H83.6998V11.0426C83.6998 10.4177 83.522 9.95835 83.1669 9.66433C82.8113 9.37024 82.3701 9.22322 81.8436 9.22322C81.3658 9.22322 80.9494 9.33961 80.5937 9.57244C80.2387 9.79292 80.0178 10.1237 79.9324 10.5648H77.6351C77.6965 9.90323 77.9167 9.32739 78.2964 8.83731C78.6888 8.34722 79.1913 7.97358 79.8039 7.71626C80.4165 7.44673 81.1025 7.31199 81.862 7.31199C83.1606 7.31199 84.1839 7.63665 84.9307 8.28596C85.6781 8.93534 86.0521 9.85419 86.0521 11.0426V16.6477H84.0491L83.8283 15.1775C83.5587 15.6676 83.1789 16.0719 82.6891 16.3905C82.2113 16.709 81.5924 16.8683 80.8329 16.8683ZM81.3658 15.0305C82.0398 15.0305 82.56 14.81 82.9277 14.3689C83.3074 13.9279 83.5466 13.3827 83.6447 12.7333H81.6417C81.0165 12.7333 80.5697 12.8497 80.3001 13.0825C80.0305 13.303 79.8957 13.5787 79.8957 13.9095C79.8957 14.2648 80.0305 14.5404 80.3001 14.7365C80.5697 14.9325 80.9247 15.0305 81.3658 15.0305ZM88.5798 20.6908L90.6929 16.0413H90.1417L86.5951 7.53254H89.1493L91.7042 13.9463L94.3685 7.53254H96.8683L91.0789 20.6908H88.5798ZM97.8543 16.6477V7.53254H99.9314L100.133 8.76383C100.428 8.32273 100.814 7.97358 101.291 7.71626C101.781 7.44673 102.344 7.31199 102.982 7.31199C104.39 7.31199 105.389 7.8572 105.977 8.94755C106.308 8.44525 106.749 8.04706 107.3 7.75303C107.864 7.459 108.477 7.31199 109.138 7.31199C110.327 7.31199 111.239 7.66728 111.877 8.37785C112.514 9.08849 112.832 10.1299 112.832 11.502V16.6477H110.48V11.7226C110.48 10.9385 110.327 10.3381 110.02 9.92158C109.726 9.50504 109.267 9.29676 108.642 9.29676C108.005 9.29676 107.49 9.52953 107.098 9.99512C106.719 10.4607 106.529 11.11 106.529 11.9431V16.6477H104.177V11.7226C104.177 10.9385 104.023 10.3381 103.717 9.92158C103.411 9.50504 102.939 9.29676 102.302 9.29676C101.677 9.29676 101.169 9.52953 100.776 9.99512C100.397 10.4607 100.207 11.11 100.207 11.9431V16.6477H97.8543ZM118.943 16.8683C118.024 16.8683 117.21 16.6722 116.499 16.2802C115.788 15.8881 115.231 15.3368 114.826 14.6262C114.422 13.9156 114.22 13.0947 114.22 12.1636C114.22 11.2203 114.416 10.381 114.808 9.64591C115.212 8.91085 115.764 8.34115 116.462 7.93681C117.173 7.52026 118.006 7.31199 118.961 7.31199C119.856 7.31199 120.646 7.50799 121.332 7.90004C122.018 8.2921 122.551 8.83117 122.931 9.51725C123.323 10.1911 123.519 10.9446 123.519 11.7777C123.519 11.9125 123.513 12.0534 123.501 12.2004C123.501 12.3474 123.495 12.5005 123.483 12.6598H116.554C116.603 13.3704 116.848 13.9279 117.289 14.3322C117.743 14.7365 118.287 14.9386 118.925 14.9386C119.403 14.9386 119.801 14.8345 120.12 14.6262C120.45 14.4057 120.695 14.1239 120.854 13.7808H123.243C123.072 14.3567 122.784 14.8835 122.379 15.3613C121.988 15.8269 121.497 16.1944 120.909 16.464C120.333 16.7335 119.678 16.8683 118.943 16.8683ZM118.961 9.22322C118.386 9.22322 117.877 9.38865 117.436 9.71945C116.995 10.038 116.714 10.5281 116.591 11.1896H121.13C121.094 10.5893 120.873 10.1115 120.468 9.75616C120.064 9.40087 119.562 9.22322 118.961 9.22322ZM124.946 16.6477V7.53254H127.023L127.207 9.07621C127.489 8.53714 127.893 8.10832 128.419 7.7898C128.959 7.47128 129.59 7.31199 130.312 7.31199C131.439 7.31199 132.315 7.66728 132.941 8.37785C133.565 9.08849 133.878 10.1299 133.878 11.502V16.6477H131.526V11.7226C131.526 10.9385 131.366 10.3381 131.048 9.92158C130.729 9.50504 130.233 9.29676 129.559 9.29676C128.897 9.29676 128.352 9.52953 127.923 9.99512C127.507 10.4607 127.299 11.11 127.299 11.9431V16.6477H124.946ZM139.637 16.6477C138.681 16.6477 137.916 16.415 137.34 15.9494C136.764 15.4838 136.476 14.6568 136.476 13.4684V9.4989H134.914V7.53254H136.476L136.752 5.08831H138.829V7.53254H141.291V9.4989H138.829V13.4868C138.829 13.9279 138.921 14.2341 139.104 14.4057C139.3 14.5649 139.631 14.6446 140.096 14.6446H141.236V16.6477H139.637ZM146.527 16.8683C145.718 16.8683 145.007 16.7396 144.395 16.4824C143.782 16.2128 143.292 15.8453 142.925 15.3797C142.558 14.9141 142.337 14.3751 142.263 13.7625H144.634C144.707 14.1178 144.904 14.4241 145.222 14.6813C145.553 14.9264 145.976 15.0489 146.49 15.0489C147.005 15.0489 147.378 14.9448 147.611 14.7365C147.856 14.5282 147.979 14.2893 147.979 14.0198C147.979 13.6277 147.807 13.3643 147.464 13.2295C147.121 13.0825 146.643 12.9416 146.031 12.8069C145.638 12.7211 145.24 12.6169 144.836 12.4944C144.431 12.3719 144.058 12.2187 143.715 12.035C143.384 11.839 143.114 11.5939 142.906 11.2999C142.698 10.9936 142.594 10.6199 142.594 10.1788C142.594 9.37024 142.913 8.69029 143.55 8.13895C144.199 7.58766 145.105 7.31199 146.269 7.31199C147.348 7.31199 148.205 7.56311 148.842 8.06547C149.492 8.56777 149.878 9.25999 150 10.1421H147.777C147.642 9.46827 147.133 9.13133 146.251 9.13133C145.81 9.13133 145.467 9.21709 145.222 9.38865C144.989 9.56016 144.873 9.77457 144.873 10.0318C144.873 10.3014 145.05 10.5158 145.406 10.6751C145.761 10.8344 146.233 10.9814 146.821 11.1161C147.458 11.2631 148.04 11.4285 148.567 11.6123C149.106 11.7838 149.535 12.0472 149.853 12.4025C150.171 12.7456 150.331 13.2418 150.331 13.8911C150.343 14.4547 150.196 14.9631 149.89 15.4164C149.584 15.8698 149.142 16.225 148.567 16.4824C147.991 16.7396 147.311 16.8683 146.527 16.8683Z" fill="white"/>
<path d="M6.33697 18.0721C8.27593 18.0721 9.84776 16.5003 9.84776 14.5613C9.84776 12.6224 8.27593 11.0505 6.33697 11.0505C4.39802 11.0505 2.82619 12.6224 2.82619 14.5613C2.82619 16.5003 4.39802 18.0721 6.33697 18.0721Z" fill="white"/>
<path d="M10.2137 11.5626C11.7487 11.5626 12.993 10.3182 12.993 8.7832C12.993 7.24819 11.7487 6.00382 10.2137 6.00382C8.67865 6.00382 7.43428 7.24819 7.43428 8.7832C7.43428 10.3182 8.67865 11.5626 10.2137 11.5626Z" fill="white"/>
<path d="M4.72797 7.53977C6.1014 7.53977 7.21478 6.42639 7.21478 5.05296C7.21478 3.67954 6.1014 2.56616 4.72797 2.56616C3.35455 2.56616 2.24117 3.67954 2.24117 5.05296C2.24117 6.42639 3.35455 7.53977 4.72797 7.53977Z" fill="white"/>
<path d="M3.2652 11.0506C4.07309 11.0506 4.72802 10.3956 4.72802 9.58775C4.72802 8.77985 4.07309 8.12492 3.2652 8.12492C2.4573 8.12492 1.80237 8.77985 1.80237 9.58775C1.80237 10.3956 2.4573 11.0506 3.2652 11.0506Z" fill="white"/>
</g>
</g>
</g>
<defs>
<clipPath id="clip0_3_57">
<rect width="151.19" height="20" fill="white" transform="translate(0.0712738 0.698862)"/>
</clipPath>
<clipPath id="clip1_3_57">
<rect width="151.19" height="20" fill="white" transform="translate(0.0712738 0.698862)"/>
</clipPath>
<clipPath id="clip2_3_57">
<rect width="151.19" height="19.9983" fill="white" transform="translate(0.0712738 0.699691)"/>
</clipPath>
</defs>
</svg>
